<svg viewBox="0 0 75 74" fill="none" xmlns="http://www.w3.org/2000/svg">
<path fill-rule="evenodd" clip-rule="evenodd" d="M44.36 28.44C44.362 29.7462 43.9763 31.0236 43.2519 32.1105C42.5274 33.1974 41.4967 34.0449 40.2903 34.5457C39.0839 35.0464 37.7561 35.178 36.4749 34.9236C35.1937 34.6693 34.0167 34.0405 33.0931 33.1169C32.1695 32.1933 31.5407 31.0163 31.2863 29.7351C31.032 28.4539 31.1635 27.1261 31.6643 25.9197C32.1651 24.7133 33.0126 23.6826 34.0995 22.9581C35.1864 22.2337 36.4638 21.848 37.77 21.85C39.5178 21.85 41.194 22.5443 42.4298 23.7802C43.6657 25.016 44.36 26.6922 44.36 28.44Z" stroke="black" stroke-width="1.51" stroke-linecap="round" stroke-linejoin="round"/>
<path fill-rule="evenodd" clip-rule="evenodd" d="M46.86 48.23C47.3055 48.2331 47.7447 48.1251 48.1379 47.9158C48.5311 47.7065 48.8659 47.4024 49.1121 47.0312C49.3583 46.6599 49.5081 46.2331 49.5478 45.7895C49.5876 45.3458 49.5162 44.8992 49.34 44.49C48.3438 42.2522 46.7203 40.351 44.666 39.0168C42.6116 37.6826 40.2146 36.9725 37.765 36.9725C35.3154 36.9725 32.9184 37.6826 30.864 39.0168C28.8097 40.351 27.1862 42.2522 26.19 44.49C26.0165 44.8993 25.9471 45.3452 25.9881 45.7879C26.029 46.2305 26.179 46.6561 26.4247 47.0266C26.6704 47.3971 27.0041 47.701 27.3959 47.911C27.7877 48.121 28.2254 48.2306 28.67 48.23H46.86Z" stroke="black" stroke-width="1.51" stroke-linecap="round" stroke-linejoin="round"/>
<path d="M53.3 41.61H44.93C44.2507 41.61 43.7 42.1607 43.7 42.84V51.21C43.7 51.8893 44.2507 52.44 44.93 52.44H53.3C53.9793 52.44 54.53 51.8893 54.53 51.21V42.84C54.53 42.1607 53.9793 41.61 53.3 41.61Z" fill="white"/>
<path fill-rule="evenodd" clip-rule="evenodd" d="M50.78 46.72C50.8514 46.733 50.916 46.7707 50.9626 46.8264C51.0091 46.8821 51.0345 46.9524 51.0345 47.025C51.0345 47.0976 51.0091 47.1679 50.9626 47.2237C50.916 47.2794 50.8514 47.3171 50.78 47.33H49.42V48.69C49.407 48.7615 49.3694 48.8261 49.3136 48.8726C49.2579 48.9191 49.1876 48.9446 49.115 48.9446C49.0424 48.9446 48.9721 48.9191 48.9164 48.8726C48.8606 48.8261 48.823 48.7615 48.81 48.69V47.33H47.45C47.3786 47.3171 47.314 47.2794 47.2675 47.2237C47.2209 47.1679 47.1954 47.0976 47.1954 47.025C47.1954 46.9524 47.2209 46.8821 47.2675 46.8264C47.314 46.7707 47.3786 46.733 47.45 46.72H48.81V45.36C48.823 45.2886 48.8606 45.224 48.9164 45.1775C48.9721 45.131 49.0424 45.1055 49.115 45.1055C49.1876 45.1055 49.2579 45.131 49.3136 45.1775C49.3694 45.224 49.407 45.2886 49.42 45.36V46.72H50.78ZM52.53 43.08H45.7C45.6292 43.08 45.5591 43.0941 45.4938 43.1216C45.4285 43.1491 45.3694 43.1893 45.32 43.24C45.2279 43.337 45.1777 43.4663 45.18 43.6V50.43C45.1794 50.4986 45.1923 50.5665 45.2181 50.63C45.2438 50.6935 45.2819 50.7513 45.33 50.8C45.3794 50.8507 45.4385 50.891 45.5038 50.9185C45.5691 50.946 45.6392 50.9601 45.71 50.96H52.54C52.6093 50.9599 52.6779 50.9457 52.7415 50.9181C52.8051 50.8906 52.8624 50.8505 52.91 50.8C52.9614 50.7532 53.0022 50.6961 53.0298 50.6323C53.0574 50.5685 53.0711 50.4995 53.07 50.43V43.61C53.065 43.4711 53.0076 43.3391 52.9093 43.2408C52.8109 43.1424 52.679 43.085 52.54 43.08H52.53ZM45.7 42.48C45.4003 42.4806 45.1129 42.5992 44.9 42.81C44.6984 43.0202 44.5841 43.2989 44.58 43.59V50.42C44.5811 50.5692 44.6116 50.7167 44.67 50.854C44.7284 50.9914 44.8133 51.1157 44.92 51.22C45.0241 51.3263 45.1487 51.4103 45.2862 51.467C45.4237 51.5237 45.5713 51.552 45.72 51.55H52.55C52.6986 51.5508 52.8458 51.5221 52.9832 51.4654C53.1205 51.4088 53.2452 51.3254 53.35 51.22C53.5591 51.0059 53.6773 50.7193 53.68 50.42V43.61C53.68 43.3103 53.5609 43.0229 53.349 42.811C53.1371 42.5991 52.8497 42.48 52.55 42.48H45.7Z" fill="black"/>
</svg>
