<svg viewBox="0 0 65 65" fill="none" xmlns="http://www.w3.org/2000/svg">
<path fill-rule="evenodd" clip-rule="evenodd" d="M39.36 24C39.362 25.3062 38.9763 26.5836 38.2519 27.6705C37.5274 28.7574 36.4967 29.6049 35.2903 30.1057C34.0839 30.6065 32.7561 30.738 31.4749 30.4837C30.1937 30.2293 29.0167 29.6005 28.0931 28.6769C27.1695 27.7533 26.5407 26.5763 26.2863 25.2951C26.032 24.0139 26.1635 22.6861 26.6643 21.4797C27.1651 20.2733 28.0126 19.2426 29.0995 18.5181C30.1864 17.7937 31.4638 17.408 32.77 17.41C34.517 17.4127 36.1916 18.1078 37.4269 19.3431C38.6622 20.5784 39.3574 22.253 39.36 24V24Z" stroke="black" stroke-width="1.51" stroke-linecap="round" stroke-linejoin="round"/>
<path fill-rule="evenodd" clip-rule="evenodd" d="M41.87 43.8C42.3146 43.8014 42.7526 43.6922 43.1445 43.4822C43.5363 43.2722 43.8698 42.9679 44.1148 42.5969C44.3599 42.2259 44.5087 41.7998 44.548 41.3569C44.5873 40.9141 44.5158 40.4684 44.34 40.06C43.3457 37.8215 41.7234 35.9195 39.6698 34.5846C37.6161 33.2497 35.2194 32.5391 32.77 32.5391C30.3206 32.5391 27.9238 33.2497 25.8702 34.5846C23.8166 35.9195 22.1943 37.8215 21.2 40.06C21.0241 40.4684 20.9526 40.9141 20.9919 41.3569C21.0312 41.7998 21.1801 42.2259 21.4251 42.5969C21.6702 42.9679 22.0036 43.2722 22.3955 43.4822C22.7874 43.6922 23.2254 43.8014 23.67 43.8H41.87Z" stroke="black" stroke-width="1.51" stroke-linecap="round" stroke-linejoin="round"/>
<path d="M48.3 37.18H39.93C39.2507 37.18 38.7 37.7307 38.7 38.41V46.78C38.7 47.4593 39.2507 48.01 39.93 48.01H48.3C48.9793 48.01 49.53 47.4593 49.53 46.78V38.41C49.53 37.7307 48.9793 37.18 48.3 37.18Z" fill="white"/>
<path fill-rule="evenodd" clip-rule="evenodd" d="M45.78 42.29C45.8514 42.303 45.916 42.3406 45.9626 42.3963C46.0091 42.4521 46.0345 42.5224 46.0345 42.595C46.0345 42.6676 46.0091 42.7379 45.9626 42.7936C45.916 42.8494 45.8514 42.887 45.78 42.9H44.42V44.26C44.407 44.3314 44.3694 44.396 44.3136 44.4425C44.2579 44.489 44.1876 44.5145 44.115 44.5145C44.0424 44.5145 43.9721 44.489 43.9164 44.4425C43.8606 44.396 43.823 44.3314 43.81 44.26V42.9H42.45C42.3786 42.887 42.314 42.8494 42.2675 42.7936C42.2209 42.7379 42.1955 42.6676 42.1955 42.595C42.1955 42.5224 42.2209 42.4521 42.2675 42.3963C42.314 42.3406 42.3786 42.303 42.45 42.29H43.81V40.93C43.823 40.8586 43.8606 40.7939 43.9164 40.7474C43.9721 40.7009 44.0424 40.6754 44.115 40.6754C44.1876 40.6754 44.2579 40.7009 44.3136 40.7474C44.3694 40.7939 44.407 40.8586 44.42 40.93V42.29H45.78ZM47.53 38.65H40.7C40.6307 38.6501 40.5621 38.6644 40.4985 38.6919C40.4349 38.7194 40.3776 38.7596 40.33 38.81C40.2413 38.9091 40.1916 39.037 40.19 39.17V46C40.195 46.139 40.2524 46.2709 40.3507 46.3692C40.4491 46.4676 40.581 46.525 40.72 46.53H47.55C47.689 46.525 47.8209 46.4676 47.9193 46.3692C48.0176 46.2709 48.075 46.139 48.08 46V39.17C48.0811 39.1005 48.0674 39.0316 48.0398 38.9678C48.0122 38.904 47.9714 38.8468 47.92 38.8C47.8724 38.7496 47.8151 38.7094 47.7515 38.6819C47.6879 38.6544 47.6193 38.6401 47.55 38.64L47.53 38.65ZM40.7 38.05C40.5514 38.0492 40.4042 38.0779 40.2668 38.1346C40.1295 38.1913 40.0048 38.2747 39.9 38.38C39.7012 38.5911 39.5904 38.87 39.59 39.16V46C39.5892 46.1486 39.618 46.2958 39.6746 46.4332C39.7313 46.5705 39.8147 46.6952 39.92 46.8C40.1341 47.009 40.4208 47.1273 40.72 47.13H47.55C47.8493 47.1273 48.1359 47.009 48.35 46.8C48.4553 46.6952 48.5387 46.5705 48.5954 46.4332C48.652 46.2958 48.6808 46.1486 48.68 46V39.17C48.6819 39.0213 48.6537 38.8737 48.597 38.7362C48.5402 38.5987 48.4562 38.4741 48.35 38.37C48.2452 38.2647 48.1205 38.1812 47.9832 38.1246C47.8458 38.0679 47.6986 38.0392 47.55 38.04L40.7 38.05Z" fill="black"/>
</svg>
