<svg viewBox="0 0 36 26" fill="none" xmlns="http://www.w3.org/2000/svg"><path d="M33.64 1.01999H2.28999C1.32901 1.01999 0.549988 1.79903 0.549988 2.76001V23C0.549988 23.961 1.32901 24.74 2.28999 24.74H33.64C34.601 24.74 35.38 23.961 35.38 23V2.76001C35.38 1.79903 34.601 1.01999 33.64 1.01999Z" fill="#E5E6E7" stroke="#A8AAAD" stroke-width="0.96" stroke-miterlimit="22.93"/><path d="M1.84 9.39001H34.09" stroke="#A8AAAD" stroke-width="0.48" stroke-miterlimit="22.93" stroke-linecap="round"/><path fill-rule="evenodd" clip-rule="evenodd" d="M4.37001 5.70999L4.52001 5.54999C4.63167 5.41514 4.69191 5.24508 4.69001 5.07001C4.67761 4.89721 4.59876 4.73591 4.47 4.62L4.23001 4.39999C4.09988 4.28366 3.92897 4.2236 3.75468 4.23297C3.58039 4.24234 3.41691 4.3204 3.3 4.45001L3.16001 4.60999L3.11001 4.67001C3.02164 4.76915 2.959 4.88847 2.92761 5.01752C2.89622 5.14656 2.89705 5.28135 2.93001 5.41C3.07126 6.19917 3.46772 6.92015 4.05848 7.46213C4.64924 8.00411 5.40161 8.33712 6.20001 8.41C6.39802 8.43354 6.59829 8.39138 6.77001 8.29001C6.83213 8.25877 6.88672 8.21441 6.93001 8.16L7.07001 8.01001C7.19275 7.88638 7.26163 7.71923 7.26163 7.54501C7.26163 7.3708 7.19275 7.20362 7.07001 7.07999L6.83001 6.85999C6.70929 6.75105 6.55261 6.69053 6.39 6.69C6.29767 6.69148 6.20661 6.71175 6.12236 6.74957C6.03812 6.7874 5.96246 6.84198 5.90001 6.91L5.76001 7.07001C5.69601 7.133 5.65097 7.21267 5.63 7.29999V7.29999C4.95771 7.08238 4.39304 6.61778 4.05 6V6C4.1604 5.96563 4.26021 5.90369 4.34001 5.82001L4.37001 5.70999ZM5.15001 4.56C5.15001 4.52022 5.16581 4.48208 5.19394 4.45395C5.22207 4.42582 5.26022 4.41 5.3 4.41C5.5013 4.40867 5.70085 4.44732 5.88708 4.52374C6.07331 4.60016 6.2425 4.71282 6.38484 4.85516C6.52718 4.9975 6.63983 5.16671 6.71625 5.35294C6.79267 5.53916 6.83133 5.73871 6.83001 5.94C6.83001 5.97978 6.8142 6.01792 6.78607 6.04605C6.75794 6.07418 6.71979 6.09 6.68001 6.09C6.64022 6.09 6.60207 6.07418 6.57394 6.04605C6.54581 6.01792 6.53001 5.97978 6.53001 5.94C6.53001 5.77848 6.49819 5.61853 6.43638 5.4693C6.37456 5.32007 6.28396 5.18447 6.16975 5.07025C6.05553 4.95604 5.91994 4.86543 5.77071 4.80362C5.62148 4.74181 5.46153 4.70999 5.3 4.70999C5.26022 4.70999 5.22207 4.69421 5.19394 4.66608C5.16581 4.63795 5.15001 4.59978 5.15001 4.56V4.56ZM5.15001 3.81C5.15001 3.77022 5.16581 3.73208 5.19394 3.70395C5.22207 3.67582 5.26022 3.66 5.3 3.66C5.89674 3.66 6.46904 3.89704 6.891 4.319C7.31295 4.74096 7.55 5.31327 7.55 5.91C7.55 5.94979 7.5342 5.98792 7.50607 6.01605C7.47794 6.04418 7.43979 6.06 7.40001 6.06C7.35925 6.06008 7.32 6.0446 7.29026 6.01672C7.26053 5.98885 7.24255 5.95068 7.24001 5.91C7.24024 5.3898 7.03778 4.88997 6.67559 4.51657C6.3134 4.14318 5.81997 3.92561 5.3 3.91C5.27233 3.90715 5.24613 3.89611 5.22476 3.8783C5.20339 3.86048 5.18781 3.8367 5.18001 3.81H5.15001Z" fill="#A8AAAD"/><path fill-rule="evenodd" clip-rule="evenodd" d="M15.74 7.23999C15.74 7.29999 15.74 7.34999 15.74 7.39999C15.7427 7.43327 15.7427 7.46672 15.74 7.5C15.744 7.5198 15.744 7.5402 15.74 7.56H13.14C13.1331 7.54059 13.1331 7.51941 13.14 7.5C13.1286 7.46765 13.1286 7.43235 13.14 7.39999C13.1347 7.34679 13.1347 7.29319 13.14 7.23999V7.07001V6.97C13.1359 6.95021 13.1359 6.9298 13.14 6.91H13.2H14V4.07001L13.3 4.45999H13.18C13.1683 4.46816 13.1543 4.47256 13.14 4.47256C13.1257 4.47256 13.1117 4.46816 13.1 4.45999C13.0911 4.42726 13.0911 4.39272 13.1 4.35999C13.0933 4.29349 13.0933 4.2265 13.1 4.16V4C13.1 4 13.1 3.94 13.1 3.91V3.85001L13.16 3.79999L14.1 3.19H14.65H14.77H14.82V6.79999H15.53H15.59C15.594 6.81978 15.594 6.84019 15.59 6.85999V6.95999C15.6569 7.0432 15.7078 7.13815 15.74 7.23999V7.23999Z" fill="#980000"/><path fill-rule="evenodd" clip-rule="evenodd" d="M19.26 6.3C19.2637 6.49987 19.2227 6.69806 19.14 6.88002C19.0547 7.04342 18.9353 7.18662 18.79 7.3C18.6293 7.41606 18.4501 7.50398 18.26 7.56001C18.0386 7.62137 17.8097 7.65165 17.58 7.65001C17.4402 7.66064 17.2998 7.66064 17.16 7.65001L16.81 7.57002C16.7272 7.54394 16.6468 7.51047 16.57 7.47002C16.5221 7.45151 16.4781 7.42441 16.44 7.39003L16.39 7.33C16.3843 7.30364 16.3843 7.27638 16.39 7.25002C16.3843 7.21356 16.3843 7.17648 16.39 7.14003C16.39 7.09003 16.39 7.04002 16.39 6.97002C16.3749 6.89746 16.3749 6.82257 16.39 6.75002C16.3959 6.73322 16.4066 6.71855 16.4209 6.70787C16.4351 6.69719 16.4522 6.69099 16.47 6.69002H16.59L16.8 6.79002L17.1 6.88002C17.2274 6.91266 17.3584 6.92944 17.49 6.93001C17.6018 6.92962 17.713 6.91279 17.82 6.88002C17.9072 6.85636 17.9887 6.81557 18.06 6.76002C18.1284 6.7137 18.1808 6.64733 18.21 6.57002C18.2259 6.48745 18.2259 6.40259 18.21 6.32002C18.2125 6.22646 18.1919 6.13372 18.15 6.05C18.1082 5.96629 18.0463 5.89417 17.97 5.84001C17.8821 5.77924 17.7838 5.73517 17.68 5.71001C17.5426 5.67622 17.4015 5.65944 17.26 5.66002H16.81C16.7984 5.65607 16.7878 5.64952 16.7792 5.64085C16.7705 5.63218 16.7639 5.62161 16.76 5.61C16.7573 5.57672 16.7573 5.5433 16.76 5.51002C16.754 5.45351 16.754 5.39652 16.76 5.34001C16.7544 5.28683 16.7544 5.23319 16.76 5.18001C16.76 5.18001 16.76 5.11001 16.76 5.09001H16.83H17.21C17.3261 5.10643 17.4439 5.10643 17.56 5.09001C17.6517 5.06518 17.737 5.02083 17.81 4.96001C17.8771 4.90169 17.9316 4.83022 17.97 4.75002C18.0028 4.66725 18.0198 4.57904 18.02 4.49001C18.0312 4.42045 18.0312 4.34957 18.02 4.28001C18.0303 4.18624 18.0235 4.09137 18 4.00002C17.943 3.9533 17.8789 3.91616 17.81 3.89003C17.7207 3.87413 17.6293 3.87413 17.54 3.89003C17.4278 3.88549 17.3158 3.90245 17.21 3.94002L16.93 4.05L16.72 4.17003C16.6872 4.20203 16.6453 4.22301 16.6 4.23003H16.55C16.5444 4.19693 16.5444 4.16312 16.55 4.13002C16.544 4.07351 16.544 4.01652 16.55 3.96001V3.82002C16.55 3.82002 16.55 3.75003 16.55 3.73003C16.5487 3.70671 16.5487 3.68333 16.55 3.66002L16.6 3.61C16.6399 3.56816 16.6874 3.53426 16.74 3.51002L17 3.39003C17.1206 3.34471 17.2442 3.30794 17.37 3.28001C17.5198 3.26925 17.6702 3.26925 17.82 3.28001C18.0096 3.27844 18.1984 3.30539 18.38 3.36C18.5287 3.40333 18.6679 3.47462 18.79 3.57002C18.9009 3.66023 18.9869 3.77726 19.04 3.91002C19.1015 4.05897 19.1321 4.21888 19.13 4.38002C19.1288 4.50495 19.112 4.62925 19.08 4.75002C19.0506 4.86213 18.9997 4.96743 18.93 5.06001C18.8627 5.14894 18.7817 5.22659 18.69 5.29002C18.5848 5.35447 18.47 5.40171 18.35 5.43001V5.43001C18.4918 5.44396 18.6303 5.48114 18.76 5.54002C18.8751 5.59931 18.9799 5.67698 19.07 5.77C19.1507 5.85787 19.2151 5.95949 19.26 6.07002C19.2694 6.1464 19.2694 6.22363 19.26 6.3V6.3Z" fill="#980000"/><path fill-rule="evenodd" clip-rule="evenodd" d="M22.85 6.11999C22.8533 6.32766 22.8195 6.53427 22.75 6.73C22.6862 6.90995 22.5838 7.07376 22.45 7.20998C22.3176 7.35319 22.1531 7.46288 21.97 7.52999C21.5882 7.67036 21.1722 7.68783 20.78 7.57998C20.6368 7.54297 20.5036 7.47468 20.39 7.38C20.2795 7.29648 20.1875 7.19092 20.12 7.07C20.0471 6.93712 19.9901 6.79615 19.95 6.64999C19.9086 6.48219 19.8785 6.31183 19.86 6.14001C19.86 5.96001 19.86 5.76999 19.86 5.55999C19.86 5.34999 19.86 5.20998 19.86 5.01998C19.8796 4.83442 19.913 4.65059 19.96 4.46999C20.0091 4.29212 20.0796 4.12086 20.17 3.95998C20.2541 3.79579 20.3696 3.6497 20.51 3.52999C20.6552 3.4003 20.8253 3.30161 21.01 3.23998C21.2352 3.16316 21.472 3.12596 21.71 3.13H21.97H22.21L22.4 3.17998L22.5 3.23C22.5 3.23 22.5 3.23 22.5 3.29C22.5057 3.31636 22.5057 3.34362 22.5 3.36999C22.5 3.36999 22.5 3.44 22.5 3.48C22.5 3.52 22.5 3.61 22.5 3.66C22.5067 3.69299 22.5067 3.72701 22.5 3.76C22.5068 3.77941 22.5068 3.80059 22.5 3.82H22.39L22.24 3.76998C22.1688 3.74507 22.095 3.72831 22.02 3.71999H21.74C21.5806 3.71287 21.422 3.74734 21.28 3.82C21.1547 3.88574 21.0481 3.98205 20.97 4.1C20.8847 4.21926 20.8266 4.35581 20.8 4.49999C20.7591 4.66008 20.7389 4.82475 20.74 4.98998L20.91 4.89001C20.9768 4.85553 21.0472 4.82868 21.12 4.80999H21.36C21.6443 4.75284 21.9389 4.77711 22.21 4.88C22.3607 4.9307 22.4952 5.02041 22.6 5.14001C22.7032 5.25459 22.7785 5.39149 22.82 5.54C22.8704 5.71544 22.894 5.89748 22.89 6.07998L22.85 6.11999ZM21.98 6.2C21.9908 6.1003 21.9908 5.99969 21.98 5.89999C21.9651 5.81958 21.9308 5.74404 21.88 5.67998C21.8357 5.61826 21.7725 5.57263 21.7 5.54998C21.6143 5.51513 21.5224 5.49812 21.43 5.49999H21.25H21.07L20.9 5.57998C20.8437 5.59791 20.7923 5.62875 20.75 5.67001C20.7323 5.86961 20.7323 6.07037 20.75 6.26998C20.7641 6.40342 20.8049 6.53265 20.87 6.64999C20.915 6.73523 20.9847 6.80493 21.07 6.85C21.1572 6.89193 21.2532 6.9125 21.35 6.91C21.4434 6.9113 21.5359 6.89075 21.62 6.85C21.696 6.81387 21.7614 6.75876 21.81 6.68999C21.8637 6.61398 21.9043 6.52947 21.93 6.43999C21.9633 6.36324 21.9868 6.28262 22 6.2H21.98Z" fill="#980000"/><path fill-rule="evenodd" clip-rule="evenodd" d="M19.26 6.3C19.2637 6.49987 19.2227 6.69806 19.14 6.88002C19.0547 7.04342 18.9353 7.18662 18.79 7.3C18.6293 7.41606 18.4501 7.50398 18.26 7.56001C18.0386 7.62137 17.8097 7.65165 17.58 7.65001C17.4402 7.66064 17.2998 7.66064 17.16 7.65001L16.81 7.57002C16.7272 7.54394 16.6468 7.51047 16.57 7.47002C16.5221 7.45151 16.4781 7.42441 16.44 7.39003L16.39 7.33C16.3843 7.30364 16.3843 7.27638 16.39 7.25002C16.3843 7.21356 16.3843 7.17648 16.39 7.14003C16.39 7.09003 16.39 7.04002 16.39 6.97002C16.3749 6.89746 16.3749 6.82257 16.39 6.75002C16.3959 6.73322 16.4066 6.71855 16.4209 6.70787C16.4351 6.69719 16.4522 6.69099 16.47 6.69002H16.59L16.8 6.79002L17.1 6.88002C17.2274 6.91266 17.3584 6.92944 17.49 6.93001C17.6018 6.92962 17.713 6.91279 17.82 6.88002C17.9072 6.85636 17.9887 6.81557 18.06 6.76002C18.1284 6.7137 18.1808 6.64733 18.21 6.57002C18.2259 6.48745 18.2259 6.40259 18.21 6.32002C18.2125 6.22646 18.1919 6.13372 18.15 6.05C18.1082 5.96629 18.0463 5.89417 17.97 5.84001C17.8821 5.77924 17.7838 5.73517 17.68 5.71001C17.5426 5.67622 17.4015 5.65944 17.26 5.66002H16.81C16.7984 5.65607 16.7878 5.64952 16.7792 5.64085C16.7705 5.63218 16.7639 5.62161 16.76 5.61C16.7573 5.57672 16.7573 5.5433 16.76 5.51002C16.754 5.45351 16.754 5.39652 16.76 5.34001C16.7544 5.28683 16.7544 5.23319 16.76 5.18001C16.76 5.18001 16.76 5.11001 16.76 5.09001H16.83H17.21C17.3261 5.10643 17.4439 5.10643 17.56 5.09001C17.6517 5.06518 17.737 5.02083 17.81 4.96001C17.8771 4.90169 17.9316 4.83022 17.97 4.75002C18.0028 4.66725 18.0198 4.57904 18.02 4.49001C18.0312 4.42045 18.0312 4.34957 18.02 4.28001C18.0303 4.18624 18.0235 4.09137 18 4.00002C17.943 3.9533 17.8789 3.91616 17.81 3.89003C17.7207 3.87413 17.6293 3.87413 17.54 3.89003C17.4278 3.88549 17.3158 3.90245 17.21 3.94002L16.93 4.05L16.72 4.17003C16.6872 4.20203 16.6453 4.22301 16.6 4.23003H16.55C16.5444 4.19693 16.5444 4.16312 16.55 4.13002C16.544 4.07351 16.544 4.01652 16.55 3.96001V3.82002C16.55 3.82002 16.55 3.75003 16.55 3.73003C16.5487 3.70671 16.5487 3.68333 16.55 3.66002L16.6 3.61C16.6399 3.56816 16.6874 3.53426 16.74 3.51002L17 3.39003C17.1206 3.34471 17.2442 3.30794 17.37 3.28001C17.5198 3.26925 17.6702 3.26925 17.82 3.28001C18.0096 3.27844 18.1984 3.30539 18.38 3.36C18.5287 3.40333 18.6679 3.47462 18.79 3.57002C18.9009 3.66023 18.9869 3.77726 19.04 3.91002C19.1015 4.05897 19.1321 4.21888 19.13 4.38002C19.1288 4.50495 19.112 4.62925 19.08 4.75002C19.0506 4.86213 18.9997 4.96743 18.93 5.06001C18.8627 5.14894 18.7817 5.22659 18.69 5.29002C18.5848 5.35447 18.47 5.40171 18.35 5.43001V5.43001C18.4918 5.44396 18.6303 5.48114 18.76 5.54002C18.8751 5.59931 18.9799 5.67698 19.07 5.77C19.1507 5.85787 19.2151 5.95949 19.26 6.07002C19.2694 6.1464 19.2694 6.22363 19.26 6.3V6.3Z" stroke="#980000" stroke-width="0.22" stroke-miterlimit="22.93"/><path fill-rule="evenodd" clip-rule="evenodd" d="M22.85 6.11999C22.8533 6.32766 22.8195 6.53427 22.75 6.73C22.6862 6.90995 22.5838 7.07376 22.45 7.20998C22.3176 7.35319 22.1531 7.46288 21.97 7.52999C21.5882 7.67036 21.1722 7.68783 20.78 7.57998C20.6368 7.54297 20.5036 7.47468 20.39 7.38C20.2795 7.29648 20.1875 7.19092 20.12 7.07C20.0471 6.93712 19.9901 6.79615 19.95 6.64999C19.9086 6.48219 19.8785 6.31183 19.86 6.14001C19.86 5.96001 19.86 5.76999 19.86 5.55999C19.86 5.34999 19.86 5.20998 19.86 5.01998C19.8796 4.83442 19.913 4.65059 19.96 4.46999C20.0091 4.29212 20.0796 4.12086 20.17 3.95998C20.2541 3.79579 20.3696 3.6497 20.51 3.52999C20.6552 3.4003 20.8253 3.30161 21.01 3.23998C21.2352 3.16316 21.472 3.12596 21.71 3.13H21.97H22.21L22.4 3.17998L22.5 3.23C22.5 3.23 22.5 3.23 22.5 3.29C22.5057 3.31636 22.5057 3.34362 22.5 3.36999C22.5 3.36999 22.5 3.44 22.5 3.48C22.5 3.52 22.5 3.61 22.5 3.66C22.5067 3.69299 22.5067 3.72701 22.5 3.76C22.5068 3.77941 22.5068 3.80059 22.5 3.82H22.39L22.24 3.76998C22.1688 3.74507 22.095 3.72831 22.02 3.71999H21.74C21.5806 3.71287 21.422 3.74734 21.28 3.82C21.1547 3.88574 21.0481 3.98205 20.97 4.1C20.8847 4.21926 20.8266 4.35581 20.8 4.49999C20.7591 4.66008 20.7389 4.82475 20.74 4.98998L20.91 4.89001C20.9768 4.85553 21.0472 4.82868 21.12 4.80999H21.36C21.6443 4.75284 21.9389 4.77711 22.21 4.88C22.3607 4.9307 22.4952 5.02041 22.6 5.14001C22.7032 5.25459 22.7785 5.39149 22.82 5.54C22.8704 5.71544 22.894 5.89748 22.89 6.07998L22.85 6.11999ZM21.98 6.2C21.9908 6.1003 21.9908 5.99969 21.98 5.89999C21.9651 5.81958 21.9308 5.74404 21.88 5.67998C21.8357 5.61826 21.7725 5.57263 21.7 5.54998C21.6143 5.51513 21.5224 5.49812 21.43 5.49999H21.25H21.07L20.9 5.57998C20.8437 5.59791 20.7923 5.62875 20.75 5.67001C20.7323 5.86961 20.7323 6.07037 20.75 6.26998C20.7641 6.40342 20.8049 6.53265 20.87 6.64999C20.915 6.73523 20.9847 6.80493 21.07 6.85C21.1572 6.89193 21.2532 6.9125 21.35 6.91C21.4434 6.9113 21.5359 6.89075 21.62 6.85C21.696 6.81387 21.7614 6.75876 21.81 6.68999C21.8637 6.61398 21.9043 6.52947 21.93 6.43999C21.9633 6.36324 21.9868 6.28262 22 6.2H21.98Z" stroke="#980000" stroke-width="0.22" stroke-miterlimit="22.93"/><path fill-rule="evenodd" clip-rule="evenodd" d="M7.29998 15.92C7.30391 16.0309 7.27984 16.1409 7.22998 16.24C7.18735 16.3288 7.12593 16.4073 7.04998 16.47C6.96651 16.5342 6.87144 16.5817 6.76999 16.61C6.65961 16.6428 6.54512 16.6596 6.42999 16.66H6.20998L6.02999 16.61L5.88998 16.55L5.80998 16.49V16.43C5.80421 16.3869 5.80421 16.3431 5.80998 16.3C5.80378 16.2703 5.80378 16.2397 5.80998 16.21C5.80446 16.187 5.80446 16.163 5.80998 16.14V16.14H5.87998L5.99998 16.21L6.16998 16.27C6.24961 16.281 6.33036 16.281 6.40998 16.27C6.45943 16.2805 6.51054 16.2805 6.55998 16.27C6.60506 16.2624 6.64684 16.2415 6.67999 16.21C6.71358 16.1896 6.73849 16.1576 6.74998 16.12C6.75899 16.0805 6.75899 16.0395 6.74998 16C6.76142 15.954 6.76142 15.906 6.74998 15.86C6.71695 15.8191 6.67617 15.7851 6.62998 15.76C6.58095 15.7255 6.52702 15.6985 6.46998 15.68L6.28999 15.59L6.10999 15.5C6.05214 15.4588 5.99854 15.4119 5.94999 15.36C5.8986 15.3103 5.86074 15.2484 5.83998 15.18C5.80618 15.101 5.78915 15.0159 5.78999 14.93C5.78857 14.8269 5.80902 14.7247 5.84999 14.63C5.89537 14.5516 5.95273 14.4807 6.01999 14.42C6.09734 14.3686 6.18148 14.3282 6.26999 14.3C6.37276 14.2848 6.47721 14.2848 6.57998 14.3H6.73998H6.89998L7.02999 14.35L7.09999 14.4V14.62C7.10555 14.6396 7.10555 14.6604 7.09999 14.68C7.09999 14.68 7.09999 14.68 7.09999 14.68H7.03999L6.92999 14.63L6.78999 14.57C6.72708 14.5596 6.66289 14.5596 6.59999 14.57C6.5573 14.5594 6.51267 14.5594 6.46998 14.57L6.36999 14.62L6.30998 14.7C6.30439 14.7331 6.30439 14.7669 6.30998 14.8C6.31138 14.8478 6.32901 14.8936 6.35999 14.93C6.38657 14.973 6.42468 15.0076 6.46998 15.03L6.62998 15.12L6.81998 15.2L6.99998 15.3C7.06161 15.332 7.11606 15.3762 7.15998 15.43C7.21111 15.4818 7.25184 15.5429 7.27999 15.61C7.31285 15.71 7.31973 15.8167 7.29998 15.92V15.92Z" fill="#980000"/><path fill-rule="evenodd" clip-rule="evenodd" d="M9.05 16.43C9.05544 16.4598 9.05544 16.4902 9.05 16.52C9.05467 16.5397 9.05467 16.5603 9.05 16.58V16.58H7.8C7.78415 16.5866 7.76716 16.59 7.75 16.59C7.73283 16.59 7.71584 16.5866 7.7 16.58C7.687 16.5445 7.687 16.5055 7.7 16.47V14.47C7.68703 14.4311 7.68703 14.389 7.7 14.35C7.73258 14.34 7.76742 14.34 7.8 14.35H9C9 14.35 9 14.35 9 14.41V14.58V14.64H8.14V15.21H8.87V15.27V15.44C8.87 15.44 8.87 15.44 8.87 15.5H8.14V16.16H9C9.03082 16.1969 9.05161 16.2412 9.06037 16.2885C9.06912 16.3358 9.06555 16.3845 9.05 16.43V16.43Z" fill="#980000"/><path fill-rule="evenodd" clip-rule="evenodd" d="M11.21 16.56H10.8L10.59 16.03L10.52 15.88C10.5017 15.835 10.4745 15.7942 10.44 15.76L10.34 15.69H10.2H10.05V16.58H9.68V14.46C9.67174 14.4411 9.66748 14.4207 9.66748 14.4C9.66748 14.3794 9.67174 14.3589 9.68 14.34C9.71258 14.33 9.74743 14.33 9.78 14.34H10.65C10.736 14.3524 10.8201 14.3759 10.9 14.41C10.974 14.4353 11.0397 14.4802 11.09 14.54C11.1411 14.5918 11.1819 14.6529 11.21 14.72C11.2259 14.8026 11.2259 14.8874 11.21 14.97C11.2124 15.1049 11.1741 15.2373 11.1 15.35C11.0602 15.4066 11.0091 15.4542 10.95 15.49L10.76 15.58C10.7973 15.5925 10.8314 15.613 10.86 15.64C10.8939 15.6627 10.9214 15.6937 10.94 15.73C10.9722 15.7623 10.9992 15.7994 11.02 15.84C11.0474 15.888 11.0709 15.9382 11.09 15.99L11.29 16.46C11.2924 16.4933 11.2924 16.5267 11.29 16.56C11.29 16.56 11.29 16.56 11.29 16.61L11.21 16.56ZM10.59 15C10.5916 14.9301 10.5743 14.861 10.54 14.8C10.4978 14.7447 10.4377 14.7059 10.37 14.69H9.94V15.35H10.19H10.36C10.4073 15.335 10.4514 15.3112 10.49 15.28C10.5222 15.2477 10.5492 15.2106 10.57 15.17C10.5862 15.1149 10.593 15.0574 10.59 15V15Z" fill="#980000"/><path fill-rule="evenodd" clip-rule="evenodd" d="M12.67 16.53C12.6736 16.5378 12.6755 16.5464 12.6755 16.555C12.6755 16.5636 12.6736 16.5721 12.67 16.58H12.58H12.1L11.41 14.5C11.4023 14.4671 11.4023 14.4329 11.41 14.4C11.4056 14.3906 11.4033 14.3804 11.4033 14.37C11.4033 14.3596 11.4056 14.3494 11.41 14.34H11.48H11.84C11.8454 14.3562 11.8454 14.3738 11.84 14.39L12.41 16.19L12.97 14.39V14.34H13.31C13.31 14.34 13.36 14.34 13.37 14.34C13.3753 14.3491 13.3781 14.3595 13.3781 14.37C13.3781 14.3805 13.3753 14.3909 13.37 14.4C13.3765 14.433 13.3765 14.467 13.37 14.5L12.67 16.53Z" fill="#980000"/><path fill-rule="evenodd" clip-rule="evenodd" d="M14.18 16.55H13.8V14.34H13.87H14.1H14.18V16.55Z" fill="#980000"/><path fill-rule="evenodd" clip-rule="evenodd" d="M15.82 16.74C15.8409 16.7781 15.8576 16.8183 15.87 16.86C15.8746 16.8932 15.8746 16.9268 15.87 16.96C15.886 17.0053 15.886 17.0547 15.87 17.1C15.855 17.1412 15.8269 17.1764 15.79 17.2C15.7568 17.2315 15.7151 17.2524 15.67 17.26H15.52H15.37H15.26H15.19V17.2C15.1833 17.167 15.1833 17.133 15.19 17.1C15.1976 17.0956 15.2062 17.0933 15.215 17.0933C15.2238 17.0933 15.2324 17.0956 15.24 17.1H15.45C15.4762 17.1073 15.5038 17.1073 15.53 17.1C15.5347 17.0889 15.5371 17.077 15.5371 17.065C15.5371 17.053 15.5347 17.0411 15.53 17.03C15.53 17.03 15.53 17.03 15.53 17.03C15.53 17.03 15.53 17.03 15.53 16.97L15.47 16.83C15.3619 16.8201 15.2566 16.7895 15.16 16.74C15.0603 16.6923 14.9717 16.6241 14.9 16.54C14.8061 16.4373 14.7376 16.314 14.7 16.18C14.6452 16.0156 14.6181 15.8433 14.62 15.67C14.6183 15.4902 14.6453 15.3113 14.7 15.14C14.7525 14.9972 14.8304 14.8651 14.93 14.75C15.0252 14.647 15.1411 14.5653 15.27 14.51C15.4105 14.4567 15.5597 14.4296 15.71 14.43H15.9H16.06L16.2 14.49L16.29 14.55V14.61C16.2962 14.6397 16.2962 14.6703 16.29 14.7C16.2948 14.7298 16.2948 14.7602 16.29 14.79C16.2947 14.8097 16.2947 14.8303 16.29 14.85C16.29 14.85 16.29 14.85 16.29 14.85H16.22L16.11 14.78L15.96 14.71C15.8871 14.6989 15.8129 14.6989 15.74 14.71C15.6529 14.7083 15.5668 14.729 15.49 14.77C15.4189 14.8094 15.3574 14.864 15.31 14.93C15.2522 15.0073 15.2114 15.0959 15.19 15.19C15.1741 15.2994 15.1741 15.4106 15.19 15.52C15.173 15.6394 15.173 15.7606 15.19 15.88C15.2137 15.9702 15.2544 16.0551 15.31 16.13C15.3614 16.1935 15.4263 16.2447 15.5 16.28C15.5826 16.2952 15.6674 16.2952 15.75 16.28H15.97L16.13 16.21L16.24 16.14H16.3C16.3 16.14 16.3 16.14 16.3 16.2V16.38C16.3055 16.3996 16.3055 16.4204 16.3 16.44C16.3 16.44 16.3 16.44 16.3 16.44C16.2795 16.4672 16.2518 16.488 16.22 16.5L16.1 16.56H15.96H15.83L15.82 16.74Z" fill="#980000"/><path fill-rule="evenodd" clip-rule="evenodd" d="M18.72 15.42C18.7241 15.596 18.7004 15.7714 18.65 15.94C18.605 16.0841 18.53 16.217 18.43 16.33C18.3374 16.4404 18.2164 16.5234 18.08 16.57C17.9246 16.6334 17.7578 16.664 17.59 16.66C17.4307 16.6601 17.2724 16.6365 17.12 16.59C16.9897 16.5471 16.8726 16.4713 16.78 16.37C16.6844 16.2647 16.6158 16.1377 16.58 16C16.5283 15.8248 16.5047 15.6426 16.51 15.46C16.5058 15.2874 16.5295 15.1152 16.58 14.95C16.6243 14.8086 16.6994 14.6788 16.8 14.57C16.8948 14.4596 17.0149 14.3738 17.15 14.32C17.3062 14.2603 17.4729 14.2331 17.64 14.24C17.7995 14.2366 17.9584 14.2603 18.11 14.31C18.2384 14.352 18.355 14.424 18.45 14.52C18.5456 14.6254 18.6142 14.7523 18.65 14.89C18.7011 15.0619 18.7248 15.2408 18.72 15.42V15.42ZM18.22 15.42C18.2308 15.3103 18.2308 15.1997 18.22 15.09C18.2053 14.9973 18.1712 14.9087 18.12 14.83C18.0785 14.7565 18.0157 14.6973 17.94 14.66C17.8473 14.6253 17.749 14.6084 17.65 14.61C17.5499 14.6063 17.4504 14.6269 17.36 14.67C17.2831 14.7139 17.2179 14.7756 17.17 14.85C17.1188 14.9287 17.0848 15.0173 17.07 15.11C17.0592 15.213 17.0592 15.317 17.07 15.42C17.0588 15.5331 17.0588 15.647 17.07 15.76C17.0862 15.8509 17.1166 15.9386 17.16 16.02C17.2052 16.0942 17.2713 16.1533 17.35 16.19C17.4407 16.2328 17.5397 16.255 17.64 16.255C17.7403 16.255 17.8393 16.2328 17.93 16.19C18.0091 16.1492 18.075 16.0868 18.12 16.01C18.1712 15.9313 18.2053 15.8427 18.22 15.75C18.2302 15.6469 18.2302 15.5431 18.22 15.44V15.42Z" fill="#980000"/><path d="M22.05 16.13C22.1 16.0097 22.1238 15.8802 22.12 15.75L22.07 15.79V14.35H22H21.57H21.49V15.76C21.5013 15.8329 21.5013 15.9071 21.49 15.98C21.4748 16.0404 21.4437 16.0956 21.4 16.14C21.361 16.1875 21.3088 16.2223 21.25 16.24C21.1842 16.255 21.1158 16.255 21.05 16.24C20.9838 16.2512 20.9162 16.2512 20.85 16.24L20.69 16.14C20.6512 16.0868 20.6177 16.0298 20.59 15.97C20.5784 15.8871 20.5784 15.8029 20.59 15.72V14.34H20.52H20.29H20.21V15.77C20.2089 15.9024 20.2291 16.0341 20.27 16.16C20.3083 16.2656 20.3698 16.3613 20.45 16.44C20.5372 16.5145 20.6396 16.5691 20.75 16.6C20.8792 16.6416 21.0143 16.6619 21.15 16.66C21.289 16.6619 21.4274 16.6416 21.56 16.6C21.6747 16.5622 21.7803 16.5009 21.87 16.42C21.9504 16.3376 22.0119 16.2386 22.05 16.13Z" fill="#980000"/><path fill-rule="evenodd" clip-rule="evenodd" d="M24.56 16.45C24.5645 16.4765 24.5645 16.5035 24.56 16.53C24.5642 16.5464 24.5642 16.5636 24.56 16.58H24.5H24.12L24.04 16.53C24.0085 16.5047 23.9814 16.4743 23.96 16.44L23.88 16.29L23.3 15.2L23.2 14.99L23.1 14.77C23.105 14.8566 23.105 14.9434 23.1 15.03C23.1 15.11 23.1 15.2 23.1 15.3V16.55H22.76V14.45C22.7495 14.4299 22.744 14.4076 22.744 14.385C22.744 14.3624 22.7495 14.34 22.76 14.32C22.7985 14.3044 22.8415 14.3044 22.88 14.32H23.25H23.33L23.4 14.39C23.4277 14.4273 23.4512 14.4675 23.47 14.51L23.92 15.37C23.9505 15.4178 23.9773 15.468 24 15.52L24.08 15.67L24.15 15.82L24.22 15.96C24.2148 15.8734 24.2148 15.7866 24.22 15.7V14.34H24.29H24.5H24.56V16.45Z" fill="#980000"/><path fill-rule="evenodd" clip-rule="evenodd" d="M25.54 16.55H25.17V14.34H25.24H25.47H25.54V16.55Z" fill="#980000"/><path fill-rule="evenodd" clip-rule="evenodd" d="M27.67 16.26V16.34C27.67 16.34 27.67 16.34 27.67 16.4C27.67 16.46 27.67 16.4 27.67 16.4H27.59C27.5477 16.4312 27.5003 16.4548 27.45 16.47H27.26C27.1837 16.4808 27.1063 16.4808 27.03 16.47C26.8836 16.4736 26.7378 16.4498 26.6 16.4C26.4739 16.3544 26.3606 16.2789 26.27 16.18C26.1708 16.1351 26.0796 16.0743 26 16C25.9548 15.8337 25.9313 15.6623 25.93 15.49C25.9292 15.3241 25.9528 15.159 26 15C26.0429 14.855 26.1181 14.7217 26.22 14.61C26.3182 14.5059 26.4375 14.424 26.57 14.37C26.7106 14.3167 26.8597 14.2896 27.01 14.29H27.19H27.36L27.5 14.35C27.5318 14.3621 27.5596 14.3829 27.58 14.41C27.5847 14.4297 27.5847 14.4503 27.58 14.47V14.65C27.58 14.65 27.58 14.65 27.58 14.71H27.51L27.4 14.64L27.24 14.57C27.1705 14.5588 27.0996 14.5588 27.03 14.57C26.9428 14.5674 26.8565 14.5881 26.78 14.63C26.7059 14.669 26.6411 14.7236 26.59 14.79C26.5356 14.868 26.4981 14.9566 26.48 15.05C26.4636 15.1594 26.4636 15.2706 26.48 15.38C26.4631 15.4994 26.4631 15.6206 26.48 15.74C26.5057 15.8295 26.5463 15.914 26.6 15.99C26.6518 16.0506 26.7168 16.0985 26.79 16.13C26.8693 16.1628 26.9542 16.1797 27.04 16.18C27.1129 16.1911 27.1871 16.1911 27.26 16.18L27.42 16.12L27.52 16.05H27.59C27.5867 16.0699 27.5867 16.0901 27.59 16.11L27.67 16.26Z" fill="#980000"/><path fill-rule="evenodd" clip-rule="evenodd" d="M30.09 15.42C30.0896 15.5957 30.0661 15.7705 30.02 15.94C29.975 16.0841 29.9 16.2169 29.8 16.33C29.7074 16.4404 29.5864 16.5234 29.45 16.57C29.2946 16.6334 29.1278 16.664 28.96 16.66C28.8007 16.66 28.6423 16.6364 28.49 16.59C28.3597 16.547 28.2426 16.4713 28.15 16.37C28.0543 16.2631 27.9827 16.137 27.94 16C27.8931 15.8238 27.8696 15.6423 27.87 15.46C27.8901 15.301 27.9339 15.1459 28 15C28.0394 14.8587 28.1113 14.7285 28.21 14.62C28.31 14.5111 28.433 14.4257 28.57 14.37C28.7229 14.3111 28.8862 14.2839 29.05 14.29C29.2096 14.2849 29.3688 14.3086 29.52 14.36C29.6495 14.3997 29.7665 14.472 29.86 14.57C29.9557 14.6768 30.0274 14.803 30.07 14.94C30.1211 15.1119 30.1448 15.2907 30.14 15.47L30.09 15.42ZM29.59 15.42C29.6008 15.3103 29.6008 15.1997 29.59 15.09C29.5753 14.9973 29.5412 14.9087 29.49 14.83C29.4455 14.7588 29.3836 14.7003 29.31 14.66C29.217 14.6264 29.1189 14.6094 29.02 14.61C28.9198 14.6054 28.8201 14.6261 28.73 14.67C28.6509 14.7108 28.585 14.7732 28.54 14.85C28.4856 14.928 28.4481 15.0166 28.43 15.11C28.4192 15.213 28.4192 15.317 28.43 15.42C28.4188 15.5331 28.4188 15.6469 28.43 15.76C28.4493 15.8514 28.4831 15.9392 28.53 16.02C28.5741 16.0914 28.6362 16.15 28.71 16.19C28.804 16.2329 28.9067 16.2534 29.01 16.25C29.1108 16.2495 29.2101 16.2255 29.3 16.18C29.3791 16.1392 29.445 16.0768 29.49 16C29.5412 15.9213 29.5753 15.8327 29.59 15.74C29.5995 15.6402 29.5995 15.5398 29.59 15.44V15.42Z" fill="#980000"/><path fill-rule="evenodd" clip-rule="evenodd" d="M12.11 19.3C12.1125 19.4864 12.0855 19.672 12.03 19.85C11.9763 19.9885 11.8946 20.1145 11.79 20.22C11.679 20.3207 11.5452 20.3928 11.4 20.43C11.2281 20.4811 11.0493 20.5048 10.87 20.5H10.31C10.2776 20.5114 10.2424 20.5114 10.21 20.5C10.2017 20.4811 10.1975 20.4607 10.1975 20.44C10.1975 20.4194 10.2017 20.3989 10.21 20.38V18.38C10.2012 18.363 10.1967 18.3441 10.1967 18.325C10.1967 18.3059 10.2012 18.287 10.21 18.27C10.2257 18.2628 10.2427 18.2591 10.26 18.2591C10.2773 18.2591 10.2943 18.2628 10.31 18.27H10.91C11.0899 18.2674 11.2689 18.2945 11.44 18.35C11.577 18.3927 11.7032 18.4643 11.81 18.56C11.9081 18.663 11.9831 18.7857 12.03 18.92C12.0848 19.0775 12.1119 19.2433 12.11 19.41V19.3ZM11.62 19.3C11.6352 19.1972 11.6352 19.0928 11.62 18.99C11.5928 18.9022 11.5487 18.8207 11.49 18.75C11.4328 18.6751 11.3569 18.6165 11.27 18.58C11.1541 18.561 11.0359 18.561 10.92 18.58H10.68V20.16H10.93C11.0423 20.1661 11.1546 20.1491 11.26 20.11C11.346 20.0817 11.4223 20.0297 11.48 19.96C11.5408 19.887 11.5852 19.8017 11.61 19.71C11.6348 19.5781 11.6382 19.443 11.62 19.31V19.3Z" fill="#980000"/><path fill-rule="evenodd" clip-rule="evenodd" d="M13.89 20.32C13.89 20.32 13.89 20.38 13.89 20.4C13.8917 20.42 13.8917 20.44 13.89 20.46V20.46H12.69C12.6574 20.47 12.6226 20.47 12.59 20.46C12.5817 20.4411 12.5775 20.4206 12.5775 20.4C12.5775 20.3793 12.5817 20.3589 12.59 20.34V18.34C12.5812 18.323 12.5767 18.3041 12.5767 18.285C12.5767 18.2659 12.5812 18.247 12.59 18.23C12.6058 18.2234 12.6228 18.22 12.64 18.22C12.6572 18.22 12.6742 18.2234 12.69 18.23H13.89C13.8947 18.2497 13.8947 18.2703 13.89 18.29C13.8962 18.3197 13.8962 18.3503 13.89 18.38C13.8949 18.4098 13.8949 18.4402 13.89 18.47C13.8962 18.4861 13.8962 18.5039 13.89 18.52V18.52H13V19.09H13.74C13.7462 19.1061 13.7462 19.1239 13.74 19.14C13.7454 19.1698 13.7454 19.2003 13.74 19.23C13.7449 19.2598 13.7449 19.2902 13.74 19.32C13.7462 19.3361 13.7462 19.3539 13.74 19.37V19.37H13V20.03H13.87C13.8717 20.05 13.8717 20.07 13.87 20.09C13.87 20.09 13.89 20.28 13.89 20.32Z" fill="#980000"/><path fill-rule="evenodd" clip-rule="evenodd" d="M16.21 19.8C16.2139 19.9109 16.1899 20.0209 16.14 20.12C16.1009 20.2137 16.0391 20.2962 15.96 20.36C15.8746 20.4211 15.7801 20.4683 15.68 20.5C15.5705 20.5153 15.4595 20.5153 15.35 20.5C15.2737 20.5108 15.1963 20.5108 15.12 20.5H14.94C14.889 20.4924 14.8407 20.4717 14.8 20.44C14.8 20.44 14.74 20.44 14.73 20.39C14.7248 20.367 14.7248 20.3431 14.73 20.32C14.73 20.32 14.73 20.25 14.73 20.19C14.7252 20.1602 14.7252 20.1298 14.73 20.1C14.73 20.1 14.73 20.05 14.73 20.04C14.73 20.03 14.73 20.04 14.73 20.04H14.8L14.92 20.1C15.0465 20.1661 15.1873 20.2004 15.33 20.2H15.48L15.6 20.14C15.6315 20.1127 15.6568 20.0789 15.674 20.0409C15.6913 20.003 15.7001 19.9617 15.7 19.92C15.7162 19.8782 15.7162 19.8318 15.7 19.79C15.6674 19.746 15.6266 19.7087 15.58 19.68C15.5288 19.6494 15.4753 19.6226 15.42 19.6L15.24 19.52L15.06 19.42L14.9 19.29C14.8519 19.2378 14.8145 19.1766 14.79 19.11C14.7573 19.0307 14.7403 18.9458 14.74 18.86C14.7348 18.7554 14.7591 18.6515 14.81 18.56C14.8431 18.4767 14.8985 18.4041 14.97 18.35C15.0444 18.2913 15.1292 18.2472 15.22 18.22C15.3228 18.2048 15.4272 18.2048 15.53 18.22H15.69H15.85L15.98 18.27H16.05V18.32C16.05 18.32 16.05 18.37 16.05 18.4C16.05 18.43 16.05 18.46 16.05 18.49C16.0547 18.5097 16.0547 18.5303 16.05 18.55V18.55H15.99L15.88 18.49L15.74 18.44C15.6771 18.4296 15.6129 18.4296 15.55 18.44H15.42L15.32 18.49L15.26 18.57C15.2551 18.6032 15.2551 18.6369 15.26 18.67C15.2455 18.7156 15.2455 18.7645 15.26 18.81C15.2893 18.8506 15.3268 18.8847 15.37 18.91L15.53 18.99L15.72 19.07L15.9 19.17C15.9595 19.2052 16.0134 19.249 16.06 19.3C16.1092 19.357 16.1496 19.4211 16.18 19.49C16.2186 19.5885 16.229 19.6959 16.21 19.8V19.8Z" fill="#980000"/><path fill-rule="evenodd" clip-rule="evenodd" d="M18.45 20.32C18.4531 20.3566 18.4531 20.3934 18.45 20.43C18.4544 20.4394 18.4568 20.4496 18.4568 20.46C18.4568 20.4704 18.4544 20.4806 18.45 20.49H18.38H18L17.85 20.02H16.96L16.82 20.48H16.4C16.4 20.48 16.4 20.48 16.33 20.48C16.26 20.48 16.33 20.48 16.33 20.42C16.3282 20.3867 16.3282 20.3533 16.33 20.32L17.05 18.24C17.0576 18.2356 17.0662 18.2333 17.075 18.2333C17.0838 18.2333 17.0924 18.2356 17.1 18.24H17.19H17.51H17.61C17.6176 18.2356 17.6262 18.2333 17.635 18.2333C17.6438 18.2333 17.6524 18.2356 17.66 18.24C17.6653 18.2562 17.6653 18.2738 17.66 18.29L18.39 20.36L18.45 20.32ZM17.37 18.61L17.04 19.61H17.7L17.37 18.61Z" fill="#980000"/><path fill-rule="evenodd" clip-rule="evenodd" d="M20.62 19.63C20.6238 19.7602 20.6 19.8897 20.55 20.01C20.5145 20.1199 20.4527 20.2194 20.37 20.3C20.2803 20.3809 20.1747 20.4422 20.06 20.48C19.9274 20.5216 19.789 20.5419 19.65 20.54C19.5151 20.5401 19.3807 20.5232 19.25 20.49C19.139 20.4555 19.0366 20.3975 18.95 20.32C18.8677 20.243 18.8059 20.1468 18.77 20.04C18.7275 19.9145 18.7072 19.7825 18.71 19.65V18.23H19.09V19.61C19.079 19.6896 19.079 19.7704 19.09 19.85C19.1128 19.9122 19.1467 19.9698 19.19 20.02C19.2371 20.0625 19.2912 20.0963 19.35 20.12C19.4162 20.1312 19.4838 20.1312 19.55 20.12C19.6163 20.1305 19.6838 20.1305 19.75 20.12C19.845 20.1111 19.9336 20.0685 20 20C20.0414 19.954 20.0722 19.8993 20.09 19.84C20.1051 19.7674 20.1051 19.6926 20.09 19.62V18.21H20.47V19.61L20.62 19.63ZM19.79 17.53H19.84H20.16C20.16 17.53 20.16 17.53 20.23 17.53C20.23 17.53 20.23 17.53 20.23 17.58L19.83 17.94H19.57H19.51L19.79 17.53Z" fill="#980000"/><path fill-rule="evenodd" clip-rule="evenodd" d="M23.07 19.3C23.0725 19.4864 23.0455 19.672 22.99 19.85C22.9363 19.9885 22.8546 20.1145 22.75 20.22C22.639 20.3207 22.5052 20.3928 22.36 20.43C22.1881 20.4811 22.0092 20.5048 21.83 20.5H21.27C21.2376 20.5114 21.2023 20.5114 21.17 20.5C21.1617 20.4811 21.1575 20.4607 21.1575 20.44C21.1575 20.4194 21.1617 20.3989 21.17 20.38V18.38C21.1612 18.363 21.1566 18.3441 21.1566 18.325C21.1566 18.3059 21.1612 18.287 21.17 18.27C21.1857 18.2628 21.2027 18.2591 21.22 18.2591C21.2373 18.2591 21.2543 18.2628 21.27 18.27H21.87C22.0498 18.2674 22.2289 18.2945 22.4 18.35C22.537 18.3927 22.6631 18.4643 22.77 18.56C22.8681 18.663 22.9431 18.7857 22.99 18.92C23.0448 19.0775 23.0719 19.2433 23.07 19.41V19.3ZM22.58 19.3C22.5952 19.1972 22.5952 19.0928 22.58 18.99C22.5528 18.9022 22.5087 18.8207 22.45 18.75C22.3928 18.6751 22.3169 18.6165 22.23 18.58C22.1141 18.561 21.9959 18.561 21.88 18.58H21.6V20.16H21.85C21.9623 20.1661 22.0746 20.1491 22.18 20.11C22.266 20.0817 22.3423 20.0297 22.4 19.96C22.4608 19.887 22.5052 19.8017 22.53 19.71C22.5682 19.5802 22.5851 19.4452 22.58 19.31V19.3Z" fill="#980000"/><path fill-rule="evenodd" clip-rule="evenodd" d="M24.85 20.32C24.85 20.32 24.85 20.38 24.85 20.4C24.8517 20.42 24.8517 20.44 24.85 20.46V20.46H23.6C23.5674 20.47 23.5326 20.47 23.5 20.46C23.4918 20.4411 23.4875 20.4206 23.4875 20.4C23.4875 20.3793 23.4918 20.3589 23.5 20.34V18.34C23.4912 18.323 23.4867 18.3041 23.4867 18.285C23.4867 18.2659 23.4912 18.247 23.5 18.23C23.5159 18.2234 23.5328 18.22 23.55 18.22C23.5672 18.22 23.5842 18.2234 23.6 18.23H24.8C24.8047 18.2497 24.8047 18.2703 24.8 18.29C24.8062 18.3197 24.8062 18.3503 24.8 18.38C24.8049 18.4098 24.8049 18.4402 24.8 18.47C24.8062 18.4861 24.8062 18.5039 24.8 18.52V18.52H23.93V19.09H24.67C24.6762 19.1061 24.6762 19.1239 24.67 19.14C24.6755 19.1698 24.6755 19.2003 24.67 19.23C24.6749 19.2598 24.6749 19.2902 24.67 19.32C24.6762 19.3361 24.6762 19.3539 24.67 19.37V19.37H23.93V20.03H24.8C24.8017 20.05 24.8017 20.07 24.8 20.09C24.8 20.09 24.85 20.28 24.85 20.32Z" fill="#980000"/><path fill-rule="evenodd" clip-rule="evenodd" d="M25.77 20.24C25.7812 20.3202 25.7635 20.4017 25.72 20.47C25.6523 20.4953 25.5777 20.4953 25.51 20.47C25.4 20.47 25.33 20.47 25.3 20.47C25.2518 20.4074 25.2303 20.3284 25.24 20.25C25.2307 20.1685 25.2521 20.0865 25.3 20.02C25.3652 19.9874 25.4371 19.9705 25.51 19.9705C25.5829 19.9705 25.6548 19.9874 25.72 20.02C25.72 20.02 25.77 20.13 25.77 20.24Z" fill="#980000"/></svg>