<svg viewBox="0 0 36 26" fill="none" xmlns="http://www.w3.org/2000/svg"><path d="M33.68 1.01999H2.33C1.36903 1.01999 0.589996 1.79903 0.589996 2.76001V23C0.589996 23.961 1.36903 24.74 2.33 24.74H33.68C34.641 24.74 35.42 23.961 35.42 23V2.76001C35.42 1.79903 34.641 1.01999 33.68 1.01999Z" fill="#E5E6E7" stroke="#A8AAAD" stroke-width="0.96" stroke-miterlimit="22.93"/><path d="M1.88 9.39001H34.13" stroke="#A8AAAD" stroke-width="0.48" stroke-miterlimit="22.93" stroke-linecap="round"/><path fill-rule="evenodd" clip-rule="evenodd" d="M4.92998 5.70999L5.06998 5.54999C5.12917 5.48554 5.17474 5.40981 5.20395 5.32733C5.23316 5.24485 5.24541 5.15734 5.23998 5.07001C5.22759 4.89721 5.14874 4.73591 5.01998 4.62L4.77998 4.39999C4.65926 4.29106 4.50258 4.23054 4.33998 4.23001C4.24765 4.23149 4.15658 4.25176 4.07234 4.28958C3.9881 4.32741 3.91244 4.38199 3.84998 4.45001L3.70998 4.60999V4.67001C3.62161 4.76915 3.55898 4.88847 3.52759 5.01752C3.4962 5.14656 3.49702 5.28135 3.52998 5.41C3.6728 6.19847 4.06974 6.91854 4.66019 7.46024C5.25065 8.00194 6.00216 8.3355 6.79999 8.41C6.9981 8.43587 7.19912 8.39355 7.36999 8.29001C7.4299 8.25546 7.4839 8.21157 7.52998 8.16L7.66998 8.01001C7.79273 7.88638 7.86161 7.71923 7.86161 7.54501C7.86161 7.3708 7.79273 7.20362 7.66998 7.07999L7.42998 6.85999C7.36701 6.80141 7.29289 6.75615 7.21203 6.72687C7.13117 6.69758 7.04524 6.68488 6.95936 6.68954C6.87349 6.69421 6.78944 6.71615 6.71223 6.75403C6.63502 6.7919 6.56624 6.84495 6.50999 6.91L6.35998 7.06C6.30132 7.13069 6.25715 7.21223 6.22999 7.29999V7.29999C5.59318 7.05112 5.07242 6.57317 4.76998 5.95999V5.95999C4.88343 5.92595 4.98656 5.86408 5.06998 5.78L4.92998 5.70999ZM5.69998 4.56C5.70253 4.51932 5.72051 4.48115 5.75024 4.45328C5.77998 4.4254 5.81923 4.40992 5.85998 4.41C6.06044 4.41 6.25891 4.44963 6.44398 4.52664C6.62905 4.60365 6.79706 4.71653 6.93834 4.85873C7.07961 5.00094 7.19137 5.16968 7.26717 5.35526C7.34296 5.54083 7.3813 5.73955 7.37998 5.94C7.37998 5.97978 7.36418 6.01792 7.33605 6.04605C7.30792 6.07418 7.26977 6.09 7.22999 6.09C7.1902 6.09 7.15205 6.07418 7.12392 6.04605C7.09579 6.01792 7.07999 5.97978 7.07999 5.94C7.08 5.61551 6.95178 5.30415 6.72327 5.07376C6.49475 4.84338 6.18446 4.71263 5.85998 4.70999C5.83946 4.71136 5.81888 4.70852 5.79951 4.7016C5.78014 4.69468 5.7624 4.68384 5.74739 4.66977C5.73238 4.6557 5.72044 4.63869 5.71228 4.61981C5.70412 4.60093 5.69993 4.58057 5.69998 4.56V4.56ZM5.69998 3.81C5.69998 3.77022 5.71579 3.73208 5.74392 3.70395C5.77205 3.67582 5.8102 3.66 5.84998 3.66C6.44672 3.66 7.01901 3.89704 7.44097 4.319C7.86293 4.74096 8.09998 5.31327 8.09998 5.91C8.09998 5.94979 8.08418 5.98792 8.05605 6.01605C8.02792 6.04418 7.98976 6.06 7.94998 6.06C7.9102 6.06 7.87205 6.04418 7.84392 6.01605C7.81579 5.98792 7.79999 5.94979 7.79999 5.91C7.79999 5.37957 7.58927 4.87086 7.21419 4.49579C6.83912 4.12072 6.33042 3.91 5.79999 3.91C5.78196 3.89917 5.76641 3.88466 5.75436 3.86743C5.7423 3.8502 5.73399 3.83064 5.72999 3.81H5.69998Z" fill="#A8AAAD"/><path fill-rule="evenodd" clip-rule="evenodd" d="M15.8 7.23999C15.8053 7.29319 15.8053 7.34679 15.8 7.39999C15.8027 7.43327 15.8027 7.46672 15.8 7.5C15.8069 7.51941 15.8069 7.54059 15.8 7.56H13.2C13.196 7.5402 13.196 7.5198 13.2 7.5C13.1973 7.46672 13.1973 7.43327 13.2 7.39999C13.1947 7.34679 13.1947 7.29319 13.2 7.23999C13.1944 7.18346 13.1944 7.12653 13.2 7.07001C13.19 7.03743 13.19 7.00258 13.2 6.97C13.1931 6.95059 13.1931 6.92941 13.2 6.91H13.25H14.07V4.07001L13.37 4.45999H13.24C13.2279 4.46701 13.2141 4.4707 13.2 4.4707C13.186 4.4707 13.1722 4.46701 13.16 4.45999C13.1511 4.42726 13.1511 4.39272 13.16 4.35999C13.16 4.35999 13.16 4.25 13.16 4.16C13.1547 4.11683 13.1547 4.07317 13.16 4.03C13.1552 4.0002 13.1552 3.96981 13.16 3.94V3.88L13.22 3.82999L14.16 3.22H14.71H14.83H14.89V6.82999H15.6H15.66C15.66 6.82999 15.66 6.83001 15.71 6.89001C15.7156 6.92311 15.7156 6.95689 15.71 6.98999C15.7528 7.06816 15.7831 7.1525 15.8 7.23999Z" fill="#980000"/><path fill-rule="evenodd" clip-rule="evenodd" d="M19.35 5.18999C19.3597 5.3732 19.3597 5.55677 19.35 5.73998C19.337 5.92971 19.3035 6.11748 19.25 6.29998C19.2009 6.48104 19.1304 6.65563 19.04 6.82C18.9526 6.98205 18.8375 7.12756 18.7 7.24999C18.5473 7.37978 18.3707 7.47832 18.18 7.54C17.9511 7.61604 17.7112 7.65321 17.47 7.64998H17.18L16.92 7.6L16.72 7.54L16.6 7.46999C16.5892 7.43413 16.5892 7.39584 16.6 7.35998C16.5876 7.30062 16.5876 7.23934 16.6 7.17998V6.99999C16.6 6.94999 16.6 6.92 16.6 6.89V6.83999H16.65H16.77L16.95 6.89L17.19 6.93999C17.2897 6.95082 17.3903 6.95082 17.49 6.93999C17.6554 6.94187 17.8192 6.90774 17.97 6.83999C18.0982 6.77456 18.2081 6.67835 18.29 6.55999C18.3737 6.43862 18.4347 6.30311 18.47 6.15999C18.5108 6.00329 18.531 5.84191 18.53 5.67998C18.4178 5.75821 18.2925 5.81579 18.16 5.85C17.9987 5.9032 17.8299 5.9302 17.66 5.92998C17.4595 5.93587 17.2596 5.90538 17.07 5.83999C16.9144 5.78854 16.7759 5.69512 16.67 5.57C16.5655 5.45253 16.4901 5.31206 16.45 5.15999C16.4003 4.97757 16.3768 4.78903 16.38 4.6C16.3756 4.39551 16.4095 4.192 16.48 3.99999C16.5412 3.82107 16.6401 3.65736 16.77 3.51998C16.9048 3.38206 17.0688 3.27613 17.25 3.20998C17.4618 3.13456 17.6852 3.09733 17.91 3.1C18.0893 3.09523 18.2681 3.11886 18.44 3.17C18.7214 3.25165 18.9611 3.43763 19.11 3.68999C19.1829 3.82287 19.2399 3.96382 19.28 4.10998C19.3223 4.2742 19.3524 4.44132 19.37 4.60998C19.37 4.77998 19.37 4.96999 19.37 5.15999L19.35 5.18999ZM18.47 5.07C18.4877 4.87039 18.4877 4.6696 18.47 4.46999C18.4572 4.33313 18.4164 4.20035 18.35 4.07998C18.3078 3.99266 18.2373 3.9222 18.15 3.87999C18.0592 3.83795 17.96 3.81742 17.86 3.82C17.7673 3.8152 17.6748 3.83232 17.59 3.86998C17.514 3.90611 17.4485 3.96122 17.4 4.02999C17.3458 4.09698 17.3081 4.17578 17.29 4.26C17.2748 4.36277 17.2748 4.46722 17.29 4.57C17.2792 4.67305 17.2792 4.77695 17.29 4.87999C17.3069 4.95973 17.3411 5.03481 17.39 5.1C17.4382 5.16017 17.4998 5.20812 17.57 5.23998C17.6593 5.25588 17.7507 5.25588 17.84 5.23998C17.9659 5.2413 18.091 5.221 18.21 5.17998C18.3005 5.15301 18.3877 5.11614 18.47 5.07V5.07Z" fill="#980000"/><path fill-rule="evenodd" clip-rule="evenodd" d="M22.94 5.37001C22.9431 5.68894 22.913 6.00735 22.85 6.32002C22.8046 6.57447 22.7131 6.81848 22.58 7.04002C22.454 7.2298 22.282 7.38459 22.08 7.49C21.8475 7.60572 21.5895 7.66077 21.33 7.65C21.0749 7.65976 20.8212 7.60833 20.59 7.50001C20.3973 7.39728 20.2352 7.2455 20.12 7.06001C20.0014 6.8382 19.9203 6.5983 19.88 6.35002C19.8341 6.03877 19.8107 5.72462 19.81 5.41001C19.8068 5.09439 19.8369 4.7793 19.9 4.47001C19.9456 4.2141 20.0407 3.96953 20.18 3.75001C20.299 3.55546 20.4683 3.39657 20.67 3.29002C20.9029 3.17551 21.1606 3.12053 21.42 3.13002C21.675 3.12103 21.9286 3.17242 22.16 3.28001C22.3551 3.38386 22.5178 3.5396 22.63 3.73002C22.7502 3.94756 22.8314 4.18445 22.87 4.43C22.9158 4.74125 22.9392 5.0554 22.94 5.37001V5.37001ZM22.04 5.42002C22.04 5.21002 22.04 5.03001 22.04 4.87001C22.0307 4.73254 22.014 4.59567 21.99 4.46C21.9656 4.35841 21.9355 4.25827 21.9 4.16001C21.8674 4.08994 21.8235 4.02574 21.77 3.97001C21.7221 3.92366 21.6638 3.88937 21.6 3.87001C21.5304 3.8588 21.4595 3.8588 21.39 3.87001C21.2734 3.86615 21.1584 3.89751 21.06 3.96C20.9638 4.03472 20.891 4.13533 20.85 4.25001C20.7963 4.40508 20.7627 4.56641 20.75 4.73002C20.7329 4.95303 20.7329 5.177 20.75 5.4C20.737 5.65317 20.737 5.90685 20.75 6.16001C20.7697 6.32767 20.81 6.49223 20.87 6.65C20.9087 6.7523 20.9787 6.83978 21.07 6.9C21.1645 6.95335 21.2714 6.98095 21.38 6.98002C21.4592 6.97897 21.5375 6.96195 21.61 6.93C21.679 6.90561 21.7409 6.86436 21.79 6.81001C21.8434 6.74315 21.8872 6.66909 21.92 6.59001C21.9551 6.49588 21.9819 6.39883 22 6.3C22.0114 6.17359 22.0114 6.04643 22 5.92002C22 5.75002 22 5.59002 22 5.42002H22.04Z" fill="#980000"/><path fill-rule="evenodd" clip-rule="evenodd" d="M22.94 5.37001C22.9431 5.68894 22.913 6.00735 22.85 6.32002C22.8046 6.57447 22.7131 6.81848 22.58 7.04002C22.454 7.2298 22.282 7.38459 22.08 7.49C21.8475 7.60572 21.5895 7.66077 21.33 7.65C21.0749 7.65976 20.8212 7.60833 20.59 7.50001C20.3973 7.39728 20.2352 7.2455 20.12 7.06001C20.0014 6.8382 19.9203 6.5983 19.88 6.35002C19.8341 6.03877 19.8107 5.72462 19.81 5.41001C19.8068 5.09439 19.8369 4.7793 19.9 4.47001C19.9456 4.2141 20.0407 3.96953 20.18 3.75001C20.299 3.55546 20.4683 3.39657 20.67 3.29002C20.9029 3.17551 21.1606 3.12053 21.42 3.13002C21.675 3.12103 21.9286 3.17242 22.16 3.28001C22.3551 3.38386 22.5178 3.5396 22.63 3.73002C22.7502 3.94756 22.8314 4.18445 22.87 4.43C22.9158 4.74125 22.9392 5.0554 22.94 5.37001V5.37001ZM22.04 5.42002C22.04 5.21002 22.04 5.03001 22.04 4.87001C22.0307 4.73254 22.014 4.59567 21.99 4.46C21.9656 4.35841 21.9355 4.25827 21.9 4.16001C21.8674 4.08994 21.8235 4.02574 21.77 3.97001C21.7221 3.92366 21.6638 3.88937 21.6 3.87001C21.5304 3.8588 21.4595 3.8588 21.39 3.87001C21.2734 3.86615 21.1584 3.89751 21.06 3.96C20.9638 4.03472 20.891 4.13533 20.85 4.25001C20.7963 4.40508 20.7627 4.56641 20.75 4.73002C20.7329 4.95303 20.7329 5.177 20.75 5.4C20.737 5.65317 20.737 5.90685 20.75 6.16001C20.7697 6.32767 20.81 6.49223 20.87 6.65C20.9087 6.7523 20.9787 6.83978 21.07 6.9C21.1645 6.95335 21.2714 6.98095 21.38 6.98002C21.4592 6.97897 21.5375 6.96195 21.61 6.93C21.679 6.90561 21.7409 6.86436 21.79 6.81001C21.8434 6.74315 21.8872 6.66909 21.92 6.59001C21.9551 6.49588 21.9819 6.39883 22 6.3C22.0114 6.17359 22.0114 6.04643 22 5.92002C22 5.75002 22 5.59002 22 5.42002H22.04Z" stroke="#980000" stroke-width="0.22" stroke-miterlimit="22.93"/><path fill-rule="evenodd" clip-rule="evenodd" d="M10.65 17V14.35H11.51C11.7193 14.3261 11.9307 14.3261 12.14 14.35C12.295 14.3914 12.4321 14.4828 12.53 14.61C12.636 14.762 12.6887 14.9449 12.68 15.13C12.6843 15.272 12.6534 15.4129 12.59 15.54C12.5388 15.6432 12.4633 15.7324 12.37 15.8C12.2846 15.8565 12.1898 15.8972 12.09 15.92C11.9072 15.9393 11.7228 15.9393 11.54 15.92H11.19V16.92L10.65 17ZM11.19 14.8V15.55H11.48C11.6191 15.5727 11.7609 15.5727 11.9 15.55C11.9682 15.5243 12.0274 15.4791 12.07 15.42C12.1093 15.3607 12.1302 15.2911 12.13 15.22C12.1246 15.1764 12.1103 15.1343 12.0879 15.0965C12.0655 15.0586 12.0356 15.0258 12 15C11.9762 14.9656 11.945 14.9369 11.9086 14.9162C11.8723 14.8954 11.8317 14.883 11.79 14.88H11.41L11.19 14.8Z" fill="#980000"/><path fill-rule="evenodd" clip-rule="evenodd" d="M13 15.7C12.9936 15.4676 13.0344 15.2362 13.12 15.02C13.1786 14.8846 13.2636 14.7622 13.37 14.66C13.4653 14.557 13.5811 14.4753 13.71 14.42C13.8909 14.3461 14.0846 14.3087 14.28 14.31C14.454 14.301 14.628 14.3293 14.7901 14.3931C14.9523 14.4569 15.0988 14.5548 15.22 14.68C15.4422 14.966 15.5628 15.3178 15.5628 15.68C15.5628 16.0421 15.4422 16.394 15.22 16.68C15.0987 16.8016 14.9533 16.8965 14.7931 16.9585C14.633 17.0205 14.4616 17.0483 14.29 17.04C14.1169 17.0484 13.944 17.0208 13.7822 16.9588C13.6204 16.8968 13.4732 16.8019 13.35 16.68C13.2287 16.5446 13.1353 16.3865 13.0752 16.2149C13.0152 16.0433 12.9896 15.8615 13 15.68V15.7ZM13.55 15.7C13.5343 15.9448 13.609 16.1868 13.76 16.38C13.8282 16.452 13.9104 16.5094 14.0015 16.5486C14.0927 16.5878 14.1908 16.608 14.29 16.608C14.3892 16.608 14.4874 16.5878 14.5785 16.5486C14.6696 16.5094 14.7518 16.452 14.82 16.38C14.9698 16.1827 15.0411 15.9368 15.02 15.69C15.0386 15.4465 14.9675 15.2046 14.82 15.01C14.7544 14.9346 14.6728 14.8747 14.5811 14.8349C14.4894 14.7951 14.3899 14.7764 14.29 14.78C14.1888 14.7776 14.0883 14.7969 13.9951 14.8366C13.902 14.8762 13.8184 14.9354 13.75 15.01C13.6061 15.206 13.5386 15.4478 13.56 15.69L13.55 15.7Z" fill="#980000"/><path fill-rule="evenodd" clip-rule="evenodd" d="M16.02 17.01V14.38H16.55V16.56H17.88V17.01H16.02Z" fill="#980000"/><path fill-rule="evenodd" clip-rule="evenodd" d="M18.24 17V14.35H18.78V17H18.24ZM18.16 14.11L18.41 13.57H19L18.5 14.11H18.16Z" fill="#980000"/><path fill-rule="evenodd" clip-rule="evenodd" d="M21 16L21.52 16.16C21.4631 16.4153 21.3222 16.6441 21.12 16.81C20.916 16.9635 20.665 17.0413 20.41 17.03C20.2492 17.0353 20.0892 17.0058 19.9408 16.9437C19.7924 16.8816 19.6591 16.7883 19.55 16.67C19.4282 16.5349 19.3345 16.3769 19.2744 16.2052C19.2143 16.0335 19.189 15.8516 19.2 15.67C19.1854 15.3043 19.3105 14.9468 19.55 14.67C19.6647 14.5474 19.8044 14.4508 19.9597 14.387C20.115 14.3231 20.2822 14.2935 20.45 14.3C20.7409 14.2913 21.0238 14.3952 21.24 14.59C21.3748 14.7243 21.4685 14.8943 21.51 15.08L20.98 15.21C20.9561 15.0803 20.8864 14.9635 20.7836 14.8809C20.6808 14.7983 20.5518 14.7554 20.42 14.76C20.3293 14.7564 20.239 14.7735 20.1559 14.8098C20.0727 14.8462 19.9989 14.901 19.94 14.97C19.8021 15.1723 19.7385 15.4161 19.76 15.66C19.7371 15.9103 19.8007 16.1608 19.94 16.37C19.9894 16.4312 20.0505 16.4818 20.1197 16.5191C20.1889 16.5563 20.2649 16.5793 20.3432 16.5868C20.4214 16.5942 20.5004 16.586 20.5754 16.5625C20.6504 16.539 20.72 16.5008 20.78 16.45C20.8979 16.3262 20.9748 16.1691 21 16V16Z" fill="#980000"/><path d="M22.49 14.36H21.95V17.01H22.49V14.36Z" fill="#980000"/><path fill-rule="evenodd" clip-rule="evenodd" d="M25.38 17H24.8L24.58 16.4H23.51L23.29 17H22.72L23.72 14.35H24.29L25.35 17H25.38ZM24.38 15.95L24.01 14.95L23.65 15.95H24.38Z" fill="#980000"/><path fill-rule="evenodd" clip-rule="evenodd" d="M10.38 20.54V17.89H11.19L11.66 19.7L12.13 17.89H12.94V20.54H12.44V18.46L11.92 20.54H11.4L10.88 18.46V20.54H10.38Z" fill="#980000"/><path d="M14 17.89H13.46V20.54H14V17.89Z" fill="#980000"/><path fill-rule="evenodd" clip-rule="evenodd" d="M14.52 20.54V17.91H15.06V20.1H16.39V20.54H14.52Z" fill="#980000"/><path d="M17.29 17.89H16.75V20.54H17.29V17.89Z" fill="#980000"/><path fill-rule="evenodd" clip-rule="evenodd" d="M18.39 20.54V18.34H17.61V17.89H19.71V18.34H18.93V20.54H18.39Z" fill="#980000"/><path fill-rule="evenodd" clip-rule="evenodd" d="M22.17 20.54H21.59L21.36 19.94H20.3L20.08 20.54H19.51L20.51 17.89H21.08L22.14 20.54H22.17ZM21.17 19.49L20.8 18.49L20.44 19.49H21.17Z" fill="#980000"/><path fill-rule="evenodd" clip-rule="evenodd" d="M22.46 20.54V17.89H23.58C23.789 17.8835 23.9978 17.907 24.2 17.96C24.3303 18.0081 24.4399 18.1 24.51 18.22C24.59 18.3416 24.6318 18.4844 24.63 18.63C24.637 18.8137 24.5725 18.9929 24.45 19.13C24.3122 19.2714 24.127 19.3569 23.93 19.37C24.033 19.4301 24.1272 19.5042 24.21 19.59C24.3251 19.728 24.4288 19.8752 24.52 20.03L24.84 20.54H24.2L23.82 19.96C23.7317 19.824 23.6348 19.6937 23.53 19.57C23.4884 19.5209 23.4324 19.4859 23.37 19.47C23.2806 19.4551 23.1894 19.4551 23.1 19.47H23V20.57L22.46 20.54ZM23 19H23.4C23.5595 19.0178 23.7205 19.0178 23.88 19C23.9395 18.9785 23.9916 18.9403 24.03 18.89C24.0718 18.8319 24.0929 18.7615 24.09 18.69C24.0911 18.6093 24.0627 18.5311 24.01 18.47C23.9587 18.4121 23.8871 18.3763 23.81 18.37H23V19Z" fill="#980000"/><path d="M25.63 20.04H25.12V20.55H25.63V20.04Z" fill="#980000"/></svg>