<svg viewBox="0 0 36 26" fill="none" xmlns="http://www.w3.org/2000/svg"><path d="M33.64 1.08H2.28999C1.32901 1.08 0.549988 1.85903 0.549988 2.82001V23.06C0.549988 24.021 1.32901 24.8 2.28999 24.8H33.64C34.601 24.8 35.38 24.021 35.38 23.06V12.94V2.82001C35.38 1.85903 34.601 1.08 33.64 1.08Z" fill="#E5E6E7" stroke="#A8AAAD" stroke-width="0.96" stroke-miterlimit="22.93"/><path d="M1.84 9.45H34.09" stroke="#A8AAAD" stroke-width="0.57" stroke-linecap="round" stroke-linejoin="round"/><path fill-rule="evenodd" clip-rule="evenodd" d="M5 5.44L5.14 5.28C5.19919 5.21555 5.24475 5.13982 5.27396 5.05734C5.30317 4.97486 5.31543 4.88733 5.31 4.8C5.2976 4.6272 5.21876 4.46592 5.09 4.35001L4.85 4.13C4.78703 4.07143 4.7129 4.02614 4.63204 3.99686C4.55118 3.96757 4.46525 3.9549 4.37938 3.95956C4.29351 3.96423 4.20945 3.98616 4.13224 4.02403C4.05504 4.06191 3.98625 4.11494 3.93 4.17999L3.78 4.34L3.73 4.39999C3.64163 4.49913 3.579 4.61849 3.54761 4.74753C3.51622 4.87657 3.51704 5.01135 3.55 5.14C3.6933 5.92999 4.09171 6.65118 4.68415 7.19305C5.2766 7.73493 6.03039 8.06757 6.83 8.14C7.0249 8.16515 7.22253 8.12281 7.39 8.02C7.45212 7.98877 7.50671 7.94441 7.55 7.89L7.69 7.74001C7.81274 7.61637 7.88163 7.44921 7.88163 7.27499C7.88163 7.10078 7.81274 6.93363 7.69 6.81L7.45 6.59C7.32879 6.48187 7.17243 6.42146 7.01 6.42C6.91726 6.41898 6.82541 6.43812 6.74081 6.4761C6.6562 6.51409 6.58086 6.57002 6.52 6.64L6.38 6.8C6.31277 6.86209 6.26427 6.94176 6.24 7.03V7.03C5.60319 6.78113 5.08244 6.30318 4.78 5.69V5.69C4.89457 5.65855 4.99833 5.59628 5.08 5.50999L5 5.44ZM5.78 4.28999C5.78 4.25021 5.7958 4.21206 5.82394 4.18393C5.85207 4.1558 5.89022 4.14 5.93 4.14C6.33578 4.14 6.72494 4.30119 7.01187 4.58812C7.2988 4.87505 7.46 5.26422 7.46 5.67C7.45745 5.71068 7.43948 5.74886 7.40974 5.77673C7.38001 5.80461 7.34076 5.82009 7.3 5.82001C7.26022 5.82001 7.22206 5.80419 7.19393 5.77606C7.1658 5.74793 7.15 5.70978 7.15 5.67C7.15001 5.34551 7.0218 5.03416 6.79328 4.80377C6.56477 4.57339 6.25448 4.44264 5.93 4.44C5.90992 4.4415 5.88975 4.43864 5.87088 4.43163C5.852 4.42462 5.83486 4.41362 5.82062 4.39938C5.80638 4.38515 5.79538 4.368 5.78837 4.34912C5.78136 4.33024 5.77851 4.31007 5.78 4.28999V4.28999ZM5.78 3.53999C5.78 3.50021 5.7958 3.46206 5.82394 3.43393C5.85207 3.4058 5.89022 3.39 5.93 3.39C6.52674 3.39 7.09903 3.62705 7.52099 4.04901C7.94295 4.47097 8.18 5.04326 8.18 5.64C8.1815 5.66008 8.17864 5.68025 8.17163 5.69913C8.16462 5.718 8.15362 5.73514 8.13938 5.74937C8.12514 5.76361 8.108 5.77462 8.08912 5.78163C8.07025 5.78864 8.05008 5.79149 8.03 5.78999C7.99022 5.78999 7.95206 5.77419 7.92393 5.74606C7.8958 5.71793 7.88 5.67978 7.88 5.64C7.86695 5.11828 7.65049 4.62232 7.27683 4.258C6.90316 3.89367 6.40188 3.68984 5.88 3.69C5.84378 3.68513 5.81058 3.66719 5.78664 3.63957C5.7627 3.61195 5.74967 3.57654 5.75 3.53999H5.78Z" fill="#A8AAAD"/><path fill-rule="evenodd" clip-rule="evenodd" d="M12.82 17.57H13.34C13.359 17.7144 13.4259 17.8482 13.53 17.95C13.6388 18.0412 13.7782 18.0877 13.92 18.08C14.0587 18.088 14.196 18.0493 14.31 17.97C14.3486 17.9381 14.38 17.8985 14.4024 17.8537C14.4248 17.8089 14.4376 17.76 14.44 17.71C14.4394 17.6513 14.4182 17.5946 14.38 17.55C14.3279 17.4967 14.2622 17.4587 14.19 17.44L13.77 17.32C13.5501 17.279 13.3419 17.1902 13.16 17.06C13.0836 16.9925 13.0226 16.9093 12.9812 16.8162C12.9397 16.723 12.9189 16.622 12.92 16.52C12.9225 16.3858 12.9604 16.2547 13.03 16.14C13.1165 16.0246 13.2298 15.9319 13.36 15.87C13.5292 15.806 13.7092 15.7755 13.89 15.78C14.1556 15.7577 14.4198 15.8362 14.63 16C14.7137 16.074 14.781 16.1648 14.8275 16.2664C14.874 16.368 14.8987 16.4782 14.9 16.59H14.36C14.3562 16.534 14.3409 16.4793 14.3151 16.4294C14.2893 16.3795 14.2535 16.3355 14.21 16.3C14.114 16.2321 13.9972 16.2003 13.88 16.21C13.7535 16.2012 13.6275 16.2327 13.52 16.3C13.4919 16.3185 13.469 16.3438 13.4532 16.3735C13.4375 16.4032 13.4295 16.4364 13.43 16.47C13.432 16.5007 13.4401 16.5306 13.4538 16.5581C13.4676 16.5856 13.4867 16.61 13.51 16.63C13.6617 16.7178 13.8275 16.7787 14 16.81C14.2005 16.8488 14.3954 16.9126 14.58 17C14.701 17.0597 14.8018 17.1536 14.87 17.27C14.9462 17.3965 14.9844 17.5423 14.98 17.69C14.9755 17.8423 14.9307 17.9907 14.85 18.12C14.7641 18.2526 14.6379 18.3543 14.49 18.41C14.3059 18.4841 14.1082 18.5181 13.91 18.51C13.6343 18.5258 13.3619 18.4444 13.14 18.28C13.0419 18.1891 12.963 18.0794 12.9081 17.9574C12.8531 17.8355 12.8231 17.7037 12.82 17.57Z" fill="#980000"/><path fill-rule="evenodd" clip-rule="evenodd" d="M17.82 18.43H17.24L17.01 17.83H16L15.78 18.43H15.21L16.21 15.78H16.78L17.84 18.43H17.82ZM16.82 17.38L16.45 16.38L16.09 17.38H16.82Z" fill="#980000"/><path fill-rule="evenodd" clip-rule="evenodd" d="M18.1 18.43V15.78H18.9L19.38 17.59L19.85 15.78H20.65V18.43H20.16V16.34L19.63 18.43H19.12L18.6 16.34L18.59 18.43H18.1Z" fill="#980000"/><path fill-rule="evenodd" clip-rule="evenodd" d="M21.19 15.78H21.73V17.22C21.7157 17.3663 21.7157 17.5137 21.73 17.66C21.7372 17.712 21.7552 17.762 21.7827 17.8068C21.8103 17.8515 21.8468 17.8901 21.89 17.92C21.9908 17.9944 22.1151 18.0299 22.24 18.02C22.3601 18.028 22.4796 17.9964 22.58 17.93C22.6518 17.8718 22.7013 17.7905 22.72 17.7C22.728 17.5501 22.728 17.3999 22.72 17.25V15.78H23.26V17.17C23.2828 17.3961 23.2828 17.6239 23.26 17.85C23.2356 17.9718 23.1805 18.0854 23.1 18.18C23.0153 18.2766 22.9091 18.352 22.79 18.4C22.6263 18.4574 22.4534 18.4845 22.28 18.48C22.0858 18.4896 21.8918 18.459 21.71 18.39C21.5896 18.3394 21.4833 18.2605 21.4 18.16C21.3326 18.0734 21.2817 17.9751 21.25 17.87C21.2124 17.6454 21.1957 17.4177 21.2 17.19L21.19 15.78Z" fill="#980000"/><path fill-rule="evenodd" clip-rule="evenodd" d="M14.8 7.78999H13.85V4.2C13.503 4.53146 13.0861 4.78091 12.63 4.92999V4.06C12.9254 3.95648 13.1998 3.80067 13.44 3.60001C13.7096 3.39989 13.9147 3.12527 14.03 2.81H14.8V7.78999Z" fill="#980000"/><path fill-rule="evenodd" clip-rule="evenodd" d="M16.25 6.64L17.17 6.53999C17.1778 6.69409 17.2418 6.83998 17.35 6.95C17.3989 6.99727 17.4569 7.03408 17.5206 7.05815C17.5842 7.08222 17.652 7.09305 17.72 7.09C17.8176 7.08905 17.9135 7.06389 17.999 7.01677C18.0845 6.96965 18.157 6.90204 18.21 6.82001C18.3905 6.47127 18.4799 6.08256 18.47 5.69C18.3634 5.82315 18.2278 5.9302 18.0736 6.00299C17.9194 6.07578 17.7505 6.11238 17.58 6.11C17.391 6.10975 17.2042 6.06953 17.0319 5.99197C16.8595 5.91442 16.7055 5.80129 16.58 5.66C16.2992 5.3251 16.1453 4.90202 16.1453 4.465C16.1453 4.02797 16.2992 3.6049 16.58 3.27C16.7248 3.11742 16.9005 2.99746 17.0954 2.91814C17.2902 2.83881 17.4998 2.80195 17.71 2.81C17.9473 2.80528 18.1825 2.85513 18.3975 2.95569C18.6125 3.05625 18.8015 3.20484 18.95 3.39C19.3226 3.95728 19.4918 4.63413 19.43 5.31C19.498 6.01431 19.3214 6.72056 18.93 7.31C18.7748 7.50731 18.5754 7.66535 18.3478 7.77132C18.1202 7.87728 17.8709 7.92822 17.62 7.92C17.2809 7.93308 16.9492 7.81895 16.69 7.60001C16.4309 7.35874 16.2675 7.03205 16.23 6.67999L16.25 6.64ZM18.39 4.56C18.405 4.30608 18.3307 4.05492 18.18 3.85001C18.1236 3.77287 18.0499 3.71005 17.9648 3.66663C17.8797 3.6232 17.7855 3.60039 17.69 3.60001C17.6069 3.59883 17.5246 3.61722 17.4499 3.6537C17.3752 3.69018 17.3102 3.74372 17.26 3.81C17.122 4.00469 17.0581 4.24234 17.08 4.47999C17.0632 4.73115 17.13 4.9808 17.27 5.19C17.3278 5.25845 17.3997 5.31355 17.4809 5.35153C17.562 5.38951 17.6504 5.40947 17.74 5.41C17.8285 5.41156 17.9161 5.39249 17.996 5.35431C18.0758 5.31612 18.1457 5.25987 18.2 5.19C18.3406 5.01151 18.4084 4.78645 18.39 4.56V4.56Z" fill="#980000"/><path fill-rule="evenodd" clip-rule="evenodd" d="M23.27 6.91001V7.79H19.94C19.9802 7.45323 20.0927 7.12915 20.27 6.84C20.5698 6.39869 20.9262 5.99861 21.33 5.65C21.6141 5.40108 21.8783 5.13025 22.12 4.84C22.2422 4.67119 22.3087 4.46841 22.31 4.26C22.3095 4.13168 22.2715 4.0063 22.2008 3.89921C22.1301 3.79211 22.0298 3.70795 21.912 3.65702C21.7942 3.60609 21.6641 3.59059 21.5377 3.61243C21.4112 3.63428 21.2939 3.69251 21.2 3.78C21.0722 3.95036 21.0021 4.15706 21 4.37L20 4.28C20.0087 4.06586 20.06 3.85559 20.151 3.66155C20.2421 3.46751 20.3709 3.29359 20.53 3.15C20.8564 2.91778 21.2496 2.79841 21.65 2.81C21.8586 2.7973 22.0677 2.82612 22.2651 2.89478C22.4625 2.96344 22.6443 3.07059 22.8 3.21001C22.9384 3.33621 23.0477 3.49103 23.1202 3.66372C23.1927 3.83641 23.2268 4.02283 23.22 4.21001C23.2219 4.42911 23.1811 4.64647 23.1 4.85001C23.0027 5.07637 22.8748 5.28832 22.72 5.48C22.5252 5.70455 22.3183 5.9182 22.1 6.12C21.8974 6.28619 21.7069 6.46666 21.53 6.66001C21.4507 6.73992 21.3833 6.83084 21.33 6.93L23.27 6.91001Z" fill="#980000"/></svg>