<svg viewBox="0 0 36 26" fill="none" xmlns="http://www.w3.org/2000/svg"><path d="M33.66 1.08H2.31001C1.34903 1.08 0.570007 1.85903 0.570007 2.82001V23.06C0.570007 24.021 1.34903 24.8 2.31001 24.8H33.66C34.621 24.8 35.4 24.021 35.4 23.06V2.82001C35.4 1.85903 34.621 1.08 33.66 1.08Z" fill="#E5E6E7" stroke="#A8AAAD" stroke-width="0.96" stroke-miterlimit="22.93"/><path d="M1.85999 9.45H34.11" stroke="#A8AAAD" stroke-width="0.48" stroke-miterlimit="22.93" stroke-linecap="round"/><path fill-rule="evenodd" clip-rule="evenodd" d="M4.89998 5.44L5.04999 5.28C5.16154 5.1496 5.21881 4.98137 5.20998 4.81C5.20926 4.72287 5.1902 4.63688 5.15401 4.55762C5.11783 4.47836 5.06534 4.40762 4.99998 4.35001L4.75998 4.14C4.63511 4.01962 4.46842 3.95236 4.29498 3.95236C4.12154 3.95236 3.95485 4.01962 3.82998 4.14L3.68998 4.3C3.6854 4.32311 3.6854 4.34689 3.68998 4.37C3.60005 4.46818 3.5364 4.5875 3.50493 4.71687C3.47346 4.84625 3.4752 4.98148 3.50998 5.11C3.65124 5.89917 4.0477 6.62013 4.63846 7.16211C5.22922 7.70409 5.98159 8.03711 6.77998 8.11C6.97356 8.13293 7.16945 8.09445 7.33998 8C7.40249 7.9649 7.45973 7.92113 7.50998 7.87L7.64998 7.71001C7.77273 7.58637 7.8416 7.41921 7.8416 7.245C7.8416 7.07078 7.77273 6.90363 7.64998 6.78L7.40999 6.56C7.27986 6.44366 7.10895 6.38362 6.93466 6.39299C6.76037 6.40236 6.59689 6.48039 6.47999 6.61L6.33998 6.77C6.27845 6.83657 6.23085 6.91477 6.19998 7V7C5.56673 6.74546 5.04777 6.26915 4.73998 5.66V5.66C4.85105 5.62199 4.95078 5.55665 5.02998 5.47L4.89998 5.44ZM5.67998 4.28999C5.67998 4.25021 5.69578 4.21206 5.72391 4.18393C5.75204 4.1558 5.7902 4.14 5.82998 4.14C6.23577 4.14 6.62492 4.30119 6.91186 4.58812C7.19879 4.87505 7.35998 5.26422 7.35998 5.67C7.35998 5.70978 7.34418 5.74793 7.31605 5.77606C7.28791 5.80419 7.24976 5.82001 7.20998 5.82001C7.16922 5.82009 7.12997 5.80461 7.10024 5.77673C7.07051 5.74886 7.05253 5.71068 7.04999 5.67C7.05132 5.50941 7.02067 5.35017 6.95983 5.20155C6.89899 5.05293 6.80918 4.91791 6.69562 4.80435C6.58207 4.6908 6.44705 4.60099 6.29843 4.54015C6.14981 4.47931 5.99057 4.44866 5.82998 4.45C5.78931 4.44745 5.75113 4.42948 5.72326 4.39975C5.69538 4.37002 5.6799 4.33075 5.67998 4.28999ZM5.67998 3.53999C5.68253 3.49932 5.7005 3.46115 5.73024 3.43327C5.75997 3.4054 5.79922 3.38992 5.83998 3.39C6.13545 3.39 6.42803 3.44819 6.70102 3.56126C6.974 3.67434 7.22204 3.84008 7.43097 4.04901C7.63991 4.25794 7.80564 4.50598 7.91871 4.77896C8.03179 5.05194 8.08998 5.34453 8.08998 5.64C8.09006 5.68076 8.07459 5.72001 8.04671 5.74974C8.01884 5.77948 7.98066 5.79746 7.93998 5.8C7.89755 5.8 7.85685 5.78315 7.82685 5.75314C7.79684 5.72314 7.77998 5.68243 7.77998 5.64C7.77998 5.12548 7.57559 4.63204 7.21177 4.26822C6.84795 3.9044 6.3545 3.7 5.83998 3.7C5.8011 3.6951 5.76537 3.67611 5.73957 3.64662C5.71376 3.61713 5.69967 3.57918 5.69998 3.53999H5.67998Z" fill="#A8AAAD"/><path fill-rule="evenodd" clip-rule="evenodd" d="M15.78 7.3C15.78 7.36 15.78 7.41001 15.78 7.46001C15.7827 7.49329 15.7827 7.52672 15.78 7.56C15.784 7.57979 15.784 7.6002 15.78 7.62H13.18C13.1731 7.60058 13.1731 7.57941 13.18 7.56C13.1686 7.52765 13.1686 7.49236 13.18 7.46001C13.1747 7.4068 13.1747 7.35321 13.18 7.3C13.1744 7.24348 13.1744 7.18653 13.18 7.13C13.1733 7.09701 13.1733 7.06299 13.18 7.03C13.18 7.03 13.18 6.98 13.23 6.97H14V4.13L13.3 4.52H13.18C13.1683 4.52818 13.1543 4.53255 13.14 4.53255C13.1257 4.53255 13.1117 4.52818 13.1 4.52C13.0911 4.48727 13.0911 4.45273 13.1 4.42C13.0933 4.3535 13.0933 4.2865 13.1 4.22V4.09C13.1 4.09 13.1 4.03 13.1 4V3.94C13.1 3.94 13.1 3.94 13.16 3.89L14.1 3.28H14.65H14.77C14.77 3.28 14.77 3.28 14.77 3.33V7H15.48H15.54C15.5469 7.01941 15.5469 7.04059 15.54 7.06C15.54 7.06 15.54 7.12 15.54 7.16C15.6271 7.19335 15.7081 7.24064 15.78 7.3V7.3Z" fill="#980000"/><path fill-rule="evenodd" clip-rule="evenodd" d="M19.33 5.25001C19.3397 5.43321 19.3397 5.6168 19.33 5.80001C19.3121 5.98911 19.2787 6.17641 19.23 6.36001C19.1809 6.54107 19.1104 6.71564 19.02 6.88001C18.9291 7.0425 18.8106 7.18799 18.67 7.31C18.5196 7.43766 18.3466 7.53603 18.16 7.60001C17.9311 7.67606 17.6911 7.71324 17.45 7.71001H17.16L16.9 7.66001C16.8304 7.646 16.7631 7.62244 16.7 7.59C16.6563 7.57843 16.6155 7.55801 16.58 7.53C16.5487 7.50071 16.5277 7.46215 16.52 7.42C16.5122 7.35691 16.5122 7.2931 16.52 7.23C16.52 7.16 16.52 7.1 16.52 7.06C16.5134 7.02363 16.5134 6.98638 16.52 6.95C16.5158 6.9336 16.5158 6.9164 16.52 6.9H16.64L16.82 6.96001L17.06 7.01C17.1597 7.02082 17.2603 7.02082 17.36 7.01C17.5267 7.01392 17.6917 6.9761 17.84 6.9C17.9698 6.84174 18.0807 6.7482 18.16 6.63001C18.2419 6.50765 18.3027 6.37244 18.34 6.23C18.3808 6.07329 18.401 5.91193 18.4 5.75001C18.2867 5.82636 18.1617 5.88377 18.03 5.92C17.8654 5.9741 17.6932 6.00112 17.52 6.00001C17.3196 6.00503 17.1198 5.97457 16.93 5.91001C16.7802 5.85259 16.6465 5.75998 16.54 5.64C16.4304 5.52615 16.3543 5.38429 16.32 5.23C16.2703 5.04758 16.2467 4.85904 16.25 4.67C16.2475 4.46646 16.2779 4.26386 16.34 4.07001C16.4087 3.89472 16.5068 3.7324 16.63 3.59C16.7682 3.45627 16.9313 3.35095 17.11 3.28C17.3254 3.20542 17.552 3.16822 17.78 3.17C17.9592 3.16524 18.1381 3.18887 18.31 3.24001C18.4495 3.28624 18.581 3.3537 18.7 3.44001C18.8083 3.52973 18.8998 3.63809 18.97 3.76C19.0458 3.89266 19.1062 4.03358 19.15 4.18C19.1928 4.34029 19.2196 4.50443 19.23 4.67C19.2402 4.85653 19.2402 5.04347 19.23 5.23L19.33 5.25001ZM18.45 5.13001C18.4677 4.9304 18.4677 4.72961 18.45 4.53C18.4294 4.39481 18.389 4.26339 18.33 4.14C18.2851 4.05213 18.2156 3.97917 18.13 3.93C18.0392 3.88795 17.94 3.86742 17.84 3.87C17.7464 3.86753 17.6537 3.88813 17.57 3.93C17.494 3.96613 17.4285 4.02123 17.38 4.09C17.3262 4.15865 17.2855 4.23663 17.26 4.32001C17.2496 4.42309 17.2496 4.52694 17.26 4.63001C17.2491 4.73306 17.2491 4.83696 17.26 4.94001C17.2748 5.02041 17.3092 5.09596 17.36 5.16001C17.4081 5.22018 17.4698 5.26815 17.54 5.30001C17.7482 5.36595 17.9718 5.36595 18.18 5.30001C18.2767 5.25482 18.3674 5.19772 18.45 5.13001Z" fill="#980000"/><path fill-rule="evenodd" clip-rule="evenodd" d="M22.8 6.36C22.8028 6.55977 22.7618 6.75773 22.68 6.94C22.5947 7.1034 22.4753 7.24661 22.33 7.36C22.1693 7.47605 21.9901 7.56396 21.8 7.61999C21.5787 7.68199 21.3498 7.71231 21.12 7.71C20.9802 7.72063 20.8398 7.72063 20.7 7.71C20.5849 7.69149 20.4713 7.66475 20.36 7.63L20.11 7.52999L19.98 7.44999C19.9771 7.4301 19.9771 7.40989 19.98 7.38999V7.30999C19.9744 7.27354 19.9744 7.23644 19.98 7.19999V7C19.9719 6.92689 19.9719 6.8531 19.98 6.77999C19.9872 6.76122 19.9994 6.74476 20.0152 6.73242C20.0311 6.72008 20.05 6.71233 20.07 6.71H20.18L20.39 6.80999L20.69 6.89999C20.7897 6.94378 20.8935 6.97729 21 7C21.112 7.00193 21.2236 6.98503 21.33 6.94999C21.4188 6.93082 21.5014 6.88955 21.57 6.83C21.6384 6.78368 21.6908 6.7173 21.72 6.63999C21.7359 6.55742 21.7359 6.47257 21.72 6.38999C21.7213 6.29655 21.7008 6.20409 21.66 6.11999C21.618 6.03932 21.5601 5.96792 21.49 5.91C21.3978 5.8505 21.2965 5.80658 21.19 5.77999C21.0526 5.74621 20.9115 5.72942 20.77 5.72999H20.32C20.3165 5.71351 20.3165 5.69647 20.32 5.67999C20.3173 5.64671 20.3173 5.61328 20.32 5.58C20.32 5.58 20.32 5.48 20.32 5.41C20.32 5.34 20.32 5.29 20.32 5.25V5.14999H20.39H20.77C20.8827 5.1664 20.9973 5.1664 21.11 5.14999C21.2031 5.12103 21.291 5.07714 21.37 5.02C21.4342 4.9613 21.4853 4.88974 21.52 4.80999C21.5599 4.72917 21.5805 4.64015 21.58 4.55C21.5914 4.48046 21.5914 4.40953 21.58 4.33999C21.5555 4.27334 21.5181 4.21218 21.47 4.16C21.4156 4.10971 21.3507 4.07214 21.28 4.05C21.1909 4.03248 21.0992 4.03248 21.01 4.05C20.9008 4.03172 20.7892 4.03172 20.68 4.05C20.587 4.07882 20.4967 4.11562 20.41 4.16C20.3373 4.19502 20.2671 4.23512 20.2 4.27999C20.1575 4.29195 20.1125 4.29195 20.07 4.27999C20.07 4.27999 20.07 4.21999 20.07 4.17999C20.07 4.13999 20.07 4.07999 20.07 4.00999C20.0646 3.96348 20.0646 3.9165 20.07 3.86999C20.0638 3.84031 20.0638 3.80967 20.07 3.77999V3.71V3.64999L20.21 3.55999L20.48 3.42999C20.5971 3.38686 20.7175 3.35343 20.84 3.33C20.9896 3.31426 21.1404 3.31426 21.29 3.33C21.4796 3.32842 21.6684 3.35539 21.85 3.41C21.9988 3.45333 22.1379 3.52459 22.26 3.61999C22.3702 3.71323 22.4589 3.82923 22.52 3.96C22.5741 4.11074 22.6012 4.26983 22.6 4.42999C22.6153 4.55285 22.6153 4.67714 22.6 4.8C22.5704 4.90897 22.5194 5.01096 22.45 5.1C22.3909 5.19589 22.3083 5.27506 22.21 5.33C22.107 5.4008 21.9917 5.45167 21.87 5.47999V5.47999C22.0126 5.48917 22.152 5.52656 22.28 5.58999C22.3973 5.6458 22.5026 5.72393 22.59 5.82C22.675 5.90451 22.7399 6.00702 22.78 6.11999C22.7974 6.19873 22.8041 6.27946 22.8 6.36Z" fill="#980000"/><path fill-rule="evenodd" clip-rule="evenodd" d="M15.78 7.3C15.78 7.36 15.78 7.41001 15.78 7.46001C15.7827 7.49329 15.7827 7.52672 15.78 7.56C15.784 7.57979 15.784 7.6002 15.78 7.62H13.18C13.1731 7.60058 13.1731 7.57941 13.18 7.56C13.1686 7.52765 13.1686 7.49236 13.18 7.46001C13.1747 7.4068 13.1747 7.35321 13.18 7.3C13.1744 7.24348 13.1744 7.18653 13.18 7.13C13.1733 7.09701 13.1733 7.06299 13.18 7.03C13.18 7.03 13.18 6.98 13.23 6.97H14V4.13L13.3 4.52H13.18C13.1683 4.52818 13.1543 4.53255 13.14 4.53255C13.1257 4.53255 13.1117 4.52818 13.1 4.52C13.0911 4.48727 13.0911 4.45273 13.1 4.42C13.0933 4.3535 13.0933 4.2865 13.1 4.22V4.09C13.1 4.09 13.1 4.03 13.1 4V3.94C13.1 3.94 13.1 3.94 13.16 3.89L14.1 3.28H14.65H14.77C14.77 3.28 14.77 3.28 14.77 3.33V7H15.48H15.54C15.5469 7.01941 15.5469 7.04059 15.54 7.06C15.54 7.06 15.54 7.12 15.54 7.16C15.6271 7.19335 15.7081 7.24064 15.78 7.3V7.3Z" stroke="#980000" stroke-width="0.22" stroke-miterlimit="22.93"/><path fill-rule="evenodd" clip-rule="evenodd" d="M6.69 15.73H7.75C7.90636 15.7162 8.06364 15.7162 8.22 15.73C8.32029 15.7456 8.41589 15.7832 8.5 15.84C8.58165 15.8982 8.64985 15.9732 8.7 16.06C8.75209 16.155 8.7796 16.2616 8.78 16.37C8.7823 16.4909 8.74739 16.6096 8.68 16.71C8.61477 16.8117 8.5208 16.8918 8.41 16.94C8.55864 16.9778 8.68946 17.0662 8.78 17.19C8.87018 17.3033 8.91635 17.4453 8.91 17.59C8.90739 17.7109 8.88017 17.83 8.83 17.94C8.77602 18.0471 8.69715 18.1397 8.6 18.21C8.49193 18.2811 8.36857 18.3257 8.24 18.34H7.59H6.69V15.68V15.73ZM7.23 16.18V16.79H8C8.0399 16.7881 8.07903 16.7784 8.11509 16.7612C8.15115 16.744 8.18341 16.7198 8.21 16.69C8.23588 16.6636 8.25627 16.6323 8.27 16.598C8.28374 16.5637 8.29053 16.527 8.29 16.49C8.29303 16.4536 8.28836 16.417 8.2763 16.3825C8.26424 16.3481 8.24506 16.3165 8.22 16.29C8.16871 16.2321 8.09706 16.1963 8.02 16.19H7.26L7.23 16.18ZM7.23 17.18V17.89H7.72C7.84313 17.8999 7.96686 17.8999 8.09 17.89C8.16296 17.8795 8.23007 17.8442 8.28 17.79C8.33257 17.7249 8.36086 17.6436 8.36 17.56C8.36293 17.4885 8.3418 17.4181 8.3 17.36C8.25935 17.299 8.19953 17.2532 8.13 17.23C7.97376 17.2135 7.81624 17.2135 7.66 17.23L7.23 17.18Z" fill="#980000"/><path fill-rule="evenodd" clip-rule="evenodd" d="M9.24999 17.08C9.2439 16.8443 9.28469 16.6098 9.36999 16.39C9.43461 16.258 9.5189 16.1366 9.61999 16.03C9.71636 15.9283 9.83191 15.8467 9.95999 15.79C10.1448 15.7187 10.342 15.6847 10.54 15.69C10.7129 15.6828 10.8855 15.711 11.0472 15.7729C11.2088 15.8348 11.3561 15.9291 11.48 16.05C11.7022 16.336 11.8228 16.6879 11.8228 17.05C11.8228 17.4122 11.7022 17.764 11.48 18.05C11.2215 18.2812 10.8868 18.409 10.54 18.409C10.1932 18.409 9.8585 18.2812 9.59999 18.05C9.47818 17.9149 9.3845 17.7569 9.32441 17.5852C9.26432 17.4135 9.23902 17.2316 9.24999 17.05V17.08ZM9.79999 17.08C9.78424 17.3248 9.85898 17.5668 10.01 17.76C10.0756 17.8355 10.1572 17.8953 10.2489 17.9351C10.3406 17.9749 10.4401 17.9936 10.54 17.99C10.64 17.9944 10.7397 17.9759 10.8315 17.9361C10.9233 17.8962 11.0049 17.836 11.07 17.76C11.2198 17.5627 11.2911 17.3168 11.27 17.07C11.2886 16.8265 11.2174 16.5847 11.07 16.39C10.9294 16.2496 10.7387 16.1707 10.54 16.1707C10.3412 16.1707 10.1506 16.2496 10.01 16.39C9.86131 16.5806 9.78671 16.8186 9.79999 17.06V17.08Z" fill="#980000"/><path fill-rule="evenodd" clip-rule="evenodd" d="M12.24 18.39V15.74H13.04L13.52 17.54L13.99 15.74H14.79V18.39H14.3L14.29 16.3L13.77 18.39H13.26L12.73 16.3V18.39H12.24Z" fill="#980000"/><path fill-rule="evenodd" clip-rule="evenodd" d="M15.33 15.73H16.39C16.5464 15.7162 16.7037 15.7162 16.86 15.73C16.9598 15.7474 17.0551 15.7848 17.14 15.84C17.2217 15.8982 17.2899 15.9732 17.34 16.06C17.3921 16.155 17.4196 16.2616 17.42 16.37C17.4223 16.4909 17.3874 16.6096 17.32 16.71C17.2523 16.8095 17.159 16.889 17.05 16.94C17.1973 16.9807 17.3273 17.0685 17.42 17.19C17.5102 17.3033 17.5564 17.4453 17.55 17.59C17.5474 17.7109 17.5202 17.83 17.47 17.94C17.4127 18.0448 17.3344 18.1368 17.24 18.21C17.1319 18.2811 17.0086 18.3257 16.88 18.34H16.23H15.33V15.68V15.73ZM15.87 16.18V16.79H16.6C16.6416 16.7895 16.6827 16.7804 16.7205 16.7631C16.7584 16.7459 16.7923 16.721 16.82 16.69C16.8459 16.6636 16.8663 16.6323 16.88 16.598C16.8938 16.5637 16.9005 16.527 16.9 16.49C16.903 16.4536 16.8984 16.417 16.8863 16.3825C16.8743 16.3481 16.8551 16.3165 16.83 16.29C16.7787 16.2321 16.7071 16.1963 16.63 16.19H15.87V16.18ZM15.87 17.18V17.89H16.36C16.4832 17.8995 16.6069 17.8995 16.73 17.89C16.803 17.8795 16.8701 17.8442 16.92 17.79C16.9726 17.7249 17.0009 17.6436 17 17.56C17.0029 17.4885 16.9818 17.4181 16.94 17.36C16.8994 17.299 16.8395 17.2532 16.77 17.23C16.6138 17.2135 16.4563 17.2135 16.3 17.23L15.87 17.18Z" fill="#980000"/><path fill-rule="evenodd" clip-rule="evenodd" d="M18 18.39V15.74H19.97V16.18H18.54V16.77H19.87V17.22H18.54V17.94H20.02V18.39H18Z" fill="#980000"/><path d="M20.99 15.73H20.45V18.38H20.99V15.73Z" fill="#980000"/><path fill-rule="evenodd" clip-rule="evenodd" d="M21.5 18.39V15.73H22.63C22.8397 15.7213 23.0494 15.7484 23.25 15.81C23.3796 15.8541 23.4894 15.9427 23.56 16.06C23.6337 16.1876 23.6717 16.3327 23.67 16.48C23.6752 16.6586 23.6147 16.833 23.5 16.97C23.3571 17.1114 23.17 17.1997 22.97 17.22C23.0781 17.2769 23.1761 17.3512 23.26 17.44C23.374 17.5731 23.4745 17.7171 23.56 17.87L23.89 18.39H23.25L22.86 17.81C22.7757 17.6737 22.6822 17.5434 22.58 17.42C22.5342 17.3734 22.4799 17.3361 22.42 17.31C22.3305 17.2966 22.2395 17.2966 22.15 17.31H22V18.42L21.5 18.39ZM22.04 16.86H22.43C22.5924 16.8845 22.7576 16.8845 22.92 16.86C22.9795 16.8385 23.0316 16.8003 23.07 16.75C23.1043 16.689 23.1216 16.6199 23.12 16.55C23.1232 16.5121 23.1187 16.4739 23.1066 16.4378C23.0946 16.4017 23.0753 16.3684 23.05 16.34C22.997 16.2826 22.9268 16.244 22.85 16.23H22L22.04 16.86Z" fill="#980000"/><path fill-rule="evenodd" clip-rule="evenodd" d="M24.06 17.08C24.0568 16.8436 24.101 16.609 24.19 16.39C24.251 16.2584 24.332 16.1369 24.43 16.03C24.5282 15.9259 24.6475 15.844 24.78 15.79C24.9611 15.7179 25.1551 15.6839 25.35 15.69C25.5229 15.6828 25.6955 15.711 25.8572 15.7729C26.0188 15.8348 26.1661 15.9291 26.29 16.05C26.5122 16.336 26.6328 16.6879 26.6328 17.05C26.6328 17.4122 26.5122 17.764 26.29 18.05C26.1683 18.1711 26.0229 18.2656 25.8628 18.3276C25.7027 18.3896 25.5315 18.4176 25.36 18.41C25.1772 18.4258 24.9932 18.4018 24.8205 18.3397C24.6479 18.2775 24.4908 18.1787 24.36 18.05C24.2382 17.9149 24.1445 17.7569 24.0844 17.5852C24.0243 17.4135 23.999 17.2316 24.01 17.05L24.06 17.08ZM24.62 17.08C24.6042 17.3248 24.679 17.5668 24.83 17.76C24.8931 17.8358 24.9729 17.896 25.0631 17.9359C25.1533 17.9758 25.2515 17.9943 25.35 17.99C25.45 17.9944 25.5497 17.9759 25.6415 17.9361C25.7333 17.8962 25.8149 17.836 25.88 17.76C26.0334 17.5641 26.1083 17.3181 26.09 17.07C26.1086 16.8265 26.0375 16.5847 25.89 16.39C25.8215 16.3161 25.7377 16.2582 25.6444 16.2202C25.5511 16.1822 25.4506 16.165 25.35 16.17C25.2509 16.1651 25.1519 16.1823 25.0603 16.2204C24.9686 16.2584 24.8865 16.3164 24.82 16.39C24.6749 16.582 24.6039 16.8199 24.62 17.06V17.08Z" fill="#980000"/><path fill-rule="evenodd" clip-rule="evenodd" d="M26.92 17.53L27.44 17.48C27.4549 17.6256 27.5224 17.7607 27.63 17.86C27.7322 17.9501 27.8637 17.9999 28 18C28.1393 18.0153 28.2792 17.9759 28.39 17.89C28.4299 17.8616 28.4624 17.8241 28.485 17.7806C28.5076 17.7372 28.5196 17.689 28.52 17.64C28.5411 17.5888 28.5411 17.5312 28.52 17.48C28.467 17.4255 28.4019 17.3844 28.33 17.36L27.9 17.25C27.68 17.2134 27.4733 17.1203 27.3 16.98C27.2233 16.9149 27.1619 16.8336 27.1204 16.742C27.0789 16.6503 27.0583 16.5506 27.06 16.45C27.0563 16.315 27.0947 16.1822 27.17 16.07C27.2507 15.9492 27.3656 15.8552 27.5 15.8C27.6657 15.7361 27.8424 15.7055 28.02 15.71C28.2885 15.689 28.5553 15.7673 28.77 15.93C28.8539 16.0033 28.9207 16.0941 28.9657 16.1961C29.0106 16.298 29.0325 16.4086 29.03 16.52H28.5C28.4838 16.4064 28.4311 16.3011 28.35 16.22C28.2496 16.1536 28.1301 16.122 28.01 16.13C27.8822 16.1219 27.7553 16.1572 27.65 16.23C27.6251 16.2486 27.605 16.2728 27.5911 16.3005C27.5772 16.3283 27.57 16.3589 27.57 16.39C27.57 16.421 27.5772 16.4517 27.5911 16.4794C27.605 16.5072 27.6251 16.5314 27.65 16.55C27.7987 16.6441 27.9657 16.7054 28.14 16.73C28.3366 16.7715 28.5278 16.8353 28.71 16.92C28.8298 16.9852 28.9325 17.0777 29.01 17.19C29.0802 17.3186 29.1148 17.4636 29.11 17.61C29.1129 17.7634 29.0674 17.9139 28.98 18.04C28.8957 18.1726 28.7739 18.277 28.63 18.34C28.4436 18.4046 28.2472 18.4351 28.05 18.43C27.7736 18.4522 27.4989 18.3701 27.28 18.2C27.0764 18.0328 26.9471 17.792 26.92 17.53Z" fill="#980000"/></svg>