<svg viewBox="0 0 36 26" fill="none" xmlns="http://www.w3.org/2000/svg"><path d="M33.66 1.01999H2.31001C1.34903 1.01999 0.570007 1.79903 0.570007 2.76001V23C0.570007 23.961 1.34903 24.74 2.31001 24.74H33.66C34.621 24.74 35.4 23.961 35.4 23V2.76001C35.4 1.79903 34.621 1.01999 33.66 1.01999Z" fill="#E5E6E7" stroke="#A8AAAD" stroke-width="0.96" stroke-miterlimit="22.93"/><path d="M1.85999 9.39001H34.11" stroke="#A8AAAD" stroke-width="0.48" stroke-miterlimit="22.93" stroke-linecap="round"/><path fill-rule="evenodd" clip-rule="evenodd" d="M5.07 5.70999L5.21 5.54999C5.26918 5.48554 5.31475 5.40981 5.34396 5.32733C5.37317 5.24485 5.38542 5.15734 5.37999 5.07001C5.37125 4.89839 5.29591 4.73694 5.16999 4.62L4.93 4.39999C4.80879 4.29187 4.65242 4.23147 4.48999 4.23001C4.39726 4.22899 4.30541 4.24812 4.2208 4.2861C4.13619 4.32409 4.06085 4.38003 4 4.45001L3.86 4.60999L3.8 4.67001C3.7099 4.76821 3.64541 4.88712 3.61227 5.01621C3.57913 5.14529 3.57835 5.28055 3.61 5.41C3.75486 6.19929 4.15374 6.91959 4.74588 7.46118C5.33802 8.00277 6.09095 8.33596 6.89 8.41C7.08489 8.43516 7.28252 8.39281 7.44999 8.29001C7.51377 8.2614 7.56894 8.21657 7.61 8.16L7.76 8.01001C7.87633 7.87989 7.93638 7.70896 7.92701 7.53467C7.91764 7.36038 7.83961 7.19689 7.71 7.07999L7.47 6.85999C7.34928 6.75105 7.1926 6.69053 7.03 6.69C6.93726 6.68898 6.84541 6.70811 6.7608 6.74609C6.67619 6.78408 6.60085 6.84002 6.54 6.91L6.4 7.07001C6.33623 7.13486 6.28831 7.21356 6.26 7.29999V7.29999C5.61284 7.06895 5.07466 6.60563 4.75 6V6C4.86457 5.96855 4.96833 5.9063 5.05 5.82001L5.07 5.70999ZM5.84999 4.56C5.84999 4.52022 5.8658 4.48208 5.89393 4.45395C5.92206 4.42582 5.96021 4.41 6 4.41C6.40578 4.41 6.79494 4.57119 7.08187 4.85812C7.3688 5.14505 7.53 5.53422 7.53 5.94C7.53 5.97979 7.5142 6.01792 7.48607 6.04605C7.45793 6.07418 7.41978 6.09 7.37999 6.09C7.33924 6.09008 7.29999 6.0746 7.27025 6.04672C7.24052 6.01885 7.22254 5.98068 7.22 5.94C7.22001 5.61551 7.09179 5.30415 6.86328 5.07376C6.63477 4.84338 6.32448 4.71263 6 4.70999C5.96021 4.70999 5.92206 4.69421 5.89393 4.66608C5.8658 4.63795 5.84999 4.59978 5.84999 4.56V4.56ZM5.84999 3.81C5.85254 3.76932 5.87052 3.73115 5.90025 3.70328C5.92998 3.6754 5.96924 3.65992 6.01 3.66C6.60674 3.66 7.17903 3.89704 7.60099 4.319C8.02294 4.74096 8.26 5.31327 8.26 5.91C8.25745 5.95068 8.23947 5.98885 8.20974 6.01672C8.18 6.0446 8.14075 6.06008 8.09999 6.06C8.06021 6.06 8.02206 6.04418 7.99393 6.01605C7.9658 5.98792 7.94999 5.94979 7.94999 5.91C7.92734 5.40385 7.71344 4.92515 7.35148 4.57062C6.98953 4.21609 6.50651 4.01216 6 4C5.97814 3.9979 5.95701 3.99102 5.93811 3.97986C5.9192 3.9687 5.90297 3.95352 5.89058 3.93539C5.87818 3.91727 5.86991 3.89664 5.86635 3.87497C5.8628 3.8533 5.86404 3.83113 5.87 3.81H5.84999Z" fill="#A8AAAD"/><path fill-rule="evenodd" clip-rule="evenodd" d="M15.77 7.23999C15.7753 7.29319 15.7753 7.34679 15.77 7.39999C15.7814 7.43235 15.7814 7.46765 15.77 7.5C15.7769 7.51941 15.7769 7.54059 15.77 7.56H13.17C13.166 7.5402 13.166 7.5198 13.17 7.5C13.1673 7.46672 13.1673 7.43327 13.17 7.39999C13.17 7.39999 13.17 7.29999 13.17 7.23999C13.17 7.17999 13.17 7.12001 13.17 7.07001V6.97C13.166 6.95021 13.166 6.9298 13.17 6.91V6.91H14V4.07001L13.3 4.45999C13.257 4.46746 13.213 4.46746 13.17 4.45999C13.1578 4.46701 13.144 4.4707 13.13 4.4707C13.116 4.4707 13.1022 4.46701 13.09 4.45999C13.0815 4.4272 13.0815 4.39278 13.09 4.35999C13.0833 4.29349 13.0833 4.2265 13.09 4.16V4C13.0853 3.97018 13.0853 3.93982 13.09 3.91C13.09 3.91 13.09 3.91001 13.09 3.85001L13.16 3.79999L14.09 3.19H14.64H14.76V6.79999H15.48C15.4861 6.81952 15.4861 6.84046 15.48 6.85999V6.95999L15.77 7.23999Z" fill="#980000"/><path fill-rule="evenodd" clip-rule="evenodd" d="M19.32 5.19001C19.32 5.37001 19.32 5.54999 19.32 5.73999C19.2988 5.92937 19.262 6.11666 19.21 6.29999C19.1609 6.48106 19.0904 6.65564 19 6.82001C18.9159 6.98421 18.8004 7.13029 18.66 7.25C18.5096 7.37766 18.3366 7.47603 18.15 7.54001C17.9179 7.6168 17.6745 7.65397 17.43 7.65H17.14L16.88 7.60001L16.68 7.54001L16.56 7.47001C16.5355 7.43742 16.5185 7.39986 16.51 7.35999C16.5027 7.30021 16.5027 7.23977 16.51 7.18C16.5038 7.12016 16.5038 7.05984 16.51 7C16.5034 6.96363 16.5034 6.92639 16.51 6.89002V6.84H16.57H16.68L16.86 6.89002L17.1 6.94001C17.203 6.95132 17.307 6.95132 17.41 6.94001C17.5751 6.93978 17.7385 6.90574 17.89 6.84C18.0152 6.77426 18.1219 6.67795 18.2 6.56C18.2837 6.43864 18.3446 6.30312 18.38 6.16001C18.4194 6.00277 18.4429 5.84194 18.45 5.68C18.333 5.75626 18.2048 5.81364 18.07 5.85001C17.9091 5.90482 17.74 5.93186 17.57 5.93C17.3696 5.93502 17.1698 5.90456 16.98 5.84C16.8266 5.78401 16.6893 5.69132 16.58 5.57001C16.4777 5.45095 16.4027 5.31104 16.36 5.16001C16.3103 4.97759 16.2867 4.78905 16.29 4.60001C16.2856 4.39552 16.3195 4.19202 16.39 4C16.45 3.81855 16.5505 3.65314 16.6839 3.51627C16.8173 3.3794 16.9801 3.27465 17.16 3.21C17.3718 3.13458 17.5952 3.09735 17.82 3.10001C17.9993 3.09456 18.1783 3.1182 18.35 3.17002C18.4934 3.21416 18.6286 3.28172 18.75 3.37C18.8556 3.46242 18.9467 3.57032 19.02 3.69001C19.0929 3.82289 19.1499 3.96383 19.19 4.10999C19.2323 4.27421 19.2623 4.44133 19.28 4.60999C19.2903 4.79318 19.2903 4.97682 19.28 5.16001L19.32 5.19001ZM18.45 5.07001C18.4627 4.87021 18.4627 4.6698 18.45 4.47001C18.4296 4.33345 18.3856 4.20147 18.32 4.07999C18.2778 3.99268 18.2073 3.92222 18.12 3.88001C17.9405 3.80665 17.7394 3.80665 17.56 3.88001C17.4858 3.919 17.421 3.97358 17.37 4.04001C17.3158 4.10701 17.2781 4.18577 17.26 4.26999C17.2448 4.37277 17.2448 4.47722 17.26 4.57999C17.2491 4.68304 17.2491 4.78697 17.26 4.89002C17.2802 4.97048 17.3177 5.04554 17.37 5.10999C17.4138 5.17444 17.4767 5.22345 17.55 5.25C17.6391 5.26753 17.7308 5.26753 17.82 5.25C17.9458 5.25037 18.0708 5.23011 18.19 5.19001C18.2803 5.15851 18.3674 5.11832 18.45 5.07001V5.07001Z" fill="#980000"/><path fill-rule="evenodd" clip-rule="evenodd" d="M23 6.32C23.0184 6.40569 23.0184 6.49429 23 6.57998C23 6.63998 22.97 6.67001 22.91 6.67001H22.52V7.45998C22.5243 7.47975 22.5243 7.50022 22.52 7.51998C22.52 7.51998 22.52 7.51998 22.45 7.51998H22.32H21.8H21.67C21.67 7.51998 21.61 7.51998 21.6 7.51998C21.5957 7.50022 21.5957 7.47975 21.6 7.45998V6.67001H19.83C19.8158 6.66571 19.8029 6.65798 19.7925 6.64751C19.782 6.63705 19.7743 6.62414 19.77 6.60998C19.7629 6.57029 19.7629 6.52967 19.77 6.48998C19.7639 6.42011 19.7639 6.34986 19.77 6.27999V6.08999C19.7644 6.04349 19.7644 5.99651 19.77 5.95V5.82998L19.83 5.7L21.18 3.30999L21.24 3.26H21.35H21.54H22.1H22.3C22.3363 3.25273 22.3737 3.25273 22.41 3.26C22.4169 3.27941 22.4169 3.30059 22.41 3.32V5.99999H22.8C22.8 5.99999 22.86 5.99998 22.89 6.07998C22.9049 6.17271 22.9049 6.26724 22.89 6.35998L23 6.32ZM21.58 3.99999L20.43 5.99999H21.58V3.99999Z" fill="#980000"/><path fill-rule="evenodd" clip-rule="evenodd" d="M19.32 5.19001C19.32 5.37001 19.32 5.54999 19.32 5.73999C19.2988 5.92937 19.262 6.11666 19.21 6.29999C19.1609 6.48106 19.0904 6.65564 19 6.82001C18.9159 6.98421 18.8004 7.13029 18.66 7.25C18.5096 7.37766 18.3366 7.47603 18.15 7.54001C17.9179 7.6168 17.6745 7.65397 17.43 7.65H17.14L16.88 7.60001L16.68 7.54001L16.56 7.47001C16.5355 7.43742 16.5185 7.39986 16.51 7.35999C16.5027 7.30021 16.5027 7.23977 16.51 7.18C16.5038 7.12016 16.5038 7.05984 16.51 7C16.5034 6.96363 16.5034 6.92639 16.51 6.89002V6.84H16.57H16.68L16.86 6.89002L17.1 6.94001C17.203 6.95132 17.307 6.95132 17.41 6.94001C17.5751 6.93978 17.7385 6.90574 17.89 6.84C18.0152 6.77426 18.1219 6.67795 18.2 6.56C18.2837 6.43864 18.3446 6.30312 18.38 6.16001C18.4194 6.00277 18.4429 5.84194 18.45 5.68C18.333 5.75626 18.2048 5.81364 18.07 5.85001C17.9091 5.90482 17.74 5.93186 17.57 5.93C17.3696 5.93502 17.1698 5.90456 16.98 5.84C16.8266 5.78401 16.6893 5.69132 16.58 5.57001C16.4777 5.45095 16.4027 5.31104 16.36 5.16001C16.3103 4.97759 16.2867 4.78905 16.29 4.60001C16.2856 4.39552 16.3195 4.19202 16.39 4C16.45 3.81855 16.5505 3.65314 16.6839 3.51627C16.8173 3.3794 16.9801 3.27465 17.16 3.21C17.3718 3.13458 17.5952 3.09735 17.82 3.10001C17.9993 3.09456 18.1783 3.1182 18.35 3.17002C18.4934 3.21416 18.6286 3.28172 18.75 3.37C18.8556 3.46242 18.9467 3.57032 19.02 3.69001C19.0929 3.82289 19.1499 3.96383 19.19 4.10999C19.2323 4.27421 19.2623 4.44133 19.28 4.60999C19.2903 4.79318 19.2903 4.97682 19.28 5.16001L19.32 5.19001ZM18.45 5.07001C18.4627 4.87021 18.4627 4.6698 18.45 4.47001C18.4296 4.33345 18.3856 4.20147 18.32 4.07999C18.2778 3.99268 18.2073 3.92222 18.12 3.88001C17.9405 3.80665 17.7394 3.80665 17.56 3.88001C17.4858 3.919 17.421 3.97358 17.37 4.04001C17.3158 4.10701 17.2781 4.18577 17.26 4.26999C17.2448 4.37277 17.2448 4.47722 17.26 4.57999C17.2491 4.68304 17.2491 4.78697 17.26 4.89002C17.2802 4.97048 17.3177 5.04554 17.37 5.10999C17.4138 5.17444 17.4767 5.22345 17.55 5.25C17.6391 5.26753 17.7308 5.26753 17.82 5.25C17.9458 5.25037 18.0708 5.23011 18.19 5.19001C18.2803 5.15851 18.3674 5.11832 18.45 5.07001V5.07001Z" stroke="#980000" stroke-width="0.22" stroke-miterlimit="22.93"/><path fill-rule="evenodd" clip-rule="evenodd" d="M23 6.32C23.0184 6.40569 23.0184 6.49429 23 6.57998C23 6.63998 22.97 6.67001 22.91 6.67001H22.52V7.45998C22.5243 7.47975 22.5243 7.50022 22.52 7.51998C22.52 7.51998 22.52 7.51998 22.45 7.51998H22.32H21.8H21.67C21.67 7.51998 21.61 7.51998 21.6 7.51998C21.5957 7.50022 21.5957 7.47975 21.6 7.45998V6.67001H19.83C19.8158 6.66571 19.8029 6.65798 19.7925 6.64751C19.782 6.63705 19.7743 6.62414 19.77 6.60998C19.7629 6.57029 19.7629 6.52967 19.77 6.48998C19.7639 6.42011 19.7639 6.34986 19.77 6.27999V6.08999C19.7644 6.04349 19.7644 5.99651 19.77 5.95V5.82998L19.83 5.7L21.18 3.30999L21.24 3.26H21.35H21.54H22.1H22.3C22.3363 3.25273 22.3737 3.25273 22.41 3.26C22.4169 3.27941 22.4169 3.30059 22.41 3.32V5.99999H22.8C22.8 5.99999 22.86 5.99998 22.89 6.07998C22.9049 6.17271 22.9049 6.26724 22.89 6.35998L23 6.32ZM21.58 3.99999L20.43 5.99999H21.58V3.99999Z" stroke="#980000" stroke-width="0.22" stroke-miterlimit="22.93"/><path fill-rule="evenodd" clip-rule="evenodd" d="M10.62 16.92V14.27H11.47C11.6829 14.2516 11.8971 14.2516 12.11 14.27C12.262 14.312 12.3957 14.4035 12.49 14.53C12.5975 14.6818 12.6536 14.864 12.65 15.05C12.6543 15.192 12.6234 15.3329 12.56 15.46C12.5053 15.5639 12.4265 15.6531 12.33 15.72C12.2485 15.7792 12.1571 15.8232 12.06 15.85C11.8736 15.8631 11.6864 15.8631 11.5 15.85H11.15V16.85L10.62 16.92ZM11.15 14.72V15.48H11.45C11.5918 15.4879 11.734 15.471 11.87 15.43C11.9375 15.4077 11.9944 15.3615 12.03 15.3C12.0705 15.2413 12.0915 15.1713 12.09 15.1C12.0937 15.0567 12.0885 15.013 12.0747 14.9718C12.061 14.9305 12.0389 14.8924 12.01 14.86C11.9833 14.8262 11.95 14.7982 11.9122 14.7776C11.8744 14.7569 11.8329 14.7442 11.79 14.74H11.41L11.15 14.72Z" fill="#980000"/><path fill-rule="evenodd" clip-rule="evenodd" d="M13 15.61C12.9968 15.3769 13.041 15.1455 13.13 14.93C13.191 14.7984 13.272 14.6769 13.37 14.57C13.4681 14.4659 13.5875 14.384 13.72 14.33C13.9003 14.2542 14.0944 14.2167 14.29 14.22C14.4637 14.2141 14.6367 14.2439 14.7984 14.3075C14.96 14.3712 15.107 14.4673 15.23 14.59C15.4522 14.876 15.5728 15.2278 15.5728 15.59C15.5728 15.9522 15.4522 16.304 15.23 16.59C15.1083 16.7111 14.9629 16.8056 14.8028 16.8676C14.6427 16.9296 14.4715 16.9577 14.3 16.95C14.1172 16.9658 13.9332 16.9418 13.7605 16.8796C13.5879 16.8175 13.4308 16.7187 13.3 16.59C13.1787 16.4546 13.0853 16.2966 13.0252 16.1249C12.9651 15.9533 12.9396 15.7715 12.95 15.59L13 15.61ZM13.56 15.61C13.5442 15.8547 13.619 16.0968 13.77 16.29C13.8331 16.3658 13.9128 16.426 14.003 16.4659C14.0932 16.5058 14.1915 16.5243 14.29 16.52C14.39 16.5244 14.4897 16.5059 14.5815 16.4661C14.6733 16.4262 14.7549 16.366 14.82 16.29C14.9734 16.0941 15.0483 15.8481 15.03 15.6C15.0486 15.3565 14.9774 15.1147 14.83 14.92C14.7624 14.8443 14.679 14.7845 14.5857 14.7447C14.4923 14.705 14.3914 14.6863 14.29 14.69C14.1901 14.6864 14.0906 14.7051 13.9989 14.7449C13.9072 14.7847 13.8256 14.8446 13.76 14.92C13.6018 15.1104 13.5199 15.3527 13.53 15.6L13.56 15.61Z" fill="#980000"/><path fill-rule="evenodd" clip-rule="evenodd" d="M15.98 16.92V14.3H16.52V16.48H17.85V16.92H15.98Z" fill="#980000"/><path fill-rule="evenodd" clip-rule="evenodd" d="M18.21 16.92V14.27H18.75V16.92H18.21ZM18.12 14L18.38 13.46H18.94L18.44 14H18.12Z" fill="#980000"/><path fill-rule="evenodd" clip-rule="evenodd" d="M21 16L21.52 16.16C21.4617 16.4147 21.3211 16.6431 21.12 16.81C20.9167 16.9563 20.6703 17.0302 20.42 17.02C20.2578 17.0248 20.0964 16.9952 19.9465 16.9331C19.7965 16.8711 19.6614 16.778 19.55 16.66C19.43 16.5241 19.3381 16.3658 19.2798 16.1941C19.2214 16.0224 19.1977 15.8409 19.21 15.66C19.1946 15.2959 19.3159 14.9392 19.55 14.66C19.6659 14.5389 19.8058 14.4434 19.9608 14.3797C20.1158 14.3159 20.2825 14.2854 20.45 14.29C20.6912 14.2698 20.9315 14.3376 21.1264 14.4811C21.3213 14.6245 21.4576 14.8337 21.51 15.07L20.98 15.2C20.958 15.0709 20.8906 14.9539 20.79 14.87C20.6876 14.7893 20.5603 14.7469 20.43 14.75C20.3383 14.7461 20.247 14.764 20.1635 14.8022C20.0801 14.8405 20.0069 14.898 19.95 14.97C19.8061 15.166 19.7386 15.4078 19.76 15.65C19.7388 15.9033 19.8021 16.1565 19.94 16.37C19.9974 16.4382 20.0695 16.4926 20.1509 16.529C20.2323 16.5653 20.3209 16.5828 20.41 16.58C20.5468 16.5828 20.6794 16.5327 20.78 16.44C20.9001 16.3218 20.9775 16.167 21 16V16Z" fill="#980000"/><path d="M22.45 14.27H21.91V16.92H22.45V14.27Z" fill="#980000"/><path fill-rule="evenodd" clip-rule="evenodd" d="M25.35 16.92H24.77L24.54 16.32H23.48L23.26 16.92H22.69L23.69 14.27H24.26L25.32 16.92H25.35ZM24.35 15.87L23.98 14.87L23.62 15.87H24.35Z" fill="#980000"/><path fill-rule="evenodd" clip-rule="evenodd" d="M9.03 20.62V17.97H10.85V18.42H9.56V19.05H10.68V19.5H9.56V20.62H9.03Z" fill="#980000"/><path fill-rule="evenodd" clip-rule="evenodd" d="M11.29 20.62V17.97H13.25V18.42H11.83V19.01H13.15V19.45H11.83V20.17H13.31V20.62H11.29Z" fill="#980000"/><path fill-rule="evenodd" clip-rule="evenodd" d="M13.76 18H14.76C14.9261 17.9799 15.0939 17.9799 15.26 18C15.4124 18.048 15.5501 18.134 15.66 18.25C15.7741 18.3693 15.8595 18.5129 15.91 18.67C16.0234 19.062 16.0234 19.478 15.91 19.87C15.8522 20.0447 15.7527 20.2025 15.62 20.33C15.5141 20.4293 15.3878 20.5044 15.25 20.55C15.0959 20.5852 14.9381 20.602 14.78 20.6H13.78V18H13.76ZM14.3 18.45V20.2H14.69H15.02C15.0983 20.1819 15.1706 20.144 15.23 20.09C15.3023 20.0198 15.3512 19.929 15.37 19.83C15.4148 19.6741 15.4351 19.5122 15.43 19.35C15.4365 19.1878 15.4162 19.0256 15.37 18.87C15.3444 18.7743 15.2924 18.6877 15.22 18.62C15.1484 18.5571 15.0626 18.5125 14.97 18.49H14.54L14.3 18.45Z" fill="#980000"/><path fill-rule="evenodd" clip-rule="evenodd" d="M16.43 20.62V17.97H18.4V18.42H16.97V19.01H18.3V19.45H16.97V20.17H18.45V20.62H16.43Z" fill="#980000"/><path fill-rule="evenodd" clip-rule="evenodd" d="M18.9 20.62V18H20C20.2091 17.9892 20.4186 18.0129 20.62 18.07C20.7503 18.1182 20.8599 18.2101 20.93 18.33C21.0025 18.4545 21.0404 18.596 21.04 18.74C21.0497 18.9223 20.9888 19.1014 20.87 19.24C20.7311 19.3799 20.5465 19.4651 20.35 19.48C20.453 19.5402 20.5472 19.6142 20.63 19.7C20.7455 19.8342 20.8493 19.978 20.94 20.13L21.26 20.65H20.62L20.23 20.07C20.1439 19.9349 20.0505 19.8047 19.95 19.68C19.906 19.6313 19.8512 19.5937 19.79 19.57C19.7005 19.5566 19.6095 19.5566 19.52 19.57H19.41V20.68L18.9 20.62ZM19.44 19.09H19.84C19.9995 19.1068 20.1604 19.1068 20.32 19.09C20.3795 19.0685 20.4316 19.0303 20.47 18.98C20.4861 18.9143 20.4861 18.8457 20.47 18.78C20.4748 18.7005 20.4499 18.6221 20.4 18.56C20.3475 18.5037 20.2765 18.4682 20.2 18.46H19.39L19.44 19.09Z" fill="#980000"/><path fill-rule="evenodd" clip-rule="evenodd" d="M24 20.62H23.42L23.19 20.02H22.1L21.88 20.62H21.31L22.31 17.97H22.87L24 20.62ZM23 19.57L22.63 18.57L22.27 19.57H23Z" fill="#980000"/><path fill-rule="evenodd" clip-rule="evenodd" d="M24.27 20.62V17.99H24.8V20.17H26.13V20.62H24.27Z" fill="#980000"/><path d="M27.02 20.11H26.51V20.62H27.02V20.11Z" fill="#980000"/></svg>