<svg viewBox="0 0 36 26" fill="none" xmlns="http://www.w3.org/2000/svg"><path d="M33.68 1.08H2.33C1.36903 1.08 0.589996 1.85903 0.589996 2.82001V23.06C0.589996 24.021 1.36903 24.8 2.33 24.8H33.68C34.641 24.8 35.42 24.021 35.42 23.06V2.82001C35.42 1.85903 34.641 1.08 33.68 1.08Z" fill="#E5E6E7" stroke="#A8AAAD" stroke-width="0.96" stroke-miterlimit="22.93"/><path d="M1.88 9.45H34.13" stroke="#A8AAAD" stroke-width="0.57" stroke-miterlimit="22.93"/><path fill-rule="evenodd" clip-rule="evenodd" d="M5.39 5.44L5.53 5.28C5.58919 5.21555 5.63475 5.13982 5.66397 5.05734C5.69318 4.97486 5.70543 4.88733 5.7 4.8C5.6876 4.6272 5.60876 4.46592 5.48001 4.35001L5.24 4.13C5.11928 4.02107 4.96261 3.96054 4.80001 3.96001C4.70767 3.96148 4.6166 3.98175 4.53236 4.01958C4.44812 4.0574 4.37246 4.11197 4.31 4.17999L4.17 4.34V4.39999C4.08163 4.49913 4.019 4.61849 3.98761 4.74753C3.95622 4.87657 3.95704 5.01135 3.99 5.14C4.13281 5.92846 4.52976 6.64853 5.12021 7.19023C5.71066 7.73193 6.46218 8.06549 7.26 8.14C7.45812 8.16587 7.65914 8.12355 7.83 8.02C7.89212 7.98877 7.94671 7.94441 7.99 7.89L8.13 7.74001C8.25274 7.61637 8.32163 7.44921 8.32163 7.27499C8.32163 7.10078 8.25274 6.93363 8.13 6.81L7.89 6.59C7.82703 6.53142 7.75291 6.48615 7.67205 6.45686C7.59119 6.42758 7.50526 6.41489 7.41938 6.41956C7.33351 6.42422 7.24945 6.44615 7.17224 6.48402C7.09503 6.5219 7.02625 6.57495 6.97 6.64L6.82 6.8C6.75955 6.86565 6.71507 6.94435 6.69001 7.03V7.03C6.0532 6.78113 5.53244 6.30318 5.23001 5.69V5.69C5.34345 5.65597 5.44658 5.59408 5.53 5.50999L5.39 5.44ZM6.16001 4.28999C6.16255 4.24932 6.18053 4.21115 6.21026 4.18327C6.24 4.1554 6.27924 4.13992 6.32 4.14C6.52046 4.14 6.71893 4.17964 6.904 4.25665C7.08907 4.33366 7.25708 4.44652 7.39836 4.58873C7.53963 4.73094 7.65139 4.89968 7.72718 5.08525C7.80298 5.27082 7.84132 5.46955 7.84 5.67C7.84 5.70978 7.8242 5.74793 7.79607 5.77606C7.76794 5.80419 7.72979 5.82001 7.69001 5.82001C7.65022 5.82001 7.61206 5.80419 7.58393 5.77606C7.5558 5.74793 7.54 5.70978 7.54 5.67C7.54001 5.34551 7.41179 5.03416 7.18328 4.80377C6.95477 4.57339 6.64448 4.44264 6.32 4.44C6.29948 4.44137 6.27889 4.4385 6.25952 4.43158C6.24015 4.42466 6.22241 4.41383 6.20741 4.39977C6.1924 4.3857 6.18045 4.36869 6.1723 4.34981C6.16414 4.33092 6.15996 4.31056 6.16001 4.28999V4.28999ZM6.16001 3.53999C6.16001 3.50021 6.17581 3.46206 6.20394 3.43393C6.23207 3.4058 6.27022 3.39 6.31 3.39C6.90674 3.39 7.47904 3.62705 7.901 4.04901C8.32295 4.47097 8.56 5.04326 8.56 5.64C8.56 5.67978 8.5442 5.71793 8.51607 5.74606C8.48794 5.77419 8.44979 5.78999 8.41001 5.78999C8.37022 5.78999 8.33207 5.77419 8.30393 5.74606C8.2758 5.71793 8.26 5.67978 8.26 5.64C8.24696 5.11828 8.03049 4.62232 7.65682 4.258C7.28316 3.89367 6.78189 3.68984 6.26 3.69C6.23491 3.67463 6.21489 3.65221 6.20244 3.62553C6.18999 3.59886 6.18567 3.56911 6.19001 3.53999H6.16001Z" fill="#A8AAAD"/><path fill-rule="evenodd" clip-rule="evenodd" d="M14.89 7.78999H13.94V4.2C13.5914 4.52934 13.175 4.77849 12.72 4.92999V4.06C13.0111 3.95371 13.2817 3.79811 13.52 3.60001C13.7924 3.40047 14.0009 3.12597 14.12 2.81H14.89V7.78999Z" fill="#980000"/><path fill-rule="evenodd" clip-rule="evenodd" d="M16.34 6.64L17.26 6.53999C17.2692 6.69183 17.329 6.83619 17.43 6.95C17.5306 7.04267 17.6632 7.09283 17.8 7.09C17.899 7.08895 17.9962 7.06381 18.0833 7.01677C18.1705 6.96973 18.2448 6.90221 18.3 6.82001C18.4755 6.46944 18.5646 6.08201 18.56 5.69C18.4514 5.82337 18.314 5.93042 18.1581 6.00316C18.0023 6.07589 17.832 6.11242 17.66 6.11C17.4709 6.11039 17.2839 6.07046 17.1115 5.99286C16.939 5.91526 16.7851 5.80179 16.66 5.66C16.3829 5.32343 16.2313 4.90099 16.2313 4.465C16.2313 4.02901 16.3829 3.60658 16.66 3.27001C16.8071 3.11767 16.9847 2.99798 17.1811 2.91873C17.3775 2.83948 17.5883 2.80244 17.8 2.81C18.0369 2.8075 18.2714 2.85834 18.4861 2.95874C18.7007 3.05914 18.89 3.20653 19.04 3.39C19.4126 3.95728 19.5818 4.63413 19.52 5.31C19.588 6.01431 19.4114 6.72056 19.02 7.31C18.8643 7.50672 18.6647 7.66432 18.4373 7.77023C18.2098 7.87614 17.9608 7.92743 17.71 7.92C17.3708 7.93407 17.0387 7.81982 16.78 7.60001C16.5209 7.35874 16.3575 7.03205 16.32 6.67999L16.34 6.64ZM18.47 4.56C18.485 4.30608 18.4107 4.05492 18.26 3.85001C18.2046 3.77421 18.1325 3.71222 18.0492 3.66885C17.966 3.62549 17.8738 3.60194 17.78 3.60001C17.6954 3.59883 17.6118 3.61716 17.5354 3.65358C17.4591 3.69 17.3922 3.74353 17.34 3.81C17.21 4.00806 17.1502 4.24394 17.17 4.48C17.1484 4.7316 17.2156 4.98283 17.36 5.19C17.4169 5.25951 17.4886 5.31536 17.57 5.35344C17.6513 5.39152 17.7402 5.41085 17.83 5.41C17.9184 5.4108 18.0057 5.39139 18.0855 5.35326C18.1652 5.31513 18.2351 5.25929 18.29 5.19C18.419 5.00618 18.4824 4.78425 18.47 4.56V4.56Z" fill="#980000"/><path fill-rule="evenodd" clip-rule="evenodd" d="M20.15 3.78V2.89999H23.39V3.59C23.0697 3.93164 22.7972 4.31513 22.58 4.73C22.2996 5.22339 22.0844 5.75115 21.94 6.3C21.809 6.78614 21.7384 7.28658 21.73 7.78999H20.82C20.8357 7.07077 20.9779 6.35993 21.24 5.69C21.4943 5.00116 21.8554 4.3566 22.31 3.78H20.15Z" fill="#980000"/><path fill-rule="evenodd" clip-rule="evenodd" d="M10.63 17.12V14.47H11.49C11.6994 14.4466 11.9106 14.4466 12.12 14.47C12.272 14.5121 12.4057 14.6035 12.5 14.73C12.6102 14.8804 12.6666 15.0636 12.66 15.25C12.6635 15.3919 12.6326 15.5326 12.57 15.66C12.5125 15.7619 12.4341 15.8505 12.34 15.92C12.2582 15.9764 12.1667 16.0171 12.07 16.04C11.8838 16.0592 11.6962 16.0592 11.51 16.04H11.16V17.04L10.63 17.12ZM11.16 14.92V15.67H11.46C11.5991 15.6928 11.7409 15.6928 11.88 15.67C11.9455 15.6443 12.0014 15.5988 12.04 15.54C12.0807 15.4776 12.1016 15.4045 12.1 15.33C12.1042 15.2428 12.0757 15.1572 12.02 15.09C11.9644 15.0307 11.8904 14.9919 11.81 14.98C11.6804 14.9663 11.5496 14.9663 11.42 14.98L11.16 14.92Z" fill="#980000"/><path fill-rule="evenodd" clip-rule="evenodd" d="M13 15.81C12.9928 15.5775 13.0336 15.346 13.12 15.13C13.176 14.9957 13.2575 14.8734 13.36 14.77C13.4581 14.6659 13.5775 14.584 13.71 14.53C13.8903 14.4542 14.0844 14.4167 14.28 14.42C14.4539 14.4122 14.6274 14.4412 14.7894 14.5049C14.9513 14.5687 15.098 14.6658 15.22 14.79C15.4622 15.0651 15.5878 15.4238 15.57 15.79C15.5867 16.156 15.4613 16.5143 15.22 16.79C14.9641 17.0226 14.6308 17.1515 14.285 17.1515C13.9392 17.1515 13.6059 17.0226 13.35 16.79C13.2277 16.6552 13.1337 16.4973 13.0736 16.3255C13.0135 16.1537 12.9885 15.9716 13 15.79V15.81ZM13.55 15.81C13.5317 16.0581 13.6066 16.3041 13.76 16.5C13.8265 16.5731 13.9076 16.6315 13.998 16.6714C14.0884 16.7114 14.1862 16.732 14.285 16.732C14.3838 16.732 14.4816 16.7114 14.572 16.6714C14.6624 16.6315 14.7434 16.5731 14.81 16.5C14.9634 16.3041 15.0383 16.0581 15.02 15.81C15.0411 15.5632 14.9698 15.3173 14.82 15.12C14.7515 15.0489 14.669 14.9928 14.5779 14.9549C14.4867 14.9171 14.3887 14.8984 14.29 14.9C14.1886 14.8963 14.0876 14.915 13.9943 14.9547C13.901 14.9945 13.8176 15.0543 13.75 15.13C13.6036 15.318 13.5291 15.552 13.54 15.79L13.55 15.81Z" fill="#980000"/><path fill-rule="evenodd" clip-rule="evenodd" d="M15.99 17.12V14.49H16.53V16.67H17.86V17.12H15.99Z" fill="#980000"/><path fill-rule="evenodd" clip-rule="evenodd" d="M18.22 17.12V14.47H18.76V17.12H18.22ZM18.14 14.23L18.39 13.69H19L18.5 14.23H18.14Z" fill="#980000"/><path fill-rule="evenodd" clip-rule="evenodd" d="M21 16.14L21.52 16.3C21.4645 16.5559 21.3234 16.7852 21.12 16.95C20.918 17.0998 20.6714 17.1773 20.42 17.17C20.2571 17.1729 20.0955 17.1414 19.9456 17.0776C19.7957 17.0139 19.6609 16.9193 19.55 16.8C19.3114 16.5233 19.1895 16.1648 19.21 15.8C19.1974 15.4363 19.3183 15.0806 19.55 14.8C19.6643 14.6768 19.8039 14.5799 19.9593 14.5161C20.1147 14.4522 20.2821 14.4228 20.45 14.43C20.7413 14.4181 21.0255 14.5224 21.24 14.72C21.3748 14.8543 21.4684 15.0243 21.51 15.21L20.99 15.33C20.9576 15.2054 20.8878 15.0937 20.79 15.01C20.6876 14.9293 20.5603 14.8869 20.43 14.89C20.3393 14.8864 20.249 14.9035 20.1658 14.9398C20.0827 14.9762 20.0089 15.031 19.95 15.1C19.8037 15.2987 19.736 15.5444 19.76 15.79C19.7371 16.0403 19.8006 16.2908 19.94 16.5C19.9953 16.5712 20.0668 16.6283 20.1485 16.6666C20.2302 16.7048 20.3198 16.7231 20.41 16.72C20.5468 16.7228 20.6793 16.6727 20.78 16.58C20.9001 16.4618 20.9775 16.307 21 16.14V16.14Z" fill="#980000"/><path d="M22.46 14.47H21.92V17.12H22.46V14.47Z" fill="#980000"/><path fill-rule="evenodd" clip-rule="evenodd" d="M25.36 17.12H24.78L24.55 16.52H23.49L23.27 17.12H22.7L23.7 14.47H24.27L25.33 17.12H25.36ZM24.36 16.07L23.99 15.07L23.63 16.07H24.36Z" fill="#980000"/><path fill-rule="evenodd" clip-rule="evenodd" d="M15.26 19.46L15.78 19.62C15.7269 19.8768 15.5853 20.1068 15.38 20.27C15.1799 20.4235 14.932 20.5015 14.68 20.49C14.5178 20.4948 14.3564 20.4652 14.2065 20.4031C14.0565 20.3411 13.9214 20.248 13.81 20.13C13.5695 19.8544 13.4474 19.4951 13.47 19.13C13.4526 18.7656 13.5741 18.4082 13.81 18.13C13.9243 18.0068 14.064 17.9099 14.2193 17.8461C14.3747 17.7822 14.5422 17.7528 14.71 17.76C15.0014 17.7481 15.2855 17.8524 15.5 18.05C15.6348 18.1843 15.7285 18.3543 15.77 18.54L15.24 18.67C15.218 18.5409 15.1506 18.4239 15.05 18.34C14.9446 18.2578 14.8136 18.2154 14.68 18.22C14.5909 18.2172 14.5023 18.2347 14.4209 18.271C14.3395 18.3074 14.2674 18.3617 14.21 18.43C14.0637 18.6287 13.9961 18.8744 14.02 19.12C13.9972 19.3703 14.0607 19.6208 14.2 19.83C14.2554 19.9012 14.3268 19.9583 14.4085 19.9966C14.4902 20.0348 14.5799 20.0531 14.67 20.05C14.8068 20.0528 14.9394 20.0027 15.04 19.91C15.1621 19.7892 15.2396 19.6306 15.26 19.46Z" fill="#980000"/><path d="M16.76 17.79H16.22V20.44H16.76V17.79Z" fill="#980000"/><path fill-rule="evenodd" clip-rule="evenodd" d="M17.95 20.44L17 17.79H17.58L18.25 19.75L18.9 17.79H19.47L18.53 20.44H17.95Z" fill="#980000"/><path d="M20.26 17.79H19.72V20.44H20.26V17.79Z" fill="#980000"/><path fill-rule="evenodd" clip-rule="evenodd" d="M20.78 20.44V17.81H21.32V19.99H22.65V20.44H20.78Z" fill="#980000"/></svg>