<svg viewBox="0 0 9 9" fill="none" xmlns="http://www.w3.org/2000/svg"><path fill-rule="evenodd" clip-rule="evenodd" d="M5.45003 2.33999C5.28572 2.37764 5.13047 2.44738 4.99318 2.54519C4.85589 2.64301 4.73927 2.76698 4.65003 2.90999L4.13004 3.66999L3.78003 4.17999C3.55003 4.50999 3.31003 4.86999 3.08003 5.17999C3.08003 5.17999 3.03003 5.26999 2.95003 5.28999C2.92099 5.29212 2.89192 5.28628 2.86595 5.2731C2.83999 5.25992 2.81811 5.23991 2.80268 5.21521C2.78724 5.19052 2.77883 5.16209 2.77837 5.13297C2.7779 5.10385 2.7854 5.07517 2.80004 5.04999C2.80004 5.04999 2.86004 4.96999 2.88004 4.92999L4.38004 2.76999C4.43431 2.68268 4.49444 2.59915 4.56003 2.51999C4.73893 2.30351 4.97431 2.14083 5.24004 2.04999C5.40948 2.01065 5.58564 2.01027 5.75525 2.04887C5.92486 2.08747 6.08352 2.16404 6.21926 2.27282C6.35499 2.38161 6.46428 2.51977 6.5389 2.6769C6.61351 2.83403 6.65151 3.00605 6.65003 3.17999C6.64012 3.40308 6.58214 3.62139 6.48003 3.81999C6.42392 3.92438 6.36042 4.02464 6.29003 4.11999V4.11999V4.17999L5.54003 5.25999V5.31999L5.15003 5.88999C5.00003 6.09999 4.64003 6.63999 4.48003 6.82999C4.36015 7.02609 4.17638 7.17491 3.95964 7.2514C3.74291 7.3279 3.50644 7.3274 3.29003 7.24999C3.09631 7.16809 2.92985 7.03284 2.81003 6.85999C2.52003 6.39999 2.95003 5.80999 3.12003 5.55999V5.49999C3.15563 5.46082 3.18591 5.41711 3.21004 5.36999L3.39003 5.11999C3.57003 4.86999 3.74004 4.60999 3.91004 4.35999L4.09003 4.10999L4.61003 3.34999C4.66772 3.26251 4.7312 3.17899 4.80004 3.09999C4.87588 3.0091 4.97324 2.93862 5.08327 2.89496C5.1933 2.8513 5.3125 2.83584 5.43003 2.84999C5.5354 2.87143 5.63443 2.91687 5.71941 2.98277C5.80439 3.04867 5.87303 3.13327 5.92003 3.22999C5.9662 3.33965 5.98487 3.45892 5.97441 3.57744C5.96396 3.69595 5.92469 3.81012 5.86003 3.90999C5.75003 4.07999 5.64004 4.24999 5.52004 4.41999C5.40004 4.58999 5.28003 4.74999 5.17003 4.91999L4.47003 5.91999C4.47003 5.97999 4.35004 6.12999 4.21004 6.06999C4.18319 6.05936 4.15971 6.04167 4.14211 6.01878C4.1245 5.99589 4.11342 5.96867 4.11003 5.93999C4.11769 5.8859 4.13827 5.83444 4.17003 5.78999L5.17003 4.26999C5.28003 4.11999 5.43004 3.90999 5.52004 3.76999C5.58571 3.68003 5.62075 3.57136 5.62003 3.45999C5.61575 3.40126 5.59673 3.34456 5.56471 3.29514C5.5327 3.24572 5.48874 3.20517 5.43689 3.17725C5.38505 3.14933 5.327 3.13495 5.26811 3.13543C5.20923 3.13591 5.15142 3.15123 5.10004 3.17999C5.01517 3.23753 4.94357 3.31254 4.89003 3.39999L4.54003 3.90999L3.48003 5.42999C3.38003 5.57999 3.23003 5.79999 3.14003 5.94999C3.00065 6.12182 2.92945 6.33898 2.94004 6.55999C2.97681 6.66105 3.03808 6.75141 3.11836 6.82296C3.19865 6.89452 3.29542 6.94504 3.40003 6.96999C3.84003 7.10999 4.21003 6.55999 4.40003 6.26999C4.86003 5.58999 5.33004 4.91999 5.80004 4.26999C5.80004 4.26999 6.12003 3.80999 6.15003 3.75999C6.20121 3.67051 6.24471 3.57684 6.28003 3.47999C6.35588 3.31101 6.37447 3.12188 6.33295 2.94137C6.29143 2.76086 6.19209 2.59885 6.05004 2.47999C5.96534 2.41606 5.86819 2.37058 5.76485 2.34646C5.66151 2.32235 5.55427 2.32015 5.45003 2.33999V2.33999Z" fill="#4B4B4D"/><path fill-rule="evenodd" clip-rule="evenodd" d="M7.53001 1.29999H1.70001C1.63826 1.29886 1.57697 1.31074 1.52011 1.33486C1.46325 1.35898 1.41211 1.3948 1.37001 1.43999C1.32224 1.48271 1.28415 1.53515 1.25828 1.59378C1.23242 1.65242 1.21936 1.71591 1.22001 1.77999V7.59999C1.22343 7.72862 1.27731 7.85075 1.37001 7.93999C1.4578 8.02753 1.57606 8.07769 1.70001 8.07999H7.53001C7.65558 8.07738 7.77511 8.02565 7.86297 7.93591C7.95084 7.84618 8.00004 7.72558 8.00001 7.59999V1.77999C8.00258 1.71657 7.9914 1.65335 7.96724 1.59467C7.94307 1.53598 7.90649 1.48321 7.86001 1.43999C7.81792 1.3948 7.76677 1.35898 7.70991 1.33486C7.65306 1.31074 7.59176 1.29886 7.53001 1.29999V1.29999ZM1.70001 0.929993H7.53001C7.64117 0.929985 7.75122 0.952039 7.85379 0.994877C7.95636 1.03771 8.04941 1.10048 8.12755 1.17955C8.20568 1.25861 8.26734 1.3524 8.30896 1.45547C8.35058 1.55854 8.37133 1.66884 8.37001 1.77999V7.59999C8.37001 7.82339 8.28408 8.03822 8.13002 8.19999C7.96925 8.35684 7.75459 8.44628 7.53001 8.44999H1.70001C1.47631 8.44736 1.26267 8.35665 1.10542 8.19753C0.948172 8.0384 0.859999 7.8237 0.860014 7.59999V1.77999C0.858691 1.66884 0.879444 1.55854 0.921065 1.45547C0.962686 1.3524 1.02434 1.25861 1.10248 1.17955C1.18061 1.10048 1.27366 1.03771 1.37623 0.994877C1.47881 0.952039 1.58885 0.929985 1.70001 0.929993V0.929993Z" fill="#4B4B4D"/></svg>