<svg xmlns="http://www.w3.org/2000/svg" viewBox="0 0 5.58 7.38"><defs><style>.cls-1{fill:#000;fill-rule:evenodd;}</style></defs><g id="Camada_2" data-name="Camada 2"><g id="Camada_1-2" data-name="Camada 1"><path class="cls-1" d="M3.92.43a1.69,1.69,0,0,0-1.09.8l-.73,1L1.62,3c-.32.46-.65,1-1,1.4a.27.27,0,0,1-.18.14.22.22,0,0,1-.21-.33L.38,4,2.44,1A3,3,0,0,1,2.7.7,2,2,0,0,1,3.63.05a1.58,1.58,0,0,1,2,1.56,2,2,0,0,1-.23.88,3.54,3.54,0,0,1-.26.41l0,.05L5,3,4,4.52l-.06.09-.54.78c-.2.29-.7,1.05-.92,1.31A1.39,1.39,0,0,1,.8,7.28a1.54,1.54,0,0,1-.66-.54C-.27,6.1.33,5.29.57,5l.06-.09.12-.18L1,4.33c.25-.34.48-.7.73-1.05.08-.12.15-.23.24-.35l.72-1.05a2.18,2.18,0,0,1,.26-.34,1,1,0,0,1,.88-.34,1,1,0,0,1,.68.52,1,1,0,0,1-.09.93c-.15.25-.31.48-.48.71l-.48.7-1,1.4c0,.08-.16.3-.36.22A.23.23,0,0,1,2,5.49a.31.31,0,0,1,.09-.2l1.45-2.1c.14-.21.36-.5.48-.7a.71.71,0,0,0,.14-.43.48.48,0,0,0-.72-.38,1,1,0,0,0-.3.31l-.48.7L1.19,4.8c-.14.19-.35.49-.47.7a1.35,1.35,0,0,0-.28.84c0,.3.42.52.63.58.62.19,1.12-.57,1.4-1L4.4,3.14l.49-.7a2,2,0,0,0,.18-.39A1.17,1.17,0,0,0,4.76.72,1.12,1.12,0,0,0,3.92.43Z"/></g></g></svg>