<svg xmlns="http://www.w3.org/2000/svg" viewBox="0 0 46.49 48.89"><defs><style>.cls-1{fill:#414042;fill-rule:evenodd;}</style></defs><g id="Camada_2" data-name="Camada 2"><g id="Camada_1-2" data-name="Camada 1"><path class="cls-1" d="M27.46,9.19c-2.23.24-4.05,2.17-5.16,3.74l-3.41,4.93c-.76,1.11-1.51,2.19-2.28,3.29-1.49,2.16-3,4.47-4.55,6.59-.19.27-.32.59-.85.66a1,1,0,0,1-1-1.53c.16-.27.37-.54.55-.81l9.7-14a19.43,19.43,0,0,1,1.22-1.61,9.31,9.31,0,0,1,4.39-3,7.43,7.43,0,0,1,9.17,7.34,9.43,9.43,0,0,1-1.11,4.13A15.16,15.16,0,0,1,33,20.81l-.15.19c-.11.18-.17.26-.28.42l-4.84,7c-.11.14-.19.28-.27.39l-2.57,3.7c-.92,1.35-3.3,4.9-4.33,6.14-2,2.37-4.59,4.09-7.75,2.72a7.36,7.36,0,0,1-3.11-2.55c-1.91-3,.9-6.81,2-8.41L12,30c.2-.29.39-.54.58-.83.38-.55.74-1.08,1.13-1.63,1.17-1.64,2.26-3.32,3.41-5l1.13-1.64,3.43-5a13.91,13.91,0,0,1,1.21-1.62,4.33,4.33,0,0,1,7.32.85,4.81,4.81,0,0,1-.4,4.42c-.71,1.14-1.48,2.21-2.25,3.31S26,25.14,25.24,26.24c-1.52,2.21-3.06,4.38-4.56,6.6-.25.38-.76,1.4-1.68,1a1,1,0,0,1-.61-.86,1.46,1.46,0,0,1,.39-1l6.84-9.89c.67-1,1.67-2.37,2.27-3.3a3.46,3.46,0,0,0,.64-2,2.25,2.25,0,0,0-3.37-1.78,4.31,4.31,0,0,0-1.42,1.44c-.76,1.11-1.52,2.19-2.28,3.3l-6.85,9.9C14,30.63,13,32.05,12.38,33c-.48.82-1.6,2.52-1.32,4s2,2.41,3,2.71c2.9.88,5.26-2.69,6.56-4.58l9.11-13.19c.18-.25,2.11-3,2.26-3.3a9.54,9.54,0,0,0,.87-1.85,5.45,5.45,0,0,0-1.46-6.23A5.16,5.16,0,0,0,27.46,9.19Z"/><path class="cls-1" d="M41.24,2.4h-36a2.86,2.86,0,0,0-2.09.92,3.17,3.17,0,0,0-.88,2.2V43.37a3.25,3.25,0,0,0,.87,2.21,2.93,2.93,0,0,0,2.1.91h36a2.91,2.91,0,0,0,2.1-.91,3.25,3.25,0,0,0,.87-2.21V5.52a3.17,3.17,0,0,0-.88-2.2,2.86,2.86,0,0,0-2.09-.92ZM5.25,0h36A5.1,5.1,0,0,1,45,1.62a5.65,5.65,0,0,1,1.54,3.9V43.37A5.65,5.65,0,0,1,45,47.27a5.14,5.14,0,0,1-3.71,1.62h-36a5.1,5.1,0,0,1-3.7-1.62A5.62,5.62,0,0,1,0,43.37V5.52A5.63,5.63,0,0,1,1.54,1.63,5.09,5.09,0,0,1,5.25,0Z"/></g></g></svg>