<svg viewBox="0 0 11 6" fill="none" xmlns="http://www.w3.org/2000/svg"><path fill-rule="evenodd" clip-rule="evenodd" d="M8.32998 2.38235H8.13998V2.23236C8.15312 1.95264 8.11102 1.67305 8.01611 1.4096C7.9212 1.14615 7.77533 0.904001 7.58683 0.696926C7.39833 0.489851 7.17089 0.32193 6.91749 0.202755C6.66409 0.0835799 6.3897 0.0154782 6.10999 0.00234604C5.83027 -0.0107861 5.5507 0.0313069 5.28725 0.126217C5.02381 0.221127 4.78163 0.367005 4.57455 0.555508C4.36748 0.744011 4.19956 0.971452 4.08038 1.22485C3.96121 1.47825 3.89311 1.75263 3.87998 2.03234C4.07354 2.18545 4.23052 2.3798 4.3395 2.60122C4.44848 2.82265 4.50672 3.06557 4.50998 3.31234C4.68333 3.3097 4.85551 3.34121 5.01667 3.40512C5.17783 3.46902 5.32483 3.56406 5.44926 3.68478C5.5737 3.8055 5.67313 3.94955 5.74189 4.1087C5.81065 4.26785 5.84738 4.43898 5.84998 4.61233C5.84795 4.82447 5.79403 5.03291 5.69293 5.21942C5.59183 5.40593 5.44663 5.56485 5.26998 5.68234H8.26998C8.49814 5.70009 8.7275 5.67049 8.94366 5.59536C9.15982 5.52024 9.35811 5.40123 9.52608 5.24582C9.69406 5.0904 9.82809 4.90194 9.91975 4.69226C10.0114 4.48257 10.0587 4.25618 10.0587 4.02734C10.0587 3.7985 10.0114 3.57214 9.91975 3.36245C9.82809 3.15277 9.69406 2.96428 9.52608 2.80886C9.35811 2.65345 9.15982 2.53447 8.94366 2.45935C8.7275 2.38422 8.49814 2.35459 8.26998 2.37234L8.32998 2.38235ZM5.62998 4.62234C5.62213 4.90793 5.50247 5.17904 5.29674 5.37729C5.09101 5.57553 4.81567 5.68507 4.52998 5.68234H1.17999C0.86703 5.68234 0.566889 5.55802 0.345596 5.33673C0.124303 5.11543 -1.52588e-05 4.8153 -1.52588e-05 4.50235C-1.52588e-05 4.18939 0.124303 3.88926 0.345596 3.66796C0.566889 3.44667 0.86703 3.32235 1.17999 3.32235H1.32998H1.44998V3.20236C1.47978 2.84737 1.64011 2.516 1.89998 2.27234C2.09931 2.09038 2.34667 1.96945 2.61269 1.92392C2.8787 1.87838 3.1522 1.91014 3.4007 2.01544C3.64919 2.12073 3.86226 2.29514 4.01457 2.51794C4.16689 2.74074 4.25206 3.00256 4.25998 3.27234C4.26491 3.30549 4.26491 3.33919 4.25998 3.37234V3.51236H4.39998H4.51998C4.66687 3.50822 4.81306 3.53409 4.94961 3.58841C5.08615 3.64272 3.87998 5.21942 5.31409 3.82824C5.418 3.93215 5.49961 4.05617 5.55392 4.19271C5.60824 4.32926 5.63412 4.47545 5.62998 4.62234Z" fill="#FDFDFD"/></svg>