<svg viewBox="0 0 151 10" fill="none" xmlns="http://www.w3.org/2000/svg"><path fill-rule="evenodd" clip-rule="evenodd" d="M75.47 1.3L71.41 8.3C71.356 8.38708 71.3273 8.48752 71.3273 8.59C71.3273 8.69248 71.356 8.79293 71.41 8.88C71.4599 8.96853 71.5326 9.04209 71.6205 9.09308C71.7084 9.14407 71.8084 9.17062 71.91 9.17H80C80.1016 9.17062 80.2016 9.14407 80.2895 9.09308C80.3774 9.04209 80.4501 8.96853 80.5 8.88C80.554 8.79293 80.5827 8.69248 80.5827 8.59C80.5827 8.48752 80.554 8.38708 80.5 8.3L76.44 1.3C76.3888 1.2129 76.3157 1.14069 76.228 1.09052C76.1403 1.04034 76.041 1.01393 75.94 1.01393C75.839 1.01393 75.7397 1.04034 75.652 1.09052C75.5643 1.14069 75.4912 1.2129 75.44 1.3H75.47ZM80 9.82001H71.91C71.7027 9.81329 71.5007 9.75295 71.3236 9.64488C71.1466 9.53682 71.0006 9.38471 70.8999 9.2034C70.7992 9.02209 70.7471 8.81777 70.7489 8.61037C70.7507 8.40296 70.8062 8.19956 70.91 8.02L74.97 1.02C75.0726 0.843845 75.2181 0.696478 75.393 0.591583C75.5678 0.486689 75.7663 0.427662 75.97 0.419998C76.1737 0.427662 76.3722 0.486689 76.5471 0.591583C76.7219 0.696478 76.8674 0.843845 76.97 1.02L81.03 8.02C81.1338 8.19956 81.1893 8.40296 81.1911 8.61037C81.1929 8.81777 81.1409 9.02209 81.0401 9.2034C80.9394 9.38471 80.7934 9.53682 80.6164 9.64488C80.4393 9.75295 80.2373 9.81329 80.03 9.82001H80Z" fill="white"/><path fill-rule="evenodd" clip-rule="evenodd" d="M76 2.92999C76.1065 2.92922 76.212 2.95117 76.3094 2.99435C76.4068 3.03754 76.4939 3.10099 76.5649 3.18047C76.6358 3.25994 76.689 3.35362 76.721 3.45528C76.7529 3.55693 76.7628 3.66423 76.75 3.77L76.42 6.53C76.42 6.64139 76.3757 6.74822 76.297 6.82698C76.2182 6.90575 76.1114 6.95 76 6.95C75.8886 6.95 75.7818 6.90575 75.703 6.82698C75.6242 6.74822 75.58 6.64139 75.58 6.53L75.26 3.77C75.2456 3.66478 75.2541 3.55769 75.2848 3.45602C75.3155 3.35436 75.3677 3.26049 75.4379 3.1808C75.5081 3.10111 75.5947 3.03748 75.6917 2.9942C75.7886 2.95093 75.8938 2.92902 76 2.92999Z" fill="white"/><path fill-rule="evenodd" clip-rule="evenodd" d="M75.55 8.24001C75.4922 8.18659 75.4462 8.12157 75.4152 8.0492C75.3842 7.97683 75.3688 7.89874 75.37 7.82001C75.3686 7.73979 75.3839 7.66014 75.4149 7.58613C75.4459 7.51211 75.4919 7.44533 75.55 7.39001C75.6047 7.33446 75.6702 7.29072 75.7424 7.26148C75.8146 7.23224 75.8921 7.21813 75.97 7.22001C76.0496 7.21721 76.1288 7.23082 76.2029 7.25999C76.2769 7.28915 76.3442 7.33325 76.4005 7.38953C76.4568 7.44581 76.5009 7.51307 76.53 7.58713C76.5592 7.66119 76.5728 7.74047 76.57 7.82001C76.5708 7.89777 76.5561 7.97489 76.5269 8.04697C76.4978 8.11905 76.4546 8.18466 76.4 8.24001C76.3447 8.29813 76.2779 8.34413 76.2039 8.37511C76.1299 8.4061 76.0502 8.42138 75.97 8.42C75.8911 8.42253 75.8126 8.40772 75.74 8.37662C75.6675 8.34552 75.6026 8.29889 75.55 8.24001Z" fill="white"/><path d="M0.140015 5.14999H61.91" stroke="#E5E6E7" stroke-width="0.57" stroke-miterlimit="22.93"/><path d="M88.61 5.14999H150.38" stroke="#E5E6E7" stroke-width="0.57" stroke-miterlimit="22.93"/></svg>