<svg viewBox="0 0 168 16" fill="none" xmlns="http://www.w3.org/2000/svg"><path d="M168 0.51001H0.0599976V15.81H168V0.51001Z" fill="#4B4B4D"/><path fill-rule="evenodd" clip-rule="evenodd" d="M152.53 10.11H153V7.54001H152.5V10.11H152.53ZM153.23 8.57001V9.07001H154.23V10.82H154.73V7.54001H154.23V8.54001L153.23 8.57001ZM156.65 10.11H157.15V8H156.15C156.018 8.00055 155.887 8.02736 155.765 8.07886C155.643 8.13035 155.533 8.2055 155.44 8.29999C155.342 8.39611 155.265 8.51145 155.213 8.63876C155.161 8.76608 155.136 8.90267 155.14 9.04001C155.138 9.17568 155.163 9.31035 155.215 9.43585C155.267 9.56135 155.343 9.67503 155.44 9.76999C155.534 9.86568 155.646 9.94157 155.77 9.9931C155.893 10.0446 156.026 10.0708 156.16 10.07H156.5V9.57001H156.15C156.083 9.57098 156.016 9.55815 155.954 9.53235C155.893 9.50655 155.837 9.46833 155.79 9.42001C155.692 9.31788 155.638 9.18143 155.64 9.04001C155.638 8.96982 155.65 8.89996 155.676 8.83466C155.702 8.76935 155.741 8.70994 155.79 8.66C155.837 8.61169 155.893 8.57344 155.954 8.54764C156.016 8.52184 156.083 8.50904 156.15 8.51001H156.69V10.07L156.65 10.11ZM157.48 10.11H158V8.81C157.998 8.7752 158.003 8.74033 158.015 8.70761C158.027 8.67489 158.046 8.64503 158.07 8.62C158.094 8.5965 158.122 8.57815 158.153 8.5661C158.184 8.55405 158.217 8.54855 158.25 8.54999H158.69V8.04999H158.25C158.154 8.04843 158.058 8.06622 157.969 8.10229C157.879 8.13837 157.798 8.192 157.73 8.26001C157.584 8.40401 157.496 8.59574 157.48 8.79999V10.11ZM161.04 7.54001H160.53V9.60999H160C159.932 9.61164 159.864 9.59817 159.802 9.5705C159.74 9.54283 159.684 9.50168 159.64 9.45001C159.591 9.40195 159.552 9.34427 159.526 9.28061C159.501 9.21695 159.488 9.14866 159.49 9.07999C159.488 9.0098 159.5 8.93997 159.526 8.87466C159.552 8.80936 159.591 8.74994 159.64 8.70001C159.684 8.64779 159.739 8.60624 159.802 8.57852C159.864 8.5508 159.932 8.53763 160 8.54001H160.34V8H160C159.866 7.99922 159.733 8.02537 159.61 8.0769C159.486 8.12844 159.374 8.2043 159.28 8.29999C159.184 8.39696 159.108 8.51268 159.058 8.63995C159.008 8.76723 158.985 8.90339 158.99 9.04001C158.987 9.17496 159.01 9.3092 159.06 9.43466C159.11 9.56012 159.185 9.67418 159.28 9.76999C159.375 9.8669 159.489 9.94348 159.614 9.99506C159.74 10.0466 159.874 10.0721 160.01 10.07H161.01V7.51001L161.04 7.54001ZM163.43 7.54001H162.93V9.62H162.39C162.32 9.62244 162.251 9.60937 162.187 9.5817C162.123 9.55402 162.066 9.51243 162.02 9.45999C161.971 9.41193 161.932 9.35428 161.906 9.29062C161.881 9.22696 161.868 9.15867 161.87 9.09C161.868 9.01981 161.88 8.94995 161.906 8.88464C161.932 8.81933 161.971 8.75992 162.02 8.70999C162.066 8.65755 162.123 8.61599 162.187 8.58832C162.251 8.56064 162.32 8.54754 162.39 8.54999H162.73V8H162.39C162.256 7.99922 162.123 8.02537 162 8.0769C161.876 8.12844 161.764 8.2043 161.67 8.29999C161.572 8.39611 161.495 8.51145 161.443 8.63876C161.391 8.76608 161.366 8.90267 161.37 9.04001C161.368 9.17568 161.393 9.31035 161.445 9.43585C161.497 9.56135 161.573 9.67503 161.67 9.76999C161.762 9.86681 161.875 9.94278 161.999 9.9928C162.123 10.0428 162.256 10.0657 162.39 10.06H163.39L163.43 7.54001Z" fill="#A8AAAD"/><path fill-rule="evenodd" clip-rule="evenodd" d="M48.24 10.78C48.5165 10.3072 48.6583 9.76768 48.65 9.22H49.44C49.4106 9.5677 49.2818 9.89963 49.0691 10.1762C48.8563 10.4528 48.5685 10.6624 48.24 10.78ZM45.83 9.22H46.62C46.6117 9.76768 46.7535 10.3072 47.03 10.78C46.7015 10.6624 46.4137 10.4528 46.201 10.1762C45.9882 9.89963 45.8594 9.5677 45.83 9.22V9.22ZM47.03 7.37C46.7535 7.84282 46.6117 8.38231 46.62 8.92999H45.83C45.857 8.58154 45.9848 8.24848 46.1979 7.97147C46.411 7.69445 46.7001 7.48545 47.03 7.37V7.37ZM46.91 8.92999H48.36C48.36 7.92999 47.96 7.26001 47.64 7.26001C47.32 7.26001 46.94 7.93999 46.91 8.92999V8.92999ZM47.64 10.88C47.96 10.88 48.33 10.21 48.36 9.22H46.91C46.91 10.22 47.31 10.88 47.64 10.88V10.88ZM49.44 8.92999H48.65C48.6583 8.38231 48.5165 7.84282 48.24 7.37C48.5699 7.48545 48.859 7.69445 49.0721 7.97147C49.2852 8.24848 49.413 8.58154 49.44 8.92999V8.92999ZM47.64 6.92999C47.2247 6.92999 46.8187 7.05315 46.4733 7.28391C46.128 7.51466 45.8588 7.84265 45.6999 8.22638C45.5409 8.6101 45.4993 9.03234 45.5804 9.4397C45.6614 9.84706 45.8614 10.2212 46.1551 10.5149C46.4488 10.8086 46.823 11.0086 47.2303 11.0897C47.6377 11.1707 48.0599 11.1291 48.4436 10.9702C48.8274 10.8112 49.1553 10.542 49.3861 10.1967C49.6168 9.85134 49.74 9.44534 49.74 9.03C49.7194 8.4861 49.4894 7.97122 49.098 7.59293C48.7067 7.21463 48.1843 7.00219 47.64 7V6.92999Z" fill="#E5E6E7"/><path fill-rule="evenodd" clip-rule="evenodd" d="M51.78 10.72L51.01 8.29001H51.63L52.09 9.88L52.51 8.29001H53.13L53.53 9.88L54 8.29001H54.63L53.85 10.72H53.23L52.81 9.16L52.4 10.72H51.78Z" fill="#A8AAAD"/><path fill-rule="evenodd" clip-rule="evenodd" d="M55.58 10.72L54.82 8.29001H55.44L55.9 9.88L56.31 8.29001H56.94L57.34 9.88L57.8 8.29001H58.44L57.66 10.72H57.04L56.62 9.16L56.21 10.72H55.58Z" fill="#A8AAAD"/><path fill-rule="evenodd" clip-rule="evenodd" d="M59.39 10.72L58.62 8.29001H59.25L59.7 9.88L60.12 8.29001H60.74L61.15 9.88L61.61 8.29001H62.24L61.46 10.72H60.85L60.43 9.16L60.02 10.72H59.39Z" fill="#A8AAAD"/><path d="M63.21 10.08H62.57V10.72H63.21V10.08Z" fill="#A8AAAD"/><path fill-rule="evenodd" clip-rule="evenodd" d="M64.67 7.37V8.60999C64.7609 8.49783 64.875 8.4067 65.0045 8.34283C65.1339 8.27896 65.2757 8.24387 65.42 8.23999C65.5578 8.23458 65.6949 8.26202 65.82 8.32001C65.9291 8.36127 66.0232 8.43445 66.09 8.53C66.1531 8.61284 66.1974 8.70836 66.22 8.81C66.2337 8.97304 66.2337 9.13694 66.22 9.29999V10.72H65.58V9.44C65.6045 9.27759 65.6045 9.11242 65.58 8.95001C65.5577 8.88256 65.5115 8.82562 65.45 8.79001C65.3809 8.74774 65.3009 8.72686 65.22 8.73001C65.1172 8.72419 65.0153 8.75228 64.93 8.81C64.8412 8.86153 64.7739 8.94312 64.74 9.04001C64.6934 9.18869 64.6731 9.34434 64.68 9.5V10.72H64V7.37H64.67Z" fill="#A8AAAD"/><path fill-rule="evenodd" clip-rule="evenodd" d="M67.54 9.00001L66.96 8.89002C67.0111 8.68316 67.131 8.49979 67.3 8.37C67.5127 8.2397 67.7613 8.18021 68.01 8.20002C68.2313 8.18739 68.4527 8.22144 68.66 8.29999C68.7821 8.35326 68.8838 8.44443 68.95 8.56C69.0248 8.74018 69.0556 8.93556 69.04 9.13001V9.88001C69.0262 10.0364 69.0262 10.1936 69.04 10.35C69.0646 10.4637 69.1014 10.5743 69.15 10.68H68.52C68.52 10.68 68.52 10.57 68.45 10.49C68.38 10.41 68.45 10.43 68.45 10.42C68.3492 10.521 68.2305 10.6024 68.1 10.66C67.9731 10.7123 67.8373 10.7395 67.7 10.74C67.4852 10.7494 67.2748 10.6781 67.11 10.54C67.041 10.4725 66.9868 10.3914 66.9507 10.3019C66.9145 10.2125 66.8973 10.1165 66.9 10.02C66.8976 9.89414 66.9286 9.76991 66.99 9.66001C67.058 9.55206 67.1551 9.46542 67.27 9.41001C67.4326 9.33754 67.6041 9.2871 67.78 9.26002C67.9912 9.22602 68.1987 9.17245 68.4 9.10001V9.04001C68.4054 8.99118 68.4001 8.94176 68.3846 8.89515C68.3691 8.84854 68.3436 8.80582 68.31 8.76999C68.2087 8.7064 68.0891 8.67827 67.97 8.69001C67.8746 8.68107 67.779 8.70584 67.7 8.76002C67.6194 8.81799 67.5625 8.90327 67.54 9.00001V9.00001ZM68.4 9.51999L68.01 9.62C67.8875 9.63477 67.7689 9.67208 67.66 9.73002C67.6231 9.75361 67.5927 9.78613 67.5717 9.82459C67.5508 9.86305 67.5398 9.90621 67.54 9.95002C67.5395 9.99471 67.5482 10.039 67.5654 10.0803C67.5826 10.1215 67.6079 10.1589 67.64 10.19C67.7078 10.2536 67.7971 10.2893 67.89 10.29C68.0135 10.2886 68.133 10.2464 68.23 10.17C68.3003 10.117 68.3527 10.0437 68.38 9.96C68.3934 9.8571 68.3934 9.7529 68.38 9.65L68.4 9.51999Z" fill="#A8AAAD"/><path fill-rule="evenodd" clip-rule="evenodd" d="M70.45 10.72H69.81V8.29H70.4V8.62999C70.4693 8.50449 70.5648 8.39535 70.68 8.30999C70.7646 8.26018 70.8619 8.23587 70.96 8.23998C71.1081 8.24224 71.253 8.28364 71.38 8.35998L71.18 8.92C71.0923 8.85597 70.9883 8.81784 70.88 8.80999C70.7964 8.80913 70.715 8.83743 70.65 8.89C70.5757 8.96416 70.5237 9.05771 70.5 9.15999C70.4749 9.42941 70.4749 9.70058 70.5 9.96999L70.45 10.72Z" fill="#A8AAAD"/><path fill-rule="evenodd" clip-rule="evenodd" d="M74.05 10.72H73.46V10.36C73.3679 10.4944 73.2443 10.6043 73.1 10.68C72.9738 10.7469 72.8329 10.7812 72.69 10.78C72.5522 10.7809 72.4159 10.7508 72.2913 10.6919C72.1667 10.6331 72.0569 10.547 71.97 10.44C71.7636 10.1716 71.6607 9.83799 71.68 9.5C71.6519 9.16101 71.7558 8.82426 71.97 8.56C72.0633 8.46322 72.1751 8.38623 72.2988 8.33365C72.4225 8.28107 72.5556 8.25397 72.69 8.25397C72.8244 8.25397 72.9575 8.28107 73.0812 8.33365C73.2049 8.38623 73.3167 8.46322 73.41 8.56V7.35001H74.05V10.7V10.72ZM72.34 9.45999C72.3246 9.65215 72.359 9.84504 72.44 10.02C72.4837 10.0978 72.5477 10.1622 72.6252 10.2062C72.7028 10.2503 72.7909 10.2723 72.88 10.27C72.9523 10.2696 73.0234 10.2522 73.0877 10.2192C73.152 10.1862 73.2076 10.1385 73.25 10.08C73.3709 9.91961 73.428 9.72004 73.41 9.51999C73.4268 9.30582 73.3742 9.09195 73.26 8.91C73.2134 8.85177 73.154 8.8052 73.0863 8.77396C73.0186 8.74271 72.9445 8.72766 72.87 8.73001C72.7972 8.72921 72.7251 8.745 72.6592 8.77618C72.5934 8.80737 72.5355 8.85313 72.49 8.91C72.3789 9.07095 72.326 9.26494 72.34 9.45999V9.45999Z" fill="#A8AAAD"/><path fill-rule="evenodd" clip-rule="evenodd" d="M77.08 10.72H76.48V10.36C76.3893 10.4919 76.2695 10.6014 76.13 10.68C76.0035 10.7461 75.8627 10.7804 75.72 10.78C75.5822 10.7809 75.4459 10.7508 75.3213 10.6919C75.1967 10.6331 75.0869 10.547 75 10.44C74.8086 10.1639 74.7061 9.83595 74.7061 9.5C74.7061 9.16405 74.8086 8.8361 75 8.56C75.0919 8.45511 75.206 8.372 75.3339 8.31665C75.4619 8.2613 75.6006 8.2351 75.74 8.23999C75.8749 8.2392 76.0082 8.26947 76.1296 8.32843C76.251 8.38739 76.3572 8.47344 76.44 8.57999V7.37H77.09V10.72H77.08ZM75.36 9.45999C75.3468 9.65308 75.3847 9.84625 75.47 10.02C75.512 10.097 75.5743 10.161 75.6501 10.205C75.7259 10.2491 75.8123 10.2716 75.9 10.27C75.9739 10.2712 76.0471 10.2546 76.1132 10.2215C76.1794 10.1884 76.2366 10.1399 76.28 10.08C76.3925 9.91596 76.4455 9.71832 76.43 9.51999C76.4468 9.30582 76.3942 9.09195 76.28 8.91C76.2345 8.85313 76.1766 8.80737 76.1107 8.77618C76.0449 8.745 75.9728 8.72921 75.9 8.73001C75.8257 8.72915 75.7521 8.74486 75.6847 8.776C75.6172 8.80714 75.5575 8.85291 75.51 8.91C75.3989 9.07095 75.346 9.26494 75.36 9.45999V9.45999Z" fill="#A8AAAD"/><path d="M78.51 10.08H77.87V10.72H78.51V10.08Z" fill="#A8AAAD"/><path fill-rule="evenodd" clip-rule="evenodd" d="M81.45 8.99999L80.82 9.10997C80.8067 9.00338 80.7573 8.90457 80.68 8.82997C80.5959 8.76061 80.4889 8.725 80.38 8.73C80.3079 8.72725 80.2361 8.74113 80.1702 8.77062C80.1043 8.8001 80.046 8.84436 80 8.89998C79.8885 9.06043 79.8388 9.25578 79.86 9.45C79.838 9.66639 79.8872 9.88405 80 10.07C80.0466 10.1282 80.1061 10.1748 80.1738 10.206C80.2414 10.2373 80.3155 10.2523 80.39 10.25C80.5003 10.2522 80.6073 10.213 80.69 10.14C80.7817 10.041 80.838 9.91438 80.85 9.77998L81.49 9.89C81.4384 10.1454 81.305 10.3771 81.11 10.55C80.8926 10.7071 80.6278 10.7848 80.36 10.77C80.2022 10.7777 80.0446 10.7513 79.898 10.6926C79.7513 10.6339 79.619 10.5444 79.51 10.43C79.2883 10.1728 79.1769 9.8387 79.2 9.49999C79.1786 9.15844 79.2896 8.82177 79.51 8.55998C79.6225 8.44818 79.7571 8.36107 79.9052 8.30425C80.0533 8.24742 80.2116 8.22215 80.37 8.23C80.6209 8.21542 80.8699 8.28204 81.08 8.42C81.2681 8.56349 81.3992 8.76898 81.45 8.99999V8.99999Z" fill="#A8AAAD"/><path fill-rule="evenodd" clip-rule="evenodd" d="M82 9.46999C82.0044 9.25368 82.0592 9.04139 82.16 8.84999C82.2614 8.6582 82.4182 8.50138 82.61 8.39998C82.8086 8.28993 83.033 8.23471 83.26 8.23998C83.4257 8.23572 83.5907 8.26448 83.7452 8.32457C83.8997 8.38466 84.0407 8.47487 84.16 8.58998C84.3856 8.84136 84.5104 9.16723 84.5104 9.50499C84.5104 9.84275 84.3856 10.1686 84.16 10.42C84.0426 10.5383 83.9021 10.6313 83.7473 10.6932C83.5925 10.7551 83.4267 10.7847 83.26 10.78C83.038 10.7793 82.8192 10.728 82.62 10.63C82.4263 10.5324 82.2661 10.3792 82.16 10.19C82.051 9.96585 81.9962 9.71921 82 9.46999V9.46999ZM82.67 9.46999C82.6534 9.6684 82.7144 9.86552 82.84 10.02C82.8906 10.0826 82.9546 10.1332 83.0273 10.1679C83.1 10.2026 83.1795 10.2206 83.26 10.2206C83.3405 10.2206 83.4201 10.2026 83.4927 10.1679C83.5654 10.1332 83.6294 10.0826 83.68 10.02C83.7896 9.85564 83.8482 9.66253 83.8482 9.46498C83.8482 9.26743 83.7896 9.07432 83.68 8.90999C83.6275 8.8504 83.5628 8.80266 83.4904 8.76997C83.418 8.73729 83.3395 8.72038 83.26 8.72038C83.1806 8.72038 83.102 8.73729 83.0296 8.76997C82.9572 8.80266 82.8926 8.8504 82.84 8.90999C82.7641 8.98951 82.7053 9.08382 82.6675 9.18706C82.6296 9.29029 82.6135 9.40023 82.62 9.50999L82.67 9.46999Z" fill="#A8AAAD"/><path fill-rule="evenodd" clip-rule="evenodd" d="M85.08 8.29H85.67V8.61998C85.761 8.50472 85.8763 8.41094 86.0076 8.34526C86.139 8.27959 86.2832 8.24363 86.43 8.23998C86.5687 8.23648 86.7062 8.2674 86.83 8.32997C86.9494 8.39756 87.0467 8.49829 87.11 8.61998C87.209 8.50381 87.3275 8.40568 87.46 8.32997C87.5846 8.2696 87.7215 8.2388 87.86 8.23998C88.0174 8.23374 88.1733 8.27187 88.31 8.34999C88.4323 8.42291 88.5299 8.53092 88.59 8.65999C88.6373 8.82565 88.6576 8.99788 88.65 9.17V10.72H88V9.32997C88.0169 9.17317 87.9928 9.01466 87.93 8.86998C87.9024 8.82394 87.8625 8.78649 87.8148 8.76177C87.7672 8.73705 87.7136 8.72605 87.66 8.73C87.5676 8.73212 87.4776 8.7598 87.4 8.80999C87.3246 8.87492 87.2663 8.95731 87.23 9.04998C87.2091 9.21599 87.2091 9.38397 87.23 9.54998V10.72H86.59V9.39C86.6138 9.23759 86.6138 9.08239 86.59 8.92998C86.5774 8.86889 86.5416 8.81509 86.49 8.77999C86.4245 8.7626 86.3555 8.7626 86.29 8.77999C86.1972 8.77919 86.1064 8.80712 86.03 8.85997C85.9469 8.91307 85.8864 8.99499 85.86 9.08998C85.8118 9.25204 85.7915 9.42112 85.8 9.58998V10.77H85.16L85.08 8.29Z" fill="#A8AAAD"/><path d="M90.09 10.08H89.45V10.72H90.09V10.08Z" fill="#A8AAAD"/><path fill-rule="evenodd" clip-rule="evenodd" d="M90.9 10.72V7.37H91.54V8.57999C91.6233 8.474 91.7296 8.38834 91.8509 8.32944C91.9721 8.27054 92.1052 8.23995 92.24 8.23999C92.378 8.23444 92.5154 8.26038 92.6419 8.31583C92.7684 8.37127 92.8806 8.45476 92.97 8.56C93.1856 8.81612 93.2932 9.14603 93.27 9.48001C93.3048 9.83977 93.1971 10.1988 92.97 10.48C92.8831 10.587 92.7733 10.6731 92.6487 10.7319C92.5241 10.7908 92.3878 10.8209 92.25 10.82C92.1063 10.8178 91.9655 10.7799 91.84 10.71C91.6991 10.6378 91.5787 10.5312 91.49 10.4V10.76L90.9 10.72ZM91.53 9.45999C91.5145 9.65437 91.5563 9.84901 91.65 10.02C91.6945 10.097 91.7587 10.1608 91.836 10.2048C91.9134 10.2487 92.001 10.2712 92.09 10.27C92.161 10.2686 92.2309 10.2518 92.2948 10.2207C92.3587 10.1896 92.4151 10.145 92.46 10.09C92.574 9.92289 92.627 9.72158 92.61 9.51999C92.6238 9.30472 92.5677 9.09076 92.45 8.91C92.4045 8.85313 92.3466 8.80737 92.2808 8.77618C92.2149 8.745 92.1428 8.72921 92.07 8.73001C91.9955 8.72766 91.9214 8.74271 91.8537 8.77396C91.786 8.8052 91.7266 8.85177 91.68 8.91C91.5674 9.07025 91.5143 9.26478 91.53 9.45999V9.45999Z" fill="#A8AAAD"/><path fill-rule="evenodd" clip-rule="evenodd" d="M94.56 10.72H93.92V8.29002H94.52V8.63001C94.5864 8.50549 94.6784 8.39642 94.79 8.31C94.875 8.26122 94.972 8.23698 95.07 8.24C95.2185 8.23973 95.364 8.28131 95.49 8.35999L95.29 8.92002C95.2037 8.85336 95.0989 8.81494 94.99 8.81C94.9066 8.81072 94.8258 8.83885 94.76 8.89002C94.6859 8.96289 94.6368 9.05744 94.62 9.16001C94.5678 9.42666 94.5476 9.69858 94.56 9.97001V10.72Z" fill="#A8AAAD"/><path fill-rule="evenodd" clip-rule="evenodd" d="M9.37001 7.42001V8.66C9.46091 8.54785 9.57501 8.45669 9.70448 8.39282C9.83394 8.32895 9.9757 8.29389 10.12 8.29001C10.2574 8.28891 10.3936 8.31613 10.52 8.37C10.625 8.41826 10.7174 8.49012 10.79 8.57999C10.8485 8.66911 10.8924 8.76702 10.92 8.87C10.9342 9.02968 10.9342 9.19032 10.92 9.35001V10.77H10.28V9.48999C10.3048 9.33095 10.3048 9.16905 10.28 9.01001C10.2582 8.93971 10.2122 8.87943 10.15 8.84C10.081 8.79772 10.0009 8.77685 9.92001 8.78C9.81779 8.7792 9.71737 8.80689 9.63001 8.85999C9.54126 8.91152 9.47387 8.99311 9.44001 9.09C9.39364 9.24216 9.37336 9.40107 9.38001 9.56V10.77H8.73001V7.42001H9.37001Z" fill="#A8AAAD"/><path fill-rule="evenodd" clip-rule="evenodd" d="M12.53 9.09001L12 9.00001C12.0441 8.78746 12.1652 8.5987 12.34 8.47001C12.5547 8.34452 12.8018 8.28536 13.05 8.3C13.2681 8.28599 13.4866 8.32014 13.69 8.4C13.8147 8.45327 13.9196 8.54418 13.99 8.66001C14.0593 8.84156 14.0866 9.03642 14.07 9.23002V10C14.0559 10.1597 14.0559 10.3203 14.07 10.48C14.0901 10.5917 14.1272 10.6996 14.18 10.8H13.54L13.48 10.61V10.54C13.38 10.642 13.2611 10.7235 13.13 10.78C13.0043 10.8363 12.8676 10.8636 12.73 10.86C12.515 10.8714 12.3038 10.7998 12.14 10.66C12.0697 10.593 12.0139 10.5123 11.9761 10.4228C11.9383 10.3334 11.9192 10.2371 11.92 10.14C11.9224 10.0135 11.9568 9.88965 12.02 9.78001C12.088 9.67206 12.1851 9.58542 12.3 9.53001C12.4626 9.45754 12.6341 9.4071 12.81 9.38002C13.0222 9.35101 13.2303 9.29731 13.43 9.22001V9.16001C13.4348 9.11122 13.4292 9.06196 13.4137 9.01545C13.3982 8.96894 13.3731 8.92622 13.34 8.89002C13.2347 8.82701 13.1122 8.79899 12.99 8.81001C12.8979 8.80259 12.806 8.82734 12.73 8.88002C12.6533 8.94172 12.5975 9.02549 12.57 9.12001L12.53 9.09001ZM13.39 9.61L13 9.71C12.8784 9.72836 12.7603 9.76548 12.65 9.82002C12.6129 9.84583 12.5827 9.88022 12.5618 9.92027C12.5409 9.96032 12.53 10.0048 12.53 10.05C12.5291 10.0933 12.5376 10.1363 12.5548 10.176C12.5721 10.2157 12.5977 10.2512 12.63 10.28C12.6619 10.3138 12.7008 10.3403 12.744 10.3576C12.7872 10.3749 12.8336 10.3825 12.88 10.38C13.0006 10.3795 13.1173 10.3371 13.21 10.26C13.2874 10.2121 13.3443 10.1373 13.37 10.05C13.3787 9.94685 13.3787 9.84315 13.37 9.74L13.39 9.61Z" fill="#A8AAAD"/><path fill-rule="evenodd" clip-rule="evenodd" d="M15.72 10.77H15.08V8.34H15.68V8.69C15.7442 8.564 15.8366 8.45449 15.95 8.37C16.0328 8.31498 16.1306 8.28704 16.23 8.29001C16.3815 8.29098 16.5299 8.33241 16.66 8.41L16.46 8.97C16.3686 8.90722 16.2608 8.87247 16.15 8.87C16.0705 8.86514 15.9921 8.89011 15.93 8.94C15.849 9.00892 15.7957 9.10482 15.78 9.20999C15.7278 9.47664 15.7076 9.74856 15.72 10.02V10.77Z" fill="#A8AAAD"/><path fill-rule="evenodd" clip-rule="evenodd" d="M19.61 10.77H19V10.42C18.906 10.5464 18.7868 10.652 18.65 10.73C18.5235 10.7961 18.3828 10.8304 18.24 10.83C18.1022 10.8309 17.9659 10.8008 17.8413 10.7419C17.7167 10.6831 17.6069 10.597 17.52 10.49C17.3041 10.2262 17.1968 9.89007 17.22 9.54999C17.1989 9.21178 17.302 8.87749 17.51 8.60999C17.6044 8.50821 17.7189 8.42722 17.8463 8.37213C17.9737 8.31704 18.1112 8.28907 18.25 8.29001C18.3848 8.28997 18.5179 8.32053 18.6391 8.37943C18.7604 8.43832 18.8667 8.52402 18.95 8.63V7.42001H19.59V10.77H19.61ZM17.9 9.51001C17.8868 9.7031 17.9247 9.89627 18.01 10.07C18.0515 10.1481 18.1134 10.2135 18.1891 10.2593C18.2648 10.3051 18.3515 10.3295 18.44 10.33C18.5134 10.3282 18.5855 10.3102 18.6512 10.2774C18.7169 10.2445 18.7745 10.1976 18.82 10.14C18.9312 9.97161 18.9839 9.77132 18.97 9.57001C18.9891 9.35881 18.9362 9.14736 18.82 8.97C18.7766 8.91012 18.7194 8.86157 18.6532 8.82849C18.5871 8.79542 18.5139 8.77879 18.44 8.78C18.3657 8.77914 18.2921 8.79485 18.2247 8.82599C18.1572 8.85713 18.0975 8.9029 18.05 8.95999C17.9404 9.1216 17.8876 9.31511 17.9 9.51001V9.51001Z" fill="#A8AAAD"/><path fill-rule="evenodd" clip-rule="evenodd" d="M22.93 10.77H22.33V10.42C22.2395 10.5496 22.1195 10.6558 21.98 10.73C21.8537 10.7969 21.7128 10.8312 21.57 10.83C21.4322 10.8309 21.2959 10.8008 21.1713 10.7419C21.0467 10.6831 20.9369 10.597 20.85 10.49C20.6341 10.2262 20.5268 9.89007 20.55 9.54999C20.5288 9.21178 20.632 8.87749 20.84 8.60999C20.9344 8.50821 21.0489 8.42722 21.1763 8.37213C21.3037 8.31704 21.4412 8.28907 21.58 8.29001C21.7162 8.28991 21.8508 8.3204 21.9737 8.37924C22.0965 8.43809 22.2046 8.5238 22.29 8.63V7.42001H22.93V10.77V10.77ZM21.21 9.51001C21.1967 9.7031 21.2347 9.89627 21.32 10.07C21.3571 10.1423 21.412 10.2039 21.4794 10.2492C21.5469 10.2945 21.6247 10.3219 21.7056 10.3289C21.7866 10.3359 21.868 10.3223 21.9422 10.2892C22.0164 10.2562 22.081 10.2048 22.13 10.14C22.2447 9.97283 22.3009 9.77245 22.29 9.57001C22.3091 9.35881 22.2562 9.14736 22.14 8.97C22.0941 8.91176 22.0357 8.86468 21.969 8.83231C21.9023 8.79993 21.8291 8.78311 21.755 8.78311C21.6809 8.78311 21.6077 8.79993 21.541 8.83231C21.4743 8.86468 21.4158 8.91176 21.37 8.97C21.2589 9.12761 21.2027 9.31734 21.21 9.51001V9.51001Z" fill="#A8AAAD"/><path fill-rule="evenodd" clip-rule="evenodd" d="M23.86 9.53C23.8586 9.31295 23.9138 9.09928 24.02 8.91001C24.1182 8.71336 24.2756 8.55247 24.47 8.45002C24.665 8.33987 24.8861 8.28458 25.11 8.29001C25.2783 8.28456 25.4458 8.31369 25.6024 8.37562C25.7589 8.43754 25.901 8.53092 26.02 8.65C26.2491 8.89765 26.3764 9.22262 26.3764 9.56C26.3764 9.89739 26.2491 10.2224 26.02 10.47C25.9052 10.589 25.7666 10.6826 25.6133 10.7446C25.46 10.8066 25.2953 10.8357 25.13 10.83C24.9078 10.8315 24.6884 10.7801 24.49 10.68C24.2963 10.5824 24.1361 10.4292 24.03 10.24C23.9163 10.0211 23.8612 9.77651 23.87 9.53H23.86ZM24.52 9.53C24.5086 9.73091 24.5688 9.92934 24.69 10.09C24.7435 10.1498 24.809 10.1977 24.8822 10.2305C24.9554 10.2632 25.0348 10.2802 25.115 10.2802C25.1952 10.2802 25.2746 10.2632 25.3478 10.2305C25.4211 10.1977 25.4865 10.1498 25.54 10.09C25.6612 9.92934 25.7214 9.73091 25.71 9.53C25.7217 9.33215 25.6613 9.13678 25.54 8.98002C25.4884 8.91721 25.4235 8.86659 25.3501 8.83185C25.2766 8.79712 25.1963 8.77912 25.115 8.77912C25.0337 8.77912 24.9535 8.79712 24.88 8.83185C24.8065 8.86659 24.7416 8.91721 24.69 8.98002C24.5616 9.14465 24.5008 9.35208 24.52 9.56V9.53Z" fill="#A8AAAD"/><path fill-rule="evenodd" clip-rule="evenodd" d="M27.06 8.34H27.41V8.16001C27.4046 8.00366 27.4283 7.84767 27.48 7.70001C27.5291 7.59169 27.6138 7.50345 27.72 7.45001C27.861 7.38554 28.015 7.3547 28.17 7.35999C28.3528 7.36185 28.5345 7.38878 28.71 7.44L28.63 7.89002C28.5271 7.87603 28.4229 7.87603 28.32 7.89002C28.2835 7.8856 28.2465 7.8896 28.2119 7.90174C28.1772 7.91387 28.1458 7.9338 28.12 7.95999C28.0699 8.0331 28.0485 8.12212 28.06 8.20999V8.38001H28.54V8.89002H28.06V10.81H27.41V8.89002H27.06V8.38001V8.34ZM28.88 8.01001V7.42002H29.52V8L28.88 8.01001ZM28.88 10.77V8.34H29.52V10.77H28.88Z" fill="#A8AAAD"/><path fill-rule="evenodd" clip-rule="evenodd" d="M32.76 9.05999L32.12 9.17998C32.119 9.12512 32.1065 9.07108 32.0833 9.02138C32.06 8.97169 32.0265 8.92746 31.985 8.89159C31.9434 8.85573 31.8948 8.82904 31.8423 8.81325C31.7897 8.79747 31.7344 8.79294 31.68 8.79998C31.6087 8.79674 31.5377 8.80944 31.4719 8.83712C31.4062 8.8648 31.3475 8.90676 31.3 8.95998C31.1931 9.12622 31.1439 9.32301 31.16 9.51998C31.1402 9.73306 31.1893 9.94688 31.3 10.13C31.3466 10.1882 31.406 10.2348 31.4737 10.266C31.5414 10.2973 31.6155 10.3123 31.69 10.31C31.8002 10.3122 31.9073 10.273 31.99 10.2C32.0818 10.1 32.1411 9.97444 32.16 9.83999L32.79 9.95C32.7752 10.0827 32.734 10.211 32.6689 10.3275C32.6037 10.444 32.5159 10.5463 32.4106 10.6283C32.3053 10.7103 32.1846 10.7704 32.0557 10.805C31.9268 10.8397 31.7922 10.8482 31.66 10.83C31.5047 10.8369 31.3496 10.8111 31.2049 10.7542C31.0602 10.6974 30.9291 10.6108 30.82 10.5C30.7072 10.3722 30.6209 10.2233 30.5659 10.062C30.511 9.90066 30.4886 9.73004 30.5 9.55999C30.4877 9.39139 30.5097 9.22204 30.5647 9.06219C30.6197 8.90234 30.7065 8.75532 30.82 8.63C30.9297 8.51374 31.0635 8.42304 31.2122 8.36428C31.3608 8.30552 31.5205 8.28016 31.68 8.29C31.9278 8.27544 32.1736 8.34215 32.38 8.48C32.5648 8.62827 32.6979 8.83133 32.76 9.05999V9.05999Z" fill="#A8AAAD"/><path fill-rule="evenodd" clip-rule="evenodd" d="M33.7 8V7.41H34.34V8H33.7ZM33.7 10.76V8.32999H34.34V10.76H33.7Z" fill="#A8AAAD"/><path fill-rule="evenodd" clip-rule="evenodd" d="M35.93 9.09001L35.35 8.99C35.3941 8.77745 35.5152 8.58869 35.69 8.46C35.9042 8.33337 36.1516 8.27415 36.4 8.29002C36.6181 8.27602 36.8366 8.31016 37.04 8.39002C37.1647 8.44329 37.2696 8.53417 37.34 8.65C37.4042 8.83281 37.4314 9.02659 37.42 9.22001V10C37.4059 10.1597 37.4059 10.3203 37.42 10.48C37.4438 10.5921 37.4843 10.6999 37.54 10.8H36.9C36.8726 10.7392 36.8525 10.6755 36.84 10.61V10.54C36.74 10.642 36.6211 10.7235 36.49 10.78C36.3643 10.8363 36.2276 10.8636 36.09 10.86C35.875 10.8714 35.6638 10.7998 35.5 10.66C35.4277 10.5946 35.3706 10.5141 35.3326 10.4243C35.2946 10.3345 35.2766 10.2375 35.28 10.14C35.2774 10.0128 35.3122 9.88764 35.38 9.78001C35.448 9.67206 35.5451 9.58542 35.66 9.53001C35.8213 9.45418 35.9933 9.4036 36.17 9.38002C36.3819 9.34957 36.5898 9.29591 36.79 9.22001V9.16001C36.7948 9.11122 36.7892 9.06196 36.7737 9.01545C36.7582 8.96894 36.7331 8.92622 36.7 8.89002C36.5947 8.82701 36.4722 8.79899 36.35 8.81001C36.2549 8.80416 36.1603 8.82867 36.08 8.88002C36.0099 8.94556 35.9582 9.02829 35.93 9.12001V9.09001ZM36.79 9.61L36.4 9.71C36.278 9.72663 36.1596 9.76384 36.05 9.82002C36.0117 9.84532 35.9799 9.87937 35.9573 9.91935C35.9347 9.95934 35.9219 10.0041 35.92 10.05C35.9228 10.1366 35.9586 10.2189 36.02 10.28C36.0542 10.3136 36.0949 10.3398 36.1396 10.357C36.1844 10.3742 36.2321 10.382 36.28 10.38C36.4006 10.3795 36.5172 10.3371 36.61 10.26C36.6482 10.2373 36.6813 10.207 36.7071 10.1708C36.7329 10.1347 36.751 10.0935 36.76 10.05C36.7761 9.94729 36.7761 9.84271 36.76 9.74L36.79 9.61Z" fill="#A8AAAD"/><path d="M39.15 7.42001H38.51V10.77H39.15V7.42001Z" fill="#A8AAAD"/><path fill-rule="evenodd" clip-rule="evenodd" d="M6.89 10C6.8874 10.222 6.79807 10.4341 6.6411 10.5911C6.48413 10.7481 6.27198 10.8374 6.05 10.84H4.25C4.02802 10.8374 3.81587 10.7481 3.6589 10.5911C3.50193 10.4341 3.4126 10.222 3.41 10V8.20001C3.4126 7.97804 3.50193 7.76586 3.6589 7.60889C3.81587 7.45192 4.02802 7.36258 4.25 7.35999H6.05C6.27198 7.36258 6.48413 7.45192 6.6411 7.60889C6.79807 7.76586 6.8874 7.97804 6.89 8.20001V10ZM5.15 9.78C5.23967 9.78135 5.3287 9.76468 5.41181 9.73099C5.49492 9.69729 5.57042 9.64725 5.63384 9.58383C5.69725 9.52042 5.74729 9.44493 5.78099 9.36182C5.81468 9.27871 5.83135 9.18968 5.83 9.10001C5.83133 9.00987 5.81472 8.92036 5.78114 8.8367C5.74756 8.75304 5.69768 8.67691 5.6344 8.6127C5.57113 8.54849 5.49572 8.4975 5.41256 8.46271C5.3294 8.42791 5.24015 8.40999 5.15 8.41C4.967 8.41 4.7915 8.48269 4.6621 8.61209C4.5327 8.74149 4.46 8.91701 4.46 9.10001C4.45999 9.19015 4.4779 9.27939 4.5127 9.36255C4.5475 9.44571 4.59848 9.52114 4.66269 9.58441C4.7269 9.64769 4.80304 9.69756 4.8867 9.73114C4.97036 9.76472 5.05986 9.78132 5.15 9.78V9.78ZM5.15 8.01001C4.99876 7.99547 4.84616 8.01269 4.70198 8.06061C4.55779 8.10852 4.42522 8.18607 4.31277 8.28824C4.20031 8.3904 4.11046 8.51493 4.04897 8.65387C3.98748 8.79281 3.95572 8.94307 3.95572 9.095C3.95572 9.24694 3.98748 9.3972 4.04897 9.53613C4.11046 9.67507 4.20031 9.7996 4.31277 9.90176C4.42522 10.0039 4.55779 10.0815 4.70198 10.1294C4.84616 10.1773 4.99876 10.1945 5.15 10.18C5.41979 10.1541 5.67024 10.0285 5.85249 9.82794C6.03474 9.62733 6.13572 9.36603 6.13572 9.095C6.13572 8.82397 6.03474 8.56267 5.85249 8.36206C5.67024 8.16145 5.41979 8.03594 5.15 8.01001V8.01001ZM6.53 8.01001C6.53197 7.95779 6.51816 7.90616 6.49037 7.86191C6.46258 7.81765 6.4221 7.78281 6.3742 7.7619C6.3263 7.741 6.27322 7.73501 6.22187 7.74472C6.17052 7.75443 6.12329 7.77939 6.08634 7.81635C6.04938 7.8533 6.02442 7.90052 6.01471 7.95187C6.005 8.00322 6.01099 8.05629 6.0319 8.10419C6.0528 8.15208 6.08766 8.19258 6.13192 8.22037C6.17617 8.24816 6.22778 8.26198 6.28 8.26001C6.3463 8.26001 6.40989 8.23365 6.45678 8.18677C6.50366 8.13988 6.53 8.07631 6.53 8.01001ZM6.07 7.01001H4.22C3.90605 7.00192 3.60162 7.11826 3.37309 7.33368C3.14456 7.5491 3.01045 7.84612 3 8.16V10C3 10.3156 3.12537 10.6183 3.34854 10.8415C3.57171 11.0646 3.87439 11.19 4.19 11.19H6.07C6.38561 11.19 6.68829 11.0646 6.91146 10.8415C7.13463 10.6183 7.26 10.3156 7.26 10V8.16C7.25217 7.84962 7.12335 7.55458 6.90103 7.33786C6.6787 7.12114 6.38048 6.9999 6.07 7V7.01001Z" fill="#E5E6E7"/><path fill-rule="evenodd" clip-rule="evenodd" d="M121.75 5.85999H122.2V6H121.83V6.37H121.67V5.84L121.75 5.85999ZM124.83 6.64001H125.55L125.98 7.35001L126.4 6.64001H127.12L126.3 7.85999V8.51001H125.65V7.85999L124.83 6.64001V6.64001ZM125.64 8.64001H125.83H125.64ZM126.28 9.28V9.17001H126.2H126.26H126.32L126.28 9.28ZM126.09 9.28H126.03V9.23001V9.28H126.09ZM125.96 9.28H125.88V9.23001V9.17999V9.23001V9.28H125.96ZM125.85 9.28V9.12V9.25H125.72V9.12V9.28H125.88H125.85ZM125.98 9.23001V9.29001V9.23001ZM126.14 9.23001H126H126.08H126.02H126.14ZM125.8 9.23001V9.14999H125.88V9.23001H125.8ZM126.33 9.17001H126.27V9.10999H126.33V9.17001ZM126.22 9.17001V9.09H126V9.14001V9.09H126.08V9.14001L126.22 9.17001ZM126.06 9.17001H126H125.9H125.84H125.9H126.06ZM125.93 9.17001H125.77H125.96H125.93ZM125.93 9.12H125.85H125.93ZM126.46 9.12V9H126.33H126.39L126.46 9.12ZM126.19 9.12V9V9.04999V9.12ZM126.06 9.12V9V9.04999V9.12ZM126.06 9.12H126H126.13V9.17001L126.06 9.12ZM125.87 9.12V9H125.93L125.87 9.12ZM126.48 9.07001H126.4V9.01001V9H126V8.87H126.14V9L126.48 9.07001ZM126.4 9.07001V9H126.46L126.4 9.07001ZM126.24 9.07001H126.19H126.13V9H126.19L126.24 9.07001ZM126.05 9.07001V9.01999H125.97V9H126.03L126.05 9.07001ZM126.61 8.98999H126.55H126.61ZM126.29 8.98999H126H126.29ZM126.37 8.94V8.85999V8.91V8.95999V8.89999V8.98001V8.94ZM126.16 8.94H126.22H126.16ZM126.08 8.94H126.14H126.08ZM126.42 8.88V8.95999V8.88ZM126.69 8.88V8.78V8.85999H126.55V8.78V8.88H126.71H126.69ZM126.47 8.88V8.79999V8.89999V8.88ZM126.21 8.88V8.78V8.85999H126.08V8.78V8.88H126.24H126.21ZM126.63 8.88V8.82999H126.71V8.88H126.63ZM126.16 8.88V8.82999H126.24V8.88H126.16ZM126.69 8.82999V8.76999V8.82999ZM126.63 8.82999H126.71H126.63ZM126.53 8.82999V8.76999V8.82999ZM126.47 8.82999V8.89001V8.82999ZM126.4 8.82999V8.76999H126L126.4 8.82999ZM126.21 8.82999V8.76999V8.82999ZM126.21 8.82999H126.29H126.21ZM126.1 8.82999V8.76999V8.82999ZM126.74 8.76999H126.56H126.72H126.74ZM126.39 8.76999H126.28H126.36H126.39ZM125.57 9.56H127V10H125.71V10.33H127V10.74H125.79V11.15H127.11V11.61H125.11V9.60999L125.57 9.56ZM123.12 9.56H123.95L124.27 10.81L124.59 9.56H125V11.56H124.48V10L124.08 11.56H123.61L123.21 10V11.56H122.7V9.56H123.12ZM123.12 7.35999V9.41H123.63V7.85001L124.03 9.41H124L124.4 7.85001V9.41H125V7.35999H124.17L123.85 8.60999L123.53 7.35999H123.12ZM128.03 5.95001H128.56V6.48001H128V6H127.62V5.84L128.03 5.95001ZM128.56 11.86V12.39H128.03V12.23H128V11.86H128.56ZM122.66 12.39H122.13V11.86H122.29V12.23H122.66V12.39Z" fill="#A8AAAD"/></svg>