<svg class="has" viewBox="0 0 8 10" fill="none" xmlns="http://www.w3.org/2000/svg"><path opacity="0.62" fill-rule="evenodd" clip-rule="evenodd" d="M2.77 7.99999C2.87969 7.9703 2.97316 7.8984 3.03 7.8L5.38 3.58999C5.39005 3.56427 5.39005 3.53571 5.38 3.50999C5.38468 3.49026 5.38468 3.46972 5.38 3.44999L4.86 3.16C4.84189 3.14451 4.81883 3.13598 4.795 3.13598C4.77116 3.13598 4.74811 3.14451 4.73 3.16L2.61 6.99999C2.57781 7.05381 2.53248 7.09856 2.47826 7.13004C2.42403 7.16153 2.36269 7.17871 2.3 7.17999C2.24425 7.19438 2.18576 7.19438 2.13 7.17999C2.04904 7.1337 1.98919 7.05781 1.96307 6.96827C1.93696 6.87874 1.94662 6.78255 1.99001 6.69999L4.07001 2.97999C4.1211 2.88794 4.18984 2.80688 4.27232 2.74145C4.3548 2.67602 4.44938 2.62752 4.55064 2.59872C4.65191 2.56992 4.75786 2.56139 4.86243 2.57362C4.96699 2.58585 5.06812 2.6186 5.16 2.66999L5.69 2.96C5.87126 3.06797 6.00651 3.2388 6.07001 3.44C6.1246 3.64594 6.09586 3.8651 5.99001 4.05L3.64 8.25999C3.48978 8.52565 3.24247 8.72279 2.95 8.80999L2.28999 8.99C2.18053 9.00533 2.06947 9.00533 1.96001 8.99C1.68826 8.98938 1.4241 8.90021 1.20756 8.736C0.991033 8.5718 0.83391 8.3415 0.759994 8.08L0.580001 7.44C0.50032 7.14685 0.539866 6.83409 0.690002 6.57L2.03999 4.14999L3.46001 1.58999C3.53189 1.45751 3.63022 1.34122 3.74892 1.24833C3.86761 1.15544 4.00412 1.08793 4.14999 1.05L5.53999 0.649988C5.86088 0.560681 6.20409 0.602068 6.49455 0.765101C6.78501 0.928133 6.99909 1.19956 7.09 1.52L7.48 2.91C7.56271 3.20184 7.52677 3.51453 7.38 3.77999L6 6.27999C5.96935 6.33516 5.92437 6.38101 5.8698 6.4127C5.81523 6.44439 5.7531 6.46073 5.69 6.46C5.63012 6.45735 5.57178 6.44019 5.52 6.41C5.47979 6.38717 5.44449 6.3566 5.41615 6.32006C5.38782 6.28352 5.36702 6.24172 5.35493 6.19709C5.34285 6.15246 5.33971 6.10588 5.34573 6.06004C5.35175 6.01419 5.3668 5.96999 5.39 5.92999L6.82001 3.36999C6.85989 3.26361 6.85989 3.14637 6.82001 3.03999L6.42 1.64999C6.40151 1.58071 6.36941 1.51582 6.32558 1.45909C6.28174 1.40235 6.22704 1.3549 6.16467 1.31953C6.1023 1.28416 6.0335 1.26157 5.96231 1.25306C5.89112 1.24456 5.81894 1.25031 5.75 1.27L4.35001 1.66C4.24008 1.69492 4.14727 1.76987 4.09 1.86999L2.59 4.57L1.32001 6.85C1.28812 6.89993 1.26638 6.95567 1.25609 7.01402C1.24579 7.07236 1.24712 7.13216 1.25999 7.19L1.45 7.83C1.46849 7.89927 1.50059 7.96418 1.54443 8.02091C1.58827 8.07765 1.64297 8.12508 1.70534 8.16046C1.76771 8.19583 1.83649 8.21843 1.90768 8.22694C1.97888 8.23544 2.05105 8.22969 2.11999 8.21L2.77 7.99999Z" fill="#4D4D4D"/></svg>