<svg xmlns="http://www.w3.org/2000/svg" viewBox="0 0 33.01 3.26"><defs><style>.cls-1{fill:#e6e7e8;}.cls-1,.cls-2{fill-rule:evenodd;}.cls-2{fill:#fff;}</style></defs><g id="Camada_2" data-name="Camada 2"><g id="Camada_1-2" data-name="Camada 1"><path class="cls-1" d="M3,2.32A.65.65,0,0,1,2.32,3H.94a.65.65,0,0,1-.65-.65V.94A.65.65,0,0,1,.94.29H2.32A.65.65,0,0,1,3,.94V2.32ZM1.63,2.16a.53.53,0,1,0-.53-.53.53.53,0,0,0,.53.53Zm0-1.37a.85.85,0,0,0-.84.84.84.84,0,0,0,.84.83.83.83,0,0,0,.83-.83A.84.84,0,0,0,1.63.79Zm1.06,0A.2.2,0,0,0,2.5.56a.2.2,0,0,0-.2.19.2.2,0,1,0,.39,0ZM2.34,0H.92A.92.92,0,0,0,0,.92V2.34a.92.92,0,0,0,.92.92H2.34a.92.92,0,0,0,.92-.92V.92A.92.92,0,0,0,2.34,0Z"/><path class="cls-2" d="M4.26,3.06V.32h.56V1.4H5.9V.32h.55V3.06H5.9V1.86H4.82v1.2Zm5.24,0H8.9l-.24-.62H7.57l-.23.62H6.75L7.81.32H8.4L9.5,3.06ZM8.48,2,8.1,1,7.73,2ZM9.8,3.06V.32H11A2,2,0,0,1,11.6.4a.58.58,0,0,1,.32.26.77.77,0,0,1,.12.43.72.72,0,0,1-.18.51.86.86,0,0,1-.54.25,1.18,1.18,0,0,1,.29.23,2.85,2.85,0,0,1,.32.45l.33.53H11.6l-.4-.6c-.14-.21-.24-.34-.29-.4A.45.45,0,0,0,10.74,2a.94.94,0,0,0-.28,0h-.11V3.06Zm.55-1.58h.41a2.39,2.39,0,0,0,.5,0,.26.26,0,0,0,.15-.12.32.32,0,0,0,.06-.2A.34.34,0,0,0,11.39.9a.3.3,0,0,0-.2-.11h-.84v.7ZM12.56.32h1a2.21,2.21,0,0,1,.52,0,.85.85,0,0,1,.41.26,1.09,1.09,0,0,1,.27.44,2.4,2.4,0,0,1,.08.65,1.69,1.69,0,0,1-.08.58,1.39,1.39,0,0,1-.29.49,1,1,0,0,1-.39.21,1.63,1.63,0,0,1-.49.06h-1V.32Zm.56.46V2.6h.41a1.31,1.31,0,0,0,.33,0,.51.51,0,0,0,.22-.11.56.56,0,0,0,.15-.27,1.71,1.71,0,0,0,0-.5,1.63,1.63,0,0,0,0-.49.61.61,0,0,0-.16-.26.55.55,0,0,0-.25-.13,2.25,2.25,0,0,0-.46,0ZM15.33.32h1a2.27,2.27,0,0,1,.52,0,.9.9,0,0,1,.41.26,1.2,1.2,0,0,1,.26.44,2,2,0,0,1,.09.65,2,2,0,0,1-.08.58,1.27,1.27,0,0,1-.3.49.9.9,0,0,1-.39.21,1.56,1.56,0,0,1-.48.06h-1V.32Zm.55.46V2.6h.41a1.35,1.35,0,0,0,.34,0,.51.51,0,0,0,.22-.11A.49.49,0,0,0,17,2.19a1.66,1.66,0,0,0,.06-.5A1.59,1.59,0,0,0,17,1.2a.6.6,0,0,0-.15-.26.53.53,0,0,0-.26-.13,2.13,2.13,0,0,0-.45,0Zm2.1.93A1.85,1.85,0,0,1,18.1,1a1.18,1.18,0,0,1,.26-.37,1,1,0,0,1,.35-.25A1.55,1.55,0,0,1,19.3.27a1.28,1.28,0,0,1,1,.38,1.42,1.42,0,0,1,.37,1,1.45,1.45,0,0,1-.36,1,1.29,1.29,0,0,1-1,.37,1.27,1.27,0,0,1-1-.37,1.42,1.42,0,0,1-.36-1Zm.57,0a1.06,1.06,0,0,0,.21.71.72.72,0,0,0,.55.24.68.68,0,0,0,.54-.24,1,1,0,0,0,.22-.72,1,1,0,0,0-.21-.7.77.77,0,0,0-1.1,0,1,1,0,0,0-.21.71Zm2.52,1.37V.32H23V.78H21.63v.66h1.14V1.9H21.63V3.06Zm2.32,0V.32H24V3.06Zm2.84-1,.53.17a1.22,1.22,0,0,1-.41.67,1.13,1.13,0,0,1-.73.22,1.19,1.19,0,0,1-.89-.37,1.42,1.42,0,0,1-.36-1A1.48,1.48,0,0,1,24.73.65a1.21,1.21,0,0,1,.93-.38,1.11,1.11,0,0,1,.81.3,1.14,1.14,0,0,1,.29.51l-.55.13A.56.56,0,0,0,26,.87a.62.62,0,0,0-.38-.12.66.66,0,0,0-.5.21,1.14,1.14,0,0,0-.19.71,1.15,1.15,0,0,0,.19.74.61.61,0,0,0,.49.22A.53.53,0,0,0,26,2.49a.87.87,0,0,0,.23-.44Zm1,1V.32h.55V3.06Zm3.55,0h-.6l-.23-.62h-1.1l-.23.62H28L29.09.32h.58l1.1,2.74ZM29.76,2l-.38-1L29,2Zm1.32,1.08V.34h.56V2.6H33v.46Z"/></g></g></svg>