<svg width="221" viewBox="0 0 72 16" fill="none" xmlns="http://www.w3.org/2000/svg">
<path fill-rule="evenodd" clip-rule="evenodd" d="M32 10.97V5.9H33.64C34.045 5.88416 34.4506 5.91098 34.85 5.98C35.144 6.05696 35.402 6.23371 35.58 6.48C35.7942 6.76785 35.9003 7.1218 35.88 7.48C35.8861 7.75302 35.8279 8.02366 35.71 8.27001C35.605 8.46613 35.4582 8.63682 35.28 8.77001C35.121 8.88428 34.9408 8.96585 34.75 9.01C34.399 9.0611 34.0446 9.08451 33.69 9.08H33V10.97H32ZM33 6.76V8.2H33.55C33.8226 8.21906 34.0964 8.19201 34.36 8.12C34.4903 8.07236 34.6023 7.98489 34.68 7.87C34.7538 7.75344 34.792 7.61792 34.79 7.48C34.7983 7.31172 34.7409 7.14681 34.63 7.02001C34.5211 6.90194 34.3775 6.82142 34.22 6.79001C33.9769 6.77384 33.7331 6.77384 33.49 6.79001L33 6.76Z" fill="#FDFDFD"/>
<path fill-rule="evenodd" clip-rule="evenodd" d="M36.7 10.93V5.86H40.45V6.72H37.72V7.84H40.26V8.7H37.72V10.07H40.55V10.93H36.7Z" fill="#FDFDFD"/>
<path fill-rule="evenodd" clip-rule="evenodd" d="M41.15 9.29001L42.15 9.19001C42.1805 9.47021 42.3121 9.72971 42.52 9.92C42.7283 10.0892 42.9921 10.1747 43.26 10.16C43.5212 10.1837 43.7825 10.1166 44 9.97001C44.0755 9.91206 44.1371 9.83801 44.1803 9.75324C44.2236 9.66848 44.2474 9.57513 44.25 9.48C44.2501 9.36708 44.2113 9.25758 44.14 9.17C44.0393 9.07121 43.9156 8.99905 43.78 8.96001C43.66 8.91001 43.39 8.84 42.96 8.73C42.5427 8.6559 42.1488 8.48461 41.81 8.23C41.6659 8.10624 41.5502 7.95283 41.4708 7.78025C41.3914 7.60767 41.3502 7.41997 41.35 7.23C41.3487 6.97015 41.4253 6.71588 41.57 6.50001C41.7228 6.26949 41.9427 6.09147 42.2 5.99001C42.5169 5.86021 42.8577 5.79887 43.2 5.81C43.7118 5.77231 44.2199 5.92154 44.63 6.23C44.7893 6.37163 44.9164 6.54579 45.0027 6.74073C45.0889 6.93567 45.1323 7.14685 45.13 7.36001H44.13C44.1081 7.14255 44.0087 6.94023 43.85 6.79002C43.6622 6.66231 43.4364 6.60234 43.21 6.62C42.965 6.60226 42.7214 6.66935 42.52 6.81C42.4674 6.84269 42.4241 6.88839 42.3943 6.94269C42.3645 6.997 42.3493 7.05807 42.35 7.12C42.35 7.1807 42.3645 7.24052 42.3923 7.29446C42.4202 7.34839 42.4605 7.39488 42.51 7.43001C42.7955 7.60165 43.1111 7.71706 43.44 7.77001C43.8189 7.84862 44.1879 7.96937 44.54 8.13001C44.771 8.24849 44.9648 8.42842 45.1 8.65C45.2442 8.89559 45.3202 9.17523 45.3202 9.46001C45.3202 9.7448 45.2442 10.0244 45.1 10.27C44.9346 10.523 44.698 10.7213 44.42 10.84C44.0682 10.9696 43.6948 11.0307 43.32 11.02C42.79 11.0543 42.2652 10.8982 41.84 10.58C41.4496 10.2572 41.2018 9.7939 41.15 9.29001Z" fill="#FDFDFD"/>
<path fill-rule="evenodd" clip-rule="evenodd" d="M45.86 9.29001L46.86 9.19001C46.8905 9.47021 47.0221 9.72971 47.23 9.92C47.4343 10.0894 47.6951 10.1751 47.96 10.16C48.2267 10.1785 48.4917 10.1043 48.71 9.95C48.7855 9.89205 48.8471 9.818 48.8903 9.73324C48.9336 9.64847 48.9574 9.55514 48.96 9.46001C48.9601 9.34709 48.9213 9.23757 48.85 9.15C48.7467 9.04941 48.6193 8.9771 48.48 8.94001C48.2142 8.84932 47.9438 8.77255 47.67 8.71001C47.2521 8.63813 46.8576 8.46662 46.52 8.21001C46.3759 8.08625 46.2602 7.93283 46.1808 7.76025C46.1014 7.58766 46.0602 7.39998 46.06 7.21001C46.0598 6.95175 46.1326 6.69868 46.27 6.48C46.4276 6.25395 46.6461 6.07714 46.9 5.97001C47.2176 5.84273 47.5579 5.7815 47.9 5.79002C48.4118 5.75233 48.9199 5.90155 49.33 6.21001C49.4893 6.35164 49.6164 6.5258 49.7026 6.72074C49.7889 6.91568 49.8323 7.12685 49.83 7.34H48.83C48.8011 7.12463 48.7028 6.92454 48.55 6.77001C48.3622 6.6423 48.1364 6.58235 47.91 6.60001C47.662 6.58395 47.4158 6.65079 47.21 6.79002C47.1599 6.82455 47.1191 6.87089 47.0912 6.92496C47.0632 6.97904 47.0491 7.03917 47.05 7.10001C47.0503 7.15959 47.064 7.21835 47.0899 7.27198C47.1159 7.32561 47.1535 7.37277 47.2 7.41001C47.4893 7.58108 47.8082 7.6964 48.14 7.75001C48.5185 7.83025 48.8873 7.95095 49.24 8.11001C49.471 8.22849 49.6647 8.40843 49.8 8.63001C49.9385 8.87703 50.0076 9.15691 50 9.44001C50.001 9.72768 49.9175 10.0093 49.76 10.25C49.5946 10.503 49.358 10.7014 49.08 10.82C48.7246 10.9494 48.348 11.0105 47.97 11C47.4432 11.0336 46.9217 10.8775 46.5 10.56C46.1383 10.2294 45.9105 9.77746 45.86 9.29001Z" fill="#FDFDFD"/>
<path fill-rule="evenodd" clip-rule="evenodd" d="M50.64 8.43001C50.628 7.98559 50.7063 7.54335 50.87 7.13001C50.9864 6.87203 51.1453 6.63541 51.34 6.43001C51.5278 6.23499 51.752 6.0787 52 5.97C52.3466 5.83216 52.717 5.76419 53.09 5.77001C53.4208 5.75394 53.7513 5.808 54.0598 5.92864C54.3683 6.04927 54.6478 6.23376 54.88 6.47C55.1138 6.73137 55.2934 7.03655 55.4084 7.36785C55.5235 7.69915 55.5716 8.04997 55.55 8.4C55.5897 9.10473 55.3529 9.79717 54.89 10.33C54.3992 10.7734 53.7614 11.0189 53.1 11.0189C52.4386 11.0189 51.8007 10.7734 51.31 10.33C51.077 10.0741 50.8977 9.77415 50.7827 9.44782C50.6676 9.12148 50.6191 8.77541 50.64 8.43001ZM51.64 8.43001C51.6087 8.9009 51.751 9.36693 52.04 9.74001C52.1639 9.88259 52.3178 9.99598 52.4907 10.0721C52.6636 10.1481 52.8512 10.185 53.04 10.18C53.2289 10.1857 53.4167 10.1492 53.5897 10.073C53.7627 9.99691 53.9165 9.88314 54.04 9.74001C54.2915 9.34937 54.4252 8.8946 54.4252 8.43001C54.4252 7.96542 54.2915 7.51063 54.04 7.12C53.774 6.85619 53.4146 6.70816 53.04 6.70816C52.6654 6.70816 52.3059 6.85619 52.04 7.12C51.7772 7.48881 51.6532 7.93864 51.69 8.39L51.64 8.43001Z" fill="#FDFDFD"/>
<path fill-rule="evenodd" clip-rule="evenodd" d="M60.91 10.97H59.81L59.37 9.82001H57.37L56.95 10.97H55.87L57.87 5.89999H58.96L60.96 10.97H60.91ZM59 8.97L58.3 7.10001L57.61 8.97H59Z" fill="#FDFDFD"/>
<path fill-rule="evenodd" clip-rule="evenodd" d="M10.82 9.29001C10.5185 9.29199 10.2233 9.20427 9.97178 9.03801C9.72029 8.87175 9.52392 8.63446 9.40764 8.35631C9.29136 8.07816 9.26041 7.77172 9.31874 7.47594C9.37708 7.18016 9.52204 6.90841 9.73522 6.69524C9.94839 6.48206 10.2202 6.33709 10.5159 6.27876C10.8117 6.22043 11.1182 6.25136 11.3963 6.36765C11.6744 6.48393 11.9117 6.6803 12.078 6.93179C12.2442 7.18328 12.332 7.47853 12.33 7.78C12.33 8.18048 12.1709 8.56455 11.8877 8.84773C11.6045 9.13091 11.2205 9.29001 10.82 9.29001ZM8.06999 8.46001H8.29999C8.24979 8.27375 8.21962 8.08266 8.20999 7.89H8.06999C7.93188 7.88877 7.79435 7.872 7.65999 7.84C7.26216 7.78563 6.90223 7.57546 6.65937 7.25571C6.41651 6.93596 6.31062 6.53282 6.36499 6.13499C6.41936 5.73717 6.62953 5.37724 6.94928 5.13438C7.26903 4.89152 7.67216 4.78563 8.06999 4.84C8.4017 4.84354 8.72378 4.95206 8.98999 5.14999C9.13588 5.26448 9.26103 5.40316 9.35999 5.56C9.51104 5.45774 9.67182 5.37065 9.83999 5.3C9.74668 5.13618 9.62862 4.98776 9.48999 4.86C9.28273 4.66449 9.03717 4.51411 8.76883 4.41835C8.50048 4.32259 8.21519 4.28353 7.93098 4.30365C7.64678 4.32377 7.36983 4.40262 7.11765 4.53523C6.86548 4.66784 6.64355 4.85133 6.4659 5.07408C6.28826 5.29684 6.15875 5.55402 6.08556 5.82938C6.01238 6.10474 5.99711 6.39228 6.04073 6.67384C6.08434 6.9554 6.18589 7.22487 6.33895 7.46518C6.49202 7.70549 6.69327 7.91144 6.92999 8.07001C6.29668 8.30162 5.74983 8.72223 5.36349 9.27492C4.97714 9.82761 4.76996 10.4857 4.76999 11.16H5.31999C5.32246 10.4896 5.56977 9.8431 6.01543 9.34219C6.46108 8.84129 7.07438 8.52045 7.73999 8.44C7.84977 8.43012 7.96021 8.43012 8.06999 8.44V8.46001ZM14.71 8.12C14.9467 7.96143 15.148 7.75548 15.301 7.51517C15.4541 7.27485 15.5556 7.00541 15.5993 6.72385C15.6429 6.44229 15.6276 6.15474 15.5544 5.87938C15.4812 5.60402 15.3517 5.34684 15.1741 5.12408C14.9964 4.90133 14.7745 4.71785 14.5223 4.58524C14.2701 4.45262 13.9932 4.37376 13.709 4.35364C13.4248 4.33352 13.1395 4.37258 12.8712 4.46834C12.6028 4.5641 12.3572 4.7145 12.15 4.91C12.0112 5.04025 11.8902 5.18819 11.79 5.35001C11.9623 5.41852 12.1266 5.50571 12.28 5.61C12.3759 5.45089 12.5015 5.3117 12.65 5.2C12.9152 5.00018 13.2379 4.89144 13.57 4.89C13.9678 4.83563 14.3709 4.94153 14.6907 5.18439C15.0104 5.42725 15.2206 5.78717 15.275 6.185C15.3294 6.58282 15.2235 6.98596 14.9806 7.30571C14.7377 7.62546 14.3778 7.83563 13.98 7.89C13.8456 7.922 13.7081 7.93878 13.57 7.94H13.43C13.417 8.13302 13.3835 8.32409 13.33 8.50999H13.57C13.6798 8.50011 13.7902 8.50011 13.9 8.50999C14.5656 8.59045 15.1789 8.9113 15.6245 9.4122C16.0702 9.9131 16.3175 10.5595 16.32 11.23H16.87C16.87 10.5557 16.6628 9.89761 16.2765 9.34493C15.8901 8.79224 15.3433 8.37161 14.71 8.14V8.12ZM12 9.5C12.2965 9.30302 12.5368 9.03259 12.6977 8.71506C12.8585 8.39753 12.9343 8.04374 12.9177 7.68819C12.9012 7.33263 12.7927 6.98744 12.603 6.68626C12.4133 6.38509 12.1488 6.13821 11.8353 5.9697C11.5218 5.80118 11.1699 5.71677 10.8141 5.7247C10.4582 5.73264 10.1105 5.83264 9.80479 6.01497C9.49909 6.19729 9.24584 6.45572 9.06975 6.76505C8.89365 7.07438 8.80071 7.42406 8.79999 7.78C8.7993 8.12039 8.88296 8.45565 9.04351 8.7558C9.20405 9.05595 9.43647 9.31163 9.71999 9.5C9.08668 9.73161 8.53983 10.1522 8.15348 10.7049C7.76714 11.2576 7.55996 11.9157 7.55999 12.59H8.10999C8.10999 11.8607 8.39972 11.1612 8.91544 10.6455C9.43117 10.1297 10.1306 9.84 10.86 9.84C11.5893 9.84 12.2888 10.1297 12.8045 10.6455C13.3203 11.1612 13.61 11.8607 13.61 12.59H14.16C14.16 11.9157 13.9528 11.2576 13.5665 10.7049C13.1801 10.1522 12.6333 9.73161 12 9.5Z" fill="#FDFDFD"/>
<path d="M68.81 1.27H3.18C1.62808 1.27 0.369995 2.52808 0.369995 4.08V12.71C0.369995 14.2619 1.62808 15.52 3.18 15.52H68.81C70.3619 15.52 71.62 14.2619 71.62 12.71V4.08C71.62 2.52808 70.3619 1.27 68.81 1.27Z" stroke="#FDFDFD" stroke-width="0.57" stroke-miterlimit="22.93"/>
<path d="M21.31 3.45L21.35 13.31" stroke="#E5E6E7" stroke-width="0.57" stroke-linecap="round" stroke-linejoin="round"/>
</svg>
