<svg width="221" viewBox="0 0 72 16" fill="none" xmlns="http://www.w3.org/2000/svg">
<path fill-rule="evenodd" clip-rule="evenodd" d="M30 7.80002C29.9889 7.35566 30.0671 6.91359 30.23 6.50002C30.3501 6.2417 30.5123 6.00514 30.71 5.80002C30.8946 5.60827 31.1155 5.45528 31.36 5.35003C31.7054 5.20815 32.0767 5.14001 32.45 5.15001C32.7814 5.13435 33.1125 5.18759 33.4223 5.30635C33.7321 5.42512 34.014 5.60683 34.25 5.84002C34.7181 6.37438 34.9586 7.07067 34.92 7.78002C34.9413 8.1285 34.8931 8.47775 34.7781 8.80739C34.663 9.13704 34.4835 9.44048 34.25 9.70002C33.7624 10.1498 33.1234 10.3995 32.46 10.3995C31.7966 10.3995 31.1576 10.1498 30.67 9.70002C30.4389 9.44289 30.2608 9.14274 30.1458 8.81672C30.0309 8.4907 29.9813 8.14521 30 7.80002ZM31.06 7.80002C31.0265 8.26649 31.1652 8.72905 31.45 9.10003C31.5743 9.24283 31.728 9.35701 31.9006 9.4347C32.0733 9.51238 32.2607 9.55172 32.45 9.55002C32.6386 9.55364 32.8258 9.51616 32.9985 9.44017C33.1711 9.36419 33.3252 9.25153 33.45 9.11002C33.7344 8.72734 33.8727 8.25567 33.84 7.78002C33.8783 7.31462 33.7429 6.85152 33.46 6.48002C33.3343 6.34032 33.1798 6.22954 33.0072 6.15531C32.8345 6.08107 32.6479 6.04516 32.46 6.05002C32.2716 6.04773 32.0848 6.08581 31.9123 6.1617C31.7399 6.2376 31.5856 6.34955 31.46 6.49003C31.1869 6.85926 31.0492 7.31123 31.07 7.77002L31.06 7.80002Z" fill="#FDFDFD"/>
<path fill-rule="evenodd" clip-rule="evenodd" d="M35.73 5.24001H37.73C38.0296 5.21898 38.3304 5.21898 38.63 5.24001C38.8207 5.26753 39.0022 5.33946 39.16 5.45C39.3192 5.55974 39.4523 5.70312 39.55 5.87C39.6608 6.05782 39.7193 6.27192 39.7193 6.49001C39.7193 6.70809 39.6608 6.92218 39.55 7.11C39.4243 7.30752 39.2435 7.46394 39.03 7.56C39.312 7.62843 39.5623 7.79063 39.74 8.02C39.9093 8.2365 39.9977 8.50528 39.99 8.78C39.9906 9.01606 39.9358 9.24896 39.83 9.46001C39.7287 9.66715 39.5775 9.84584 39.39 9.98C39.1849 10.1188 38.947 10.2015 38.7 10.22C38.5333 10.22 38.1233 10.22 37.47 10.22H35.73V5.16V5.24001ZM36.73 6.08V7.25H37.4C37.8 7.25 38.05 7.25 38.14 7.25C38.2966 7.24024 38.445 7.17666 38.56 7.07001C38.6101 7.01856 38.6493 6.95745 38.6751 6.89041C38.7008 6.82337 38.7127 6.75179 38.71 6.68001C38.7151 6.54162 38.6688 6.40624 38.58 6.3C38.4767 6.19393 38.3378 6.12981 38.19 6.12C38.09 6.12 37.8 6.12 37.32 6.12L36.73 6.08ZM36.73 8.08V9.44H37.73C37.963 9.45718 38.197 9.45718 38.43 9.44C38.574 9.41502 38.7048 9.34078 38.8 9.23C38.8523 9.17183 38.8924 9.10388 38.9182 9.03006C38.9439 8.95624 38.9547 8.87804 38.95 8.8C38.952 8.66208 38.9138 8.52656 38.84 8.41C38.7576 8.30427 38.6465 8.22445 38.52 8.18001C38.221 8.11706 37.9151 8.09351 37.61 8.11L36.73 8.08Z" fill="#FDFDFD"/>
<path fill-rule="evenodd" clip-rule="evenodd" d="M42.65 5.23999H43.65V8.44998C43.6625 8.7869 43.6255 9.12384 43.54 9.44998C43.4422 9.7392 43.2526 9.98853 43 10.16C42.7011 10.3477 42.3528 10.4417 42 10.43C41.7896 10.4448 41.5784 10.415 41.3802 10.3427C41.182 10.2703 41.0014 10.1569 40.85 10.01C40.5572 9.66969 40.4099 9.22791 40.44 8.77998L41.44 8.65999C41.4333 8.87302 41.4743 9.08484 41.56 9.27998C41.6132 9.36109 41.6845 9.4288 41.7682 9.47784C41.852 9.52688 41.9459 9.55592 42.0427 9.5627C42.1394 9.56947 42.2365 9.5538 42.3262 9.51691C42.416 9.48001 42.496 9.42289 42.56 9.34999C42.6769 9.09693 42.7251 8.8176 42.7 8.53999L42.65 5.23999Z" fill="#FDFDFD"/>
<path fill-rule="evenodd" clip-rule="evenodd" d="M44.77 10.3V5.23999H48.52V6.08998H45.79V7.21999H48.33V8.06999H45.79V9.44998H48.62V10.3H44.77Z" fill="#FDFDFD"/>
<path fill-rule="evenodd" clip-rule="evenodd" d="M50.63 10.3V6.08998H49.13V5.23999H53.14V6.08998H51.65V10.3H50.63Z" fill="#FDFDFD"/>
<path fill-rule="evenodd" clip-rule="evenodd" d="M53.47 7.80003C53.454 7.35531 53.5324 6.91225 53.7 6.50002C53.8128 6.24005 53.9721 6.00284 54.17 5.80003C54.3575 5.60717 54.582 5.45412 54.83 5.35003C55.1752 5.20729 55.5466 5.13912 55.92 5.15002C56.2499 5.13453 56.5794 5.18789 56.8876 5.30668C57.1958 5.42547 57.4758 5.6071 57.71 5.84002C58.1414 6.39085 58.3759 7.07035 58.3759 7.77003C58.3759 8.4697 58.1414 9.14919 57.71 9.70002C57.2208 10.1505 56.58 10.4006 55.915 10.4006C55.25 10.4006 54.6092 10.1505 54.12 9.70002C53.6569 9.17915 53.4196 8.49579 53.46 7.80003H53.47ZM54.47 7.80003C54.4344 8.26832 54.5773 8.73273 54.87 9.10003C54.9929 9.24443 55.1464 9.35971 55.3194 9.43754C55.4923 9.51536 55.6804 9.55378 55.87 9.55003C56.0584 9.55232 56.2452 9.51423 56.4177 9.43833C56.5901 9.36244 56.7444 9.25049 56.87 9.11002C57.1544 8.72735 57.2927 8.25567 57.26 7.78002C57.2936 7.31511 57.1587 6.85363 56.88 6.48002C56.7531 6.34187 56.5984 6.23214 56.426 6.15803C56.2537 6.08392 56.0676 6.04712 55.88 6.05003C55.6915 6.04708 55.5045 6.08487 55.3319 6.1608C55.1594 6.23674 55.0052 6.34904 54.88 6.49003C54.6097 6.85941 54.4819 7.31393 54.52 7.77003L54.47 7.80003Z" fill="#FDFDFD"/>
<path fill-rule="evenodd" clip-rule="evenodd" d="M58.91 8.66001L59.91 8.56C59.9415 8.84069 60.0686 9.10199 60.27 9.30001C60.4826 9.45998 60.7442 9.54126 61.01 9.53001C61.2738 9.55044 61.5362 9.47598 61.75 9.32001C61.8258 9.26464 61.8878 9.1925 61.9311 9.10924C61.9745 9.02599 61.9981 8.93385 62 8.84C62.0056 8.72793 61.97 8.61768 61.9 8.53001C61.7979 8.42578 61.6703 8.34995 61.53 8.31L60.72 8.09C60.3035 8.01344 59.9101 7.84239 59.57 7.59C59.4246 7.46674 59.3073 7.31366 59.2262 7.14112C59.1451 6.96858 59.1021 6.78063 59.1 6.59C59.1036 6.334 59.1799 6.08428 59.32 5.87C59.4741 5.6383 59.6933 5.45738 59.95 5.35001C60.2697 5.23114 60.609 5.17348 60.95 5.18001C61.4618 5.14232 61.9699 5.29155 62.38 5.60001C62.5383 5.74246 62.6647 5.91677 62.7509 6.11152C62.837 6.30627 62.8811 6.51704 62.88 6.73H61.88C61.8639 6.51594 61.7675 6.31588 61.61 6.17C61.4194 6.04007 61.1898 5.98001 60.96 6.00001C60.7169 5.98741 60.4759 6.05029 60.27 6.18001C60.2177 6.21478 60.1755 6.2626 60.1474 6.31873C60.1194 6.37486 60.1065 6.43735 60.11 6.50001C60.1096 6.55829 60.123 6.61584 60.1491 6.66798C60.1751 6.72011 60.2131 6.76535 60.26 6.80001C60.5471 6.97572 60.8669 7.09138 61.2 7.14001C61.5804 7.21801 61.9498 7.34226 62.3 7.51C62.5286 7.62738 62.7218 7.8034 62.86 8.02001C62.9985 8.26703 63.0676 8.54691 63.06 8.83001C63.0595 9.12059 62.9762 9.405 62.82 9.65C62.6553 9.90521 62.4136 10.1014 62.13 10.21C61.7791 10.344 61.4055 10.4085 61.03 10.4C60.5013 10.4363 59.9778 10.276 59.56 9.95C59.1811 9.62303 58.9473 9.15911 58.91 8.66001Z" fill="#FDFDFD"/>
<path fill-rule="evenodd" clip-rule="evenodd" d="M13.81 8.3V8.08H13.09V8.3H11.79L11.57 7.62H10.05L9.83 8.3H9V7.97H7.87V8.3H7.12V12.5H14.53V8.3H13.81ZM7.93 11.97C7.87165 11.97 7.81569 11.9468 7.77443 11.9056C7.73318 11.8643 7.71 11.8083 7.71 11.75C7.70996 11.7216 7.71571 11.6934 7.72688 11.6673C7.73806 11.6411 7.75443 11.6175 7.775 11.5979C7.79557 11.5782 7.81991 11.563 7.84656 11.553C7.8732 11.5431 7.90159 11.5387 7.93 11.54C7.95757 11.54 7.98488 11.5454 8.01036 11.556C8.03584 11.5665 8.05899 11.582 8.07849 11.6015C8.09799 11.621 8.11346 11.6442 8.12401 11.6696C8.13457 11.6951 8.14 11.7224 8.14 11.75C8.14135 11.7784 8.13692 11.8068 8.12698 11.8334C8.11703 11.8601 8.10177 11.8844 8.08214 11.905C8.0625 11.9256 8.03889 11.9419 8.01274 11.9531C7.98658 11.9643 7.95844 11.97 7.93 11.97ZM10.82 12.1C10.4857 12.1 10.159 12.0009 9.88108 11.8152C9.60316 11.6295 9.38655 11.3655 9.25864 11.0567C9.13073 10.7479 9.09726 10.4081 9.16247 10.0803C9.22768 9.75246 9.38863 9.45135 9.62498 9.215C9.86134 8.97865 10.1625 8.81768 10.4903 8.75247C10.8181 8.68726 11.1579 8.72074 11.4667 8.84865C11.7755 8.97656 12.0395 9.19317 12.2252 9.47108C12.4109 9.749 12.51 10.0758 12.51 10.41C12.51 10.8582 12.3319 11.2881 12.015 11.605C11.6981 11.9219 11.2682 12.1 10.82 12.1ZM10.82 9.00999C11.0131 8.99363 11.2075 9.01754 11.3909 9.08022C11.5743 9.14289 11.7427 9.24297 11.8854 9.3741C12.0282 9.50523 12.1421 9.66457 12.22 9.84203C12.298 10.0195 12.3382 10.2112 12.3382 10.405C12.3382 10.5988 12.298 10.7905 12.22 10.968C12.1421 11.1454 12.0282 11.3048 11.8854 11.4359C11.7427 11.567 11.5743 11.6671 11.3909 11.7298C11.2075 11.7925 11.0131 11.8164 10.82 11.8C10.4704 11.7704 10.1447 11.6106 9.90731 11.3522C9.66994 11.0939 9.53821 10.7558 9.53821 10.405C9.53821 10.0542 9.66994 9.71611 9.90731 9.45776C10.1447 9.19942 10.4704 9.03962 10.82 9.00999ZM10.82 11.3C10.6416 11.3 10.4672 11.2469 10.319 11.1476C10.1707 11.0483 10.0554 10.9071 9.98759 10.7421C9.91978 10.577 9.90255 10.3956 9.93809 10.2207C9.97364 10.0459 10.0604 9.88552 10.1872 9.76006C10.3141 9.6346 10.4754 9.54969 10.6506 9.5161C10.8259 9.48251 11.0071 9.50176 11.1714 9.57141C11.3357 9.64107 11.4755 9.75797 11.5732 9.90729C11.6709 10.0566 11.722 10.2316 11.72 10.41C11.7213 10.5286 11.699 10.6462 11.6542 10.756C11.6095 10.8658 11.5432 10.9655 11.4594 11.0494C11.3755 11.1332 11.2758 11.1995 11.166 11.2442C11.0562 11.289 10.9386 11.3113 10.82 11.31V11.3Z" fill="#FDFDFD"/>
<path fill-rule="evenodd" clip-rule="evenodd" d="M13.09 6.96999C12.948 6.99111 12.8032 6.9837 12.664 6.9482C12.5249 6.91269 12.3943 6.84981 12.2797 6.76322C12.1652 6.67662 12.0691 6.56806 11.997 6.44388C11.925 6.3197 11.8784 6.1824 11.86 6.04C11.8279 5.85902 11.8413 5.67291 11.8989 5.49837C11.9565 5.32383 12.0565 5.16633 12.19 5.04L12.6 5.69998C12.58 5.74692 12.5712 5.79786 12.5743 5.84877C12.5773 5.89969 12.5921 5.94921 12.6175 5.99344C12.6429 6.03768 12.6782 6.07542 12.7206 6.10372C12.7631 6.13201 12.8115 6.15009 12.8621 6.15651C12.9127 6.16294 12.9641 6.15754 13.0123 6.14075C13.0604 6.12396 13.1041 6.09624 13.1397 6.05976C13.1753 6.02327 13.2021 5.97903 13.2177 5.93048C13.2334 5.88194 13.2376 5.83042 13.23 5.77999C13.2251 5.73685 13.2116 5.69516 13.1901 5.65744C13.1686 5.61972 13.1397 5.58676 13.1051 5.56056C13.0705 5.53437 13.0309 5.5155 12.9888 5.50508C12.9466 5.49467 12.9028 5.49293 12.86 5.49999L12.44 4.85999C12.5442 4.79964 12.6601 4.76215 12.78 4.74999C13.0551 4.73436 13.326 4.82254 13.5392 4.9971C13.7524 5.17166 13.8924 5.41988 13.9313 5.69266C13.9703 5.96544 13.9055 6.2429 13.7497 6.47017C13.5939 6.69744 13.3585 6.85796 13.09 6.91999V6.96999ZM9.83999 5.18999C9.83999 5.18999 9.83999 5.12999 9.83999 5.10999L10.16 4.72998C10.1878 4.69284 10.2261 4.66495 10.27 4.64998L11.27 4.18999L10.27 5.97998L9.87999 5.18999H9.83999ZM9.92999 6.18999H9.99999L9.58999 5.35999L9.49999 5.47998C9.69984 5.675 9.83582 5.92605 9.88999 6.19998L9.92999 6.18999ZM9.32999 5.72998C9.46478 5.8643 9.55844 6.03429 9.59999 6.21999L8.89999 6.27999L9.32999 5.72998ZM8.69999 7.56999C8.4109 7.6111 8.11733 7.53569 7.88384 7.36034C7.65036 7.18499 7.4961 6.92407 7.45499 6.63498C7.41388 6.3459 7.4893 6.05233 7.66464 5.81885C7.83999 5.58537 8.1009 5.4311 8.38999 5.38999C8.65196 5.36131 8.91599 5.42116 9.13999 5.55998L8.65999 6.15999C8.61117 6.14464 8.55881 6.14464 8.50999 6.15999C8.4232 6.17476 8.34553 6.22262 8.2933 6.29349C8.24108 6.36436 8.21838 6.45273 8.22999 6.54C8.24344 6.61642 8.2834 6.68565 8.34284 6.73554C8.40228 6.78542 8.47739 6.81276 8.55499 6.81276C8.63259 6.81276 8.7077 6.78542 8.76714 6.73554C8.82658 6.68565 8.86653 6.61642 8.87999 6.54L9.63999 6.46999C9.64528 6.73508 9.55377 6.99302 9.38258 7.1955C9.2114 7.39798 8.97227 7.53113 8.70999 7.56999H8.69999ZM12.7 4.43999C12.5361 4.46901 12.3776 4.52297 12.23 4.59999L11.63 3.68999C11.63 3.68999 11.63 3.63999 11.63 3.62999L11.9 3.32999C11.9088 3.31479 11.9134 3.29754 11.9134 3.27999C11.9134 3.26243 11.9088 3.24518 11.9 3.22998C11.9 3.22998 11.9 3.16998 11.84 3.14998C11.8075 3.1393 11.7725 3.1393 11.74 3.14998C11.7105 3.14236 11.6795 3.14236 11.65 3.14998L11.35 3.47998L11.29 3.52999C11.2821 3.54547 11.278 3.56261 11.278 3.57999C11.278 3.59737 11.2821 3.61451 11.29 3.62999C11.29 3.62999 11.29 3.62999 11.29 3.67999V3.76999L9.49999 4.58998L9.23999 4.07999C9.22669 4.05471 9.20645 4.03375 9.18165 4.01958C9.15685 4.00541 9.12852 3.99861 9.09999 3.99999H9.15999C9.21953 3.95163 9.28727 3.91437 9.35999 3.88999L9.48999 3.83998C9.49718 3.8243 9.5009 3.80725 9.5009 3.79C9.5009 3.77274 9.49718 3.75568 9.48999 3.73999C9.4854 3.72325 9.47653 3.70798 9.46426 3.69571C9.45199 3.68344 9.43673 3.67457 9.41999 3.66999H9.28999C9.15693 3.73318 9.01548 3.77697 8.86999 3.79999C8.79358 3.80884 8.7164 3.80884 8.63999 3.79999H8.56999C8.5398 3.80265 8.51061 3.81212 8.48463 3.82772C8.45864 3.84331 8.43654 3.8646 8.41999 3.88999C8.40053 3.93809 8.40053 3.99189 8.41999 4.04C8.41106 4.07273 8.41106 4.10725 8.41999 4.13999C8.45952 4.15676 8.50204 4.16541 8.54499 4.16541C8.58794 4.16541 8.63045 4.15676 8.66999 4.13999H8.79999H8.89999C8.8928 4.15567 8.88908 4.17273 8.88908 4.18999C8.88908 4.20725 8.8928 4.2243 8.89999 4.23999L9.33999 5.11998C9.35003 5.1457 9.35003 5.17426 9.33999 5.19998L9.19999 5.36998C8.90778 5.16952 8.55042 5.08733 8.19999 5.13999C7.94217 5.21202 7.70996 5.35548 7.53015 5.55379C7.35034 5.7521 7.23024 5.9972 7.18372 6.26082C7.1372 6.52444 7.16614 6.79584 7.2672 7.04372C7.36827 7.2916 7.53735 7.50587 7.75494 7.66181C7.97252 7.81774 8.22975 7.909 8.49697 7.92505C8.76418 7.9411 9.03049 7.88129 9.26517 7.75252C9.49986 7.62375 9.69337 7.43127 9.82339 7.19727C9.9534 6.96327 10.0146 6.69729 9.99999 6.43H10.22C10.3219 6.41285 10.4142 6.35959 10.48 6.27999L11.71 4.21999L12.05 4.76999C11.8701 4.92897 11.7322 5.12986 11.6484 5.35488C11.5647 5.57989 11.5378 5.82207 11.57 6.05998C11.6124 6.33714 11.7359 6.59555 11.9249 6.80263C12.1139 7.00971 12.36 7.15619 12.6321 7.22362C12.9043 7.29105 13.1903 7.27642 13.4541 7.18155C13.718 7.08668 13.9478 6.91582 14.1147 6.69052C14.2816 6.46523 14.3781 6.19558 14.3919 5.91554C14.4058 5.63551 14.3365 5.35763 14.1926 5.11695C14.0488 4.87626 13.837 4.68354 13.5838 4.56307C13.3306 4.4426 13.0475 4.39977 12.77 4.43999H12.7Z" fill="#FDFDFD"/>
<path d="M68.81 0.679993H3.18C1.62808 0.679993 0.369995 1.93809 0.369995 3.49001V12.12C0.369995 13.6719 1.62808 14.93 3.18 14.93H68.81C70.3619 14.93 71.62 13.6719 71.62 12.12V3.49001C71.62 1.93809 70.3619 0.679993 68.81 0.679993Z" stroke="#FDFDFD" stroke-width="0.57" stroke-miterlimit="22.93"/>
<path d="M21.31 2.97L21.35 12.84" stroke="#E5E6E7" stroke-width="0.57" stroke-linecap="round" stroke-linejoin="round"/>
</svg>
