<svg width="221" viewBox="0 0 72 15" fill="none" xmlns="http://www.w3.org/2000/svg">
<path fill-rule="evenodd" clip-rule="evenodd" d="M37.74 10.12V5.05H39.38C39.7883 5.03506 40.1971 5.06187 40.6 5.13001C40.8918 5.20586 41.1492 5.37863 41.33 5.62C41.5327 5.91298 41.6345 6.26401 41.62 6.62C41.6272 6.88992 41.5689 7.15756 41.45 7.4C41.354 7.60215 41.2055 7.77482 41.02 7.9C40.8609 8.01427 40.6808 8.09586 40.49 8.14C40.1401 8.20096 39.7851 8.22775 39.43 8.22H38.77V10.13L37.74 10.12ZM38.74 5.91V7.35001H39.3C39.5692 7.36403 39.8389 7.33705 40.1 7.27001C40.23 7.22178 40.3418 7.13444 40.42 7.02001C40.5029 6.9035 40.5451 6.7629 40.54 6.62C40.544 6.4536 40.483 6.29219 40.37 6.17C40.2713 6.06535 40.1416 5.99523 40 5.97C39.7569 5.95384 39.5131 5.95384 39.27 5.97L38.74 5.91Z" fill="#FDFDFD"/>
<path fill-rule="evenodd" clip-rule="evenodd" d="M42.46 10.12V5.04999H46.21V5.90999H43.49V7.02998H46.02V7.88998H43.49V9.25998H46.31V10.12H42.46Z" fill="#FDFDFD"/>
<path fill-rule="evenodd" clip-rule="evenodd" d="M48.32 10.12V5.90999H46.82V5.04999H50.84V5.90999H49.34V10.12H48.32Z" fill="#FDFDFD"/>
<path fill-rule="evenodd" clip-rule="evenodd" d="M51.05 10.12V9.18999L53.72 5.90999H51.36V5.04999H55.06V5.83998L52.29 9.25998H55.17V10.12H51.05Z" fill="#FDFDFD"/>
<path d="M68.81 0.320007H3.18C1.62808 0.320007 0.369995 1.57808 0.369995 3.13V11.76C0.369995 13.3119 1.62808 14.57 3.18 14.57H68.81C70.3619 14.57 71.62 13.3119 71.62 11.76V3.13C71.62 1.57808 70.3619 0.320007 68.81 0.320007Z" stroke="#FDFDFD" stroke-width="0.57" stroke-miterlimit="22.93"/>
<path fill-rule="evenodd" clip-rule="evenodd" d="M9.4 4.91C9.30187 4.91 9.20775 4.94898 9.13837 5.01837C9.06898 5.08776 9.02999 5.18186 9.02999 5.27999C9.02999 5.37812 9.06898 5.47223 9.13837 5.54162C9.20775 5.61101 9.30187 5.64999 9.4 5.64999C9.49813 5.64999 9.59224 5.61101 9.66162 5.54162C9.73101 5.47223 9.77 5.37812 9.77 5.27999C9.77 5.18186 9.73101 5.08776 9.66162 5.01837C9.59224 4.94898 9.49813 4.91 9.4 4.91ZM11.91 9.02C11.91 8.96858 11.9252 8.9183 11.9538 8.87555C11.9824 8.83279 12.023 8.79946 12.0705 8.77978C12.118 8.7601 12.1703 8.75496 12.2207 8.765C12.2712 8.77503 12.3175 8.79979 12.3538 8.83615C12.3902 8.87251 12.415 8.91884 12.425 8.96928C12.435 9.01971 12.4299 9.07198 12.4102 9.11949C12.3905 9.167 12.3572 9.20762 12.3144 9.23619C12.2717 9.26476 12.2214 9.27999 12.17 9.27999C12.101 9.27999 12.0349 9.2526 11.9861 9.20384C11.9374 9.15508 11.91 9.08896 11.91 9.02ZM11.35 9.77C11.35 9.74812 11.3544 9.72646 11.3631 9.70637C11.3717 9.68628 11.3844 9.66817 11.4003 9.65318C11.4163 9.63818 11.4351 9.62661 11.4557 9.61918C11.4763 9.61176 11.4982 9.60863 11.52 9.61C11.5624 9.61 11.6031 9.62685 11.6331 9.65686C11.6631 9.68686 11.68 9.72757 11.68 9.77C11.6801 9.81341 11.6635 9.8552 11.6338 9.88681C11.604 9.91841 11.5633 9.93744 11.52 9.94C11.4749 9.94 11.4317 9.92209 11.3998 9.89021C11.3679 9.85833 11.35 9.81509 11.35 9.77ZM10.55 9.02C10.55 8.96858 10.5652 8.9183 10.5938 8.87555C10.6224 8.83279 10.663 8.79946 10.7105 8.77978C10.758 8.7601 10.8103 8.75496 10.8607 8.765C10.9112 8.77503 10.9575 8.79979 10.9938 8.83615C11.0302 8.87251 11.055 8.91884 11.065 8.96928C11.075 9.01971 11.0699 9.07198 11.0502 9.11949C11.0305 9.167 10.9972 9.20762 10.9544 9.23619C10.9117 9.26476 10.8614 9.27999 10.81 9.27999C10.741 9.27999 10.6749 9.2526 10.6261 9.20384C10.5774 9.15508 10.55 9.08896 10.55 9.02ZM14.92 7.71V7.77999V7.97C14.9249 8.03324 14.9249 8.09676 14.92 8.16C14.7775 9.11564 14.294 9.98742 13.5587 10.6142C12.8234 11.2411 11.8861 11.5806 10.92 11.57C10.4814 11.5712 10.0456 11.5002 9.63 11.36C9.37891 11.2887 9.13968 11.1809 8.91999 11.04C8.86669 11.0081 8.81647 10.9713 8.77 10.93C8.68794 10.8299 8.6431 10.7044 8.6431 10.575C8.6431 10.4455 8.68794 10.3201 8.77 10.22C8.9417 10.022 9.18011 9.89389 9.43999 9.86C9.55123 9.84584 9.66422 9.86262 9.76654 9.90849C9.86886 9.95436 9.95656 10.0275 10.02 10.12C10.3989 10.496 10.9074 10.7127 11.4411 10.7257C11.9747 10.7388 12.4932 10.5471 12.89 10.19C13.1594 9.76786 13.3188 9.285 13.3538 8.78544C13.3887 8.28589 13.298 7.78553 13.09 7.33C12.89 7.25 12.37 7.8 12.37 7.8C12.1212 7.65397 11.8397 7.57285 11.5514 7.56411C11.2631 7.55538 10.9772 7.6193 10.72 7.75C10.6703 8.0718 10.5383 8.37532 10.3369 8.63111C10.1354 8.88691 9.87121 9.08632 9.57 9.21H9.5H9.32C9.05477 9.28516 8.77653 9.30261 8.50399 9.26121C8.23145 9.21981 7.97094 9.12052 7.74 8.97C7.69007 8.94148 7.64316 8.90797 7.59999 8.86999C7.69607 8.88516 7.79392 8.88516 7.89 8.86999C8.04355 8.84337 8.18211 8.76165 8.27969 8.64013C8.37727 8.51862 8.42715 8.36568 8.41999 8.21C8.41271 8.11017 8.3821 8.01342 8.33064 7.92756C8.27918 7.8417 8.2083 7.76911 8.12368 7.71562C8.03907 7.66213 7.94309 7.62922 7.84346 7.61956C7.74382 7.6099 7.64331 7.62376 7.55 7.66C7.68044 7.30606 7.85516 6.97006 8.07 6.66C8.51 6.03 8.18999 5.01999 8.66999 4.30999C9.14999 3.59999 9.48 3.69999 9.48 3.69999C9.48 3.69999 10.91 4.22 10.99 4.96C11.07 5.7 10.82 6.96 12.3 6.96C13.78 6.96 13.61 4.38 10.95 3.6L10.76 3.52V3.43H10.94C11.5019 3.42064 12.0595 3.52979 12.5764 3.75033C13.0933 3.97088 13.5579 4.29787 13.94 4.71C14.2382 5.02971 14.4845 5.39412 14.67 5.79V5.86V5.94V6.00999V6.08V6.14C14.67 6.14 14.67 6.13999 14.67 6.19999V6.25999V7.04C14.6638 7.0561 14.6638 7.07389 14.67 7.08999V7.49L14.92 7.71ZM10.87 3.11C11.7529 3.10802 12.6166 3.36817 13.3516 3.85748C14.0866 4.34679 14.6598 5.04324 14.9986 5.85861C15.3374 6.67397 15.4265 7.57155 15.2548 8.43763C15.083 9.30372 14.658 10.0993 14.0337 10.7237C13.4093 11.348 12.6137 11.773 11.7476 11.9448C10.8816 12.1165 9.98397 12.0274 9.1686 11.6886C8.35324 11.3498 7.65678 10.7766 7.16747 10.0416C6.67816 9.30662 6.41802 8.44295 6.41999 7.55999C6.42264 6.38059 6.89232 5.25025 7.72629 4.41629C8.56025 3.58232 9.69059 3.11264 10.87 3.11Z" fill="#FDFDFD"/>
<path d="M21.31 2.60999L21.35 12.48" stroke="#E5E6E7" stroke-width="0.57" stroke-linecap="round" stroke-linejoin="round"/>
</svg>
