<svg viewBox="0 0 35 35" fill="none" xmlns="http://www.w3.org/2000/svg">
<path fill-rule="evenodd" clip-rule="evenodd" d="M17.18 34.66C21.7182 34.6495 26.0676 32.8427 29.2775 29.6346C32.4875 26.4266 34.2968 22.0782 34.31 17.54V17.54C34.2968 13.0009 32.4878 8.65148 29.2781 5.44184C26.0685 2.23219 21.7191 0.423195 17.18 0.410004C12.6418 0.423207 8.29344 2.23253 5.08539 5.44245C1.87734 8.65238 0.0705507 13.0018 0.0599976 17.54V17.54C0.0731888 22.0765 1.88116 26.4233 5.08893 29.6311C8.2967 32.8389 12.6435 34.6468 17.18 34.66V34.66Z" fill="#FDFDFD"/>
<path fill-rule="evenodd" clip-rule="evenodd" d="M22.39 21.31C22.0192 20.9312 21.6065 20.5957 21.16 20.31C20.2825 19.7418 19.2922 19.3706 18.2574 19.2221C17.2226 19.0736 16.1679 19.1512 15.166 19.4497C14.1641 19.7482 13.2389 20.2604 12.4541 20.951C11.6692 21.6416 11.0435 22.4942 10.62 23.45C10.563 23.5612 10.5354 23.6851 10.54 23.81C10.5389 23.9879 10.5912 24.1621 10.69 24.31C10.7921 24.462 10.9339 24.5831 11.1 24.66C11.2233 24.7125 11.356 24.7397 11.49 24.74H21V26.25H11.52C11.1759 26.249 10.8355 26.1776 10.52 26.04C10.0913 25.8422 9.72473 25.531 9.46004 25.14C9.2359 24.8023 9.10093 24.4134 9.06771 24.0095C9.03449 23.6055 9.10409 23.1998 9.27004 22.83C9.86897 21.4982 10.7892 20.336 11.9481 19.4476C13.107 18.5592 14.4684 17.9724 15.91 17.74C15.1085 17.5105 14.3788 17.0802 13.79 16.49V16.49C13.3331 16.0339 12.9707 15.4923 12.7234 14.896C12.4761 14.2997 12.3488 13.6605 12.3488 13.015C12.3488 12.3695 12.4761 11.7303 12.7234 11.134C12.9707 10.5377 13.3331 9.99605 13.79 9.54V9.54C14.3209 9.01079 14.9659 8.61016 15.6756 8.36883C16.3853 8.1275 17.1409 8.05187 17.8844 8.14775C18.6278 8.24362 19.3394 8.50845 19.9647 8.92193C20.5899 9.33541 21.1123 9.88657 21.4915 10.5331C21.8708 11.1797 22.097 11.9046 22.1528 12.6521C22.2086 13.3996 22.0924 14.15 21.8133 14.8457C21.5341 15.5414 21.0994 16.164 20.5424 16.6657C19.9855 17.1674 19.321 17.5349 18.6 17.74C19.7529 17.923 20.8578 18.3339 21.8502 18.9485C22.8426 19.5632 23.7026 20.3694 24.38 21.32L22.39 21.31ZM22.23 21.68C22.113 21.6793 21.997 21.7019 21.8888 21.7465C21.7806 21.7912 21.6824 21.8569 21.6 21.94V21.94C21.4462 22.1059 21.3605 22.3237 21.36 22.55V26.86C21.36 27.096 21.4538 27.3224 21.6207 27.4893C21.7876 27.6562 22.014 27.75 22.25 27.75H26.56C26.7961 27.75 27.0224 27.6562 27.1894 27.4893C27.3563 27.3224 27.45 27.096 27.45 26.86V22.57C27.45 22.334 27.3563 22.1076 27.1894 21.9407C27.0224 21.7738 26.7961 21.68 26.56 21.68H22.23ZM26.54 22.42H22.23C22.2128 22.412 22.194 22.4078 22.175 22.4078C22.156 22.4078 22.1372 22.412 22.12 22.42V22.42C22.11 22.4526 22.11 22.4874 22.12 22.52V26.83C22.1061 26.8653 22.1061 26.9047 22.12 26.94C22.1555 26.953 22.1945 26.953 22.23 26.94H26.54C26.5755 26.953 26.6145 26.953 26.65 26.94C26.664 26.9047 26.664 26.8653 26.65 26.83V22.57C26.6515 22.5499 26.6486 22.5298 26.6416 22.5109C26.6346 22.492 26.6236 22.4749 26.6094 22.4606C26.5952 22.4464 26.578 22.4354 26.5592 22.4284C26.5403 22.4214 26.5201 22.4185 26.5 22.42H26.54ZM24.75 25.1H25.43C25.5281 25.1 25.6223 25.061 25.6917 24.9916C25.7611 24.9222 25.8 24.8281 25.8 24.73C25.8014 24.681 25.7928 24.6323 25.7747 24.5868C25.7566 24.5413 25.7294 24.4999 25.6947 24.4653C25.6601 24.4307 25.6187 24.4035 25.5732 24.3854C25.5277 24.3672 25.479 24.3586 25.43 24.36H24.75V23.68C24.7588 23.627 24.756 23.5727 24.7417 23.5209C24.7274 23.4692 24.702 23.4211 24.6673 23.3801C24.6325 23.3392 24.5893 23.3062 24.5405 23.2837C24.4918 23.2611 24.4388 23.2494 24.385 23.2494C24.3313 23.2494 24.2783 23.2611 24.2295 23.2837C24.1808 23.3062 24.1375 23.3392 24.1027 23.3801C24.068 23.4211 24.0426 23.4692 24.0283 23.5209C24.0141 23.5727 24.0112 23.627 24.02 23.68V24.36H23.33C23.2819 24.36 23.2342 24.3696 23.1899 24.3883C23.1456 24.407 23.1054 24.4345 23.0719 24.469C23.0383 24.5034 23.012 24.5443 22.9945 24.5892C22.977 24.634 22.9687 24.6819 22.97 24.73C22.97 24.8264 23.0076 24.919 23.0749 24.9882C23.1421 25.0573 23.2337 25.0974 23.33 25.1H24V25.78C23.9912 25.833 23.9941 25.8873 24.0084 25.939C24.0227 25.9908 24.0481 26.0389 24.0828 26.0799C24.1175 26.1208 24.1608 26.1538 24.2095 26.1763C24.2582 26.1989 24.3113 26.2106 24.365 26.2106C24.4187 26.2106 24.4718 26.1989 24.5205 26.1763C24.5693 26.1538 24.6126 26.1208 24.6473 26.0799C24.682 26.0389 24.7074 25.9908 24.7217 25.939C24.736 25.8873 24.7388 25.833 24.73 25.78V25.1H24.75ZM19.64 15.41C19.9559 15.0935 20.2062 14.7179 20.3769 14.3047C20.5476 13.8914 20.6352 13.4486 20.6347 13.0015C20.6343 12.5543 20.5458 12.1117 20.3742 11.6988C20.2027 11.2859 19.9515 10.9108 19.635 10.595C19.3185 10.2792 18.9429 10.0288 18.5297 9.8581C18.1164 9.68742 17.6736 9.59981 17.2265 9.60028C16.7793 9.60074 16.3368 9.68927 15.9239 9.8608C15.5109 10.0323 15.1359 10.2835 14.82 10.6V10.6C14.5029 10.9151 14.2511 11.2898 14.0794 11.7025C13.9076 12.1153 13.8192 12.5579 13.8192 13.005C13.8192 13.4521 13.9076 13.8947 14.0794 14.3075C14.2511 14.7202 14.5029 15.0949 14.82 15.41V15.41C15.4607 16.0463 16.327 16.4034 17.23 16.4034C18.133 16.4034 18.9993 16.0463 19.64 15.41V15.41Z" fill="#333333"/>
</svg>
