<svg class="not" viewBox="0 0 10 10" fill="none" xmlns="http://www.w3.org/2000/svg"><path fill-rule="evenodd" clip-rule="evenodd" d="M6.2 4.24C6.27142 4.25299 6.33604 4.29063 6.38255 4.34637C6.42907 4.40211 6.45454 4.4724 6.45454 4.545C6.45454 4.6176 6.42907 4.6879 6.38255 4.74363C6.33604 4.79937 6.27142 4.83702 6.2 4.85H4.84V6.21C4.82701 6.28143 4.78936 6.34603 4.73363 6.39255C4.67789 6.43907 4.6076 6.46455 4.535 6.46455C4.4624 6.46455 4.3921 6.43907 4.33636 6.39255C4.28063 6.34603 4.24298 6.28143 4.23 6.21V4.85H2.87C2.79857 4.83702 2.73397 4.79937 2.68745 4.74363C2.64094 4.6879 2.61545 4.6176 2.61545 4.545C2.61545 4.4724 2.64094 4.40211 2.68745 4.34637C2.73397 4.29063 2.79857 4.25299 2.87 4.24H4.23V2.88C4.24298 2.80857 4.28063 2.74397 4.33636 2.69745C4.3921 2.65093 4.4624 2.62545 4.535 2.62545C4.6076 2.62545 4.67789 2.65093 4.73363 2.69745C4.78936 2.74397 4.82701 2.80857 4.84 2.88V4.24H6.2ZM7.95 0.600002H1.12C1.04918 0.599932 0.97907 0.614052 0.913803 0.641533C0.848536 0.669014 0.789444 0.709298 0.740005 0.760002V0.760002C0.647943 0.857005 0.597652 0.986285 0.599991 1.12V7.95C0.599384 8.01851 0.612335 8.08647 0.638077 8.14997C0.663819 8.21346 0.701854 8.27125 0.75 8.32C0.799438 8.37071 0.85853 8.41098 0.923798 8.43847C0.989065 8.46595 1.05919 8.48007 1.13 8.48H7.95999C8.0293 8.47987 8.09787 8.46562 8.16148 8.43811C8.2251 8.4106 8.28244 8.37041 8.33 8.32C8.38139 8.27321 8.42223 8.21601 8.44981 8.15222C8.4774 8.08843 8.4911 8.01949 8.49001 7.95V1.13C8.48504 0.991019 8.42759 0.85908 8.32925 0.760742C8.23092 0.662404 8.09897 0.604971 7.95999 0.600002H7.95ZM1.12 0C0.82032 0.000574809 0.532919 0.119128 0.319992 0.330002C0.118429 0.540117 0.0040782 0.818866 0 1.11V7.94C0.00105465 8.08919 0.0316407 8.2367 0.0899963 8.374C0.148352 8.51131 0.233318 8.6357 0.339996 8.74C0.444104 8.84624 0.568672 8.93025 0.706177 8.98697C0.843681 9.04369 0.991268 9.07194 1.14 9.07H7.97C8.11857 9.07081 8.26581 9.04204 8.40315 8.98539C8.5405 8.92873 8.66521 8.84532 8.77 8.74C8.97908 8.52589 9.0973 8.23925 9.09999 7.94V1.13C9.09999 0.830306 8.98094 0.542887 8.76903 0.330971C8.55711 0.119055 8.2697 0 7.97 0H1.12Z" fill="#000"/></svg>