<svg xmlns="http://www.w3.org/2000/svg" viewBox="0 0 54.56 4.23"><defs><style>.cls-1{fill:#fff;fill-rule:evenodd;}</style></defs><g id="Camada_2" data-name="Camada 2"><g id="Camada_1-2" data-name="Camada 1"><path class="cls-1" d="M0,3.47V.72H.89a4.12,4.12,0,0,1,.66,0A.86.86,0,0,1,1.94,1a.85.85,0,0,1,.16.54A.87.87,0,0,1,2,2a.64.64,0,0,1-.24.27.65.65,0,0,1-.28.13,2.78,2.78,0,0,1-.57,0H.56v1ZM.56,1.19V2h.3a1.79,1.79,0,0,0,.43,0,.42.42,0,0,0,.18-.14.37.37,0,0,0,.06-.21.35.35,0,0,0-.09-.25.32.32,0,0,0-.22-.12,1.91,1.91,0,0,0-.4,0Zm2,2.28V.72H3.72A2,2,0,0,1,4.36.8a.62.62,0,0,1,.32.26.8.8,0,0,1,.12.43A.72.72,0,0,1,4.62,2a.86.86,0,0,1-.54.26,1.13,1.13,0,0,1,.29.23,3.4,3.4,0,0,1,.32.44L5,3.47H4.36L4,2.87a2.78,2.78,0,0,0-.29-.4.38.38,0,0,0-.17-.12.94.94,0,0,0-.28,0H3.11V3.47Zm.56-1.59h.41a2.46,2.46,0,0,0,.5,0,.29.29,0,0,0,.15-.12.32.32,0,0,0,.06-.2.36.36,0,0,0-.08-.23A.32.32,0,0,0,4,1.2H3.11v.69ZM5.32,3.47V.72h2v.47H5.87V1.8H7.25v.46H5.87V3H7.4v.47Zm4.31-1,.53.17a1.19,1.19,0,0,1-.41.67A1.13,1.13,0,0,1,9,3.51a1.16,1.16,0,0,1-.89-.37,1.41,1.41,0,0,1-.36-1,1.51,1.51,0,0,1,.36-1.07A1.21,1.21,0,0,1,9.06.67a1.15,1.15,0,0,1,.82.3,1.24,1.24,0,0,1,.28.51l-.55.13a.59.59,0,0,0-.2-.34A.62.62,0,0,0,9,1.15a.6.6,0,0,0-.49.22,1,1,0,0,0-.19.71,1.2,1.2,0,0,0,.18.74A.64.64,0,0,0,9,3,.57.57,0,0,0,9.4,2.9a.83.83,0,0,0,.23-.45Zm3.48,1h-.6l-.24-.63h-1.1L11,3.47h-.59L11.42.72H12l1.1,2.75Zm-1-1.09-.38-1-.37,1ZM13.4.72H14V2.21a3.76,3.76,0,0,0,0,.46.44.44,0,0,0,.17.27.57.57,0,0,0,.36.1.5.5,0,0,0,.35-.1A.33.33,0,0,0,15,2.71a2.59,2.59,0,0,0,0-.47V.72h.55V2.17a3.74,3.74,0,0,1,0,.69.82.82,0,0,1-.17.35.76.76,0,0,1-.32.22,1.28,1.28,0,0,1-.52.09,1.38,1.38,0,0,1-.6-.1.85.85,0,0,1-.32-.23.81.81,0,0,1-.15-.31,3,3,0,0,1-.06-.69V.72Zm4.52,1.73.54.17a1.19,1.19,0,0,1-.41.67,1.13,1.13,0,0,1-.73.22,1.19,1.19,0,0,1-.9-.37,1.45,1.45,0,0,1-.35-1,1.55,1.55,0,0,1,.35-1.07,1.24,1.24,0,0,1,.93-.38,1.13,1.13,0,0,1,.82.3,1,1,0,0,1,.28.51l-.54.13a.66.66,0,0,0-.21-.34.59.59,0,0,0-.37-.12.62.62,0,0,0-.5.22,1,1,0,0,0-.19.71,1.13,1.13,0,0,0,.19.74.63.63,0,0,0,.49.22.59.59,0,0,0,.38-.14.83.83,0,0,0,.22-.45ZM16.72,4.2a1.64,1.64,0,0,0,.37,0,.89.89,0,0,0,.52-.14.32.32,0,0,0,.13-.27.32.32,0,0,0-.12-.25.53.53,0,0,0-.36-.1.81.81,0,0,0-.31,0l-.05.18a1.09,1.09,0,0,1,.25,0,.3.3,0,0,1,.18,0,.13.13,0,0,1,.05.11.14.14,0,0,1-.06.12.4.4,0,0,1-.25.06l-.35,0V4.2Zm4.69-.73h-.6l-.24-.63h-1.1l-.23.63h-.58L19.72.72h.59l1.1,2.75Zm-1-1.09-.38-1-.37,1ZM19.64.48H19.4a.2.2,0,0,1,0-.07.45.45,0,0,1,.1-.3A.3.3,0,0,1,19.73,0l.13,0a1.28,1.28,0,0,1,.2.08.7.7,0,0,0,.23.06.15.15,0,0,0,.1,0A.23.23,0,0,0,20.45,0h.24a.61.61,0,0,1-.1.37.29.29,0,0,1-.23.1h-.13L20,.38a1.09,1.09,0,0,0-.25-.07.15.15,0,0,0-.1,0,.23.23,0,0,0,0,.13Zm1.95,1.63a1.79,1.79,0,0,1,.12-.7A1.22,1.22,0,0,1,22,1a1.19,1.19,0,0,1,.35-.25,1.55,1.55,0,0,1,.59-.11,1.28,1.28,0,0,1,1,.38,1.42,1.42,0,0,1,.37,1.05,1.45,1.45,0,0,1-.36,1,1.3,1.3,0,0,1-1,.38,1.28,1.28,0,0,1-1-.38,1.42,1.42,0,0,1-.36-1Zm.57,0a1.06,1.06,0,0,0,.21.71.72.72,0,0,0,.55.24.68.68,0,0,0,.54-.24,1,1,0,0,0,.22-.71,1,1,0,0,0-.21-.71.77.77,0,0,0-1.1,0,1.06,1.06,0,0,0-.21.71Zm3.58,1.38V.72h2v.47H26.3V1.8h1.37v.46H26.3V3h1.53v.47Zm3.48-.89.54-.06a.63.63,0,0,0,.19.4.58.58,0,0,0,.4.13.64.64,0,0,0,.4-.11.36.36,0,0,0,.14-.27.23.23,0,0,0-.06-.16.34.34,0,0,0-.2-.12,2.52,2.52,0,0,0-.44-.12A1.57,1.57,0,0,1,29.57,2a.7.7,0,0,1-.25-.55.69.69,0,0,1,.12-.39.73.73,0,0,1,.34-.28,1.44,1.44,0,0,1,.54-.1,1.14,1.14,0,0,1,.77.23.78.78,0,0,1,.27.61l-.55,0a.43.43,0,0,0-.15-.3.52.52,0,0,0-.35-.1.65.65,0,0,0-.37.1.21.21,0,0,0-.09.17.23.23,0,0,0,.08.17,1.53,1.53,0,0,0,.51.19A2.25,2.25,0,0,1,31,2a.84.84,0,0,1,.31.28.84.84,0,0,1,.11.44.82.82,0,0,1-.14.44.76.76,0,0,1-.37.31,1.65,1.65,0,0,1-.59.1,1.18,1.18,0,0,1-.8-.24,1,1,0,0,1-.33-.7Zm2.7.89V.72h2v.47H32.47V1.8h1.37v.46H32.47V3H34v.47Zm3.83-1V2h1.19V3.09a1.71,1.71,0,0,1-.51.3,2,2,0,0,1-.67.13A1.38,1.38,0,0,1,35,3.33a1.08,1.08,0,0,1-.48-.51,1.66,1.66,0,0,1-.17-.73,1.62,1.62,0,0,1,.18-.77,1.24,1.24,0,0,1,.53-.51,1.43,1.43,0,0,1,.66-.14,1.3,1.3,0,0,1,.79.22,1,1,0,0,1,.37.59l-.55.11a.53.53,0,0,0-.22-.32.63.63,0,0,0-.4-.12.75.75,0,0,0-.57.23,1,1,0,0,0-.21.68,1.13,1.13,0,0,0,.21.74.75.75,0,0,0,.57.24A.87.87,0,0,0,36.08,3a1.43,1.43,0,0,0,.3-.16V2.46ZM37.45.72H38V2.21a3.76,3.76,0,0,0,0,.46.48.48,0,0,0,.17.27.57.57,0,0,0,.36.1.53.53,0,0,0,.36-.1.37.37,0,0,0,.14-.23c0-.1,0-.25,0-.47V.72h.56V2.17a3.51,3.51,0,0,1-.05.69.81.81,0,0,1-.16.35.83.83,0,0,1-.32.22,1.33,1.33,0,0,1-.53.09,1.31,1.31,0,0,1-.59-.1.78.78,0,0,1-.32-.23.84.84,0,0,1-.16-.31,3.82,3.82,0,0,1,0-.69V.72Zm2.76,2.75V.72h1.17A2,2,0,0,1,42,.8a.62.62,0,0,1,.32.26.8.8,0,0,1,.12.43.72.72,0,0,1-.18.51.86.86,0,0,1-.54.26,1,1,0,0,1,.29.23,3.4,3.4,0,0,1,.32.44l.33.54H42l-.4-.6a2.78,2.78,0,0,0-.29-.4.38.38,0,0,0-.17-.12.94.94,0,0,0-.28,0h-.11V3.47Zm.56-1.59h.41a2.39,2.39,0,0,0,.5,0,.26.26,0,0,0,.15-.12.32.32,0,0,0,.06-.2.36.36,0,0,0-.08-.23.3.3,0,0,0-.2-.1h-.84v.69Zm4.68,1.59h-.6l-.23-.63h-1.1l-.23.63H42.7L43.77.72h.58l1.1,2.75Zm-1-1.09-.39-1-.37,1Zm1.31,1.09V.72h.53l1.13,1.84V.72h.51V3.47h-.55L46.26,1.66V3.47Zm4.51-1,.54.17a1.19,1.19,0,0,1-.41.67,1.13,1.13,0,0,1-.73.22,1.19,1.19,0,0,1-.9-.37,1.45,1.45,0,0,1-.35-1,1.51,1.51,0,0,1,.36-1.07A1.21,1.21,0,0,1,49.7.67a1.13,1.13,0,0,1,.81.3,1,1,0,0,1,.28.51l-.54.13A.6.6,0,0,0,50,1.27a.59.59,0,0,0-.37-.12.62.62,0,0,0-.5.22,1.1,1.1,0,0,0-.19.71,1.13,1.13,0,0,0,.19.74.63.63,0,0,0,.49.22A.59.59,0,0,0,50,2.9a.83.83,0,0,0,.22-.45ZM49.06,4.2a1.64,1.64,0,0,0,.37,0A.87.87,0,0,0,50,4.09a.32.32,0,0,0,.13-.27A.32.32,0,0,0,50,3.57a.53.53,0,0,0-.36-.1.81.81,0,0,0-.31,0l0,.18a1.18,1.18,0,0,1,.25,0,.3.3,0,0,1,.18,0,.14.14,0,0,1,.06.11.15.15,0,0,1-.07.12.38.38,0,0,1-.24.06l-.36,0V4.2Zm4.69-.73h-.6l-.24-.63h-1.1l-.23.63H51L52.06.72h.59l1.1,2.75Zm-1-1.09-.38-1-.37,1ZM54,3.47V2.94h.53v.53Z"/></g></g></svg>