<svg xmlns="http://www.w3.org/2000/svg" viewBox="0 0 58.59 3.24"><defs><style>.cls-1{fill:#e6e7e8;}.cls-1,.cls-2{fill-rule:evenodd;}.cls-2{fill:#fff;}</style></defs><g id="Camada_2" data-name="Camada 2"><g id="Camada_1-2" data-name="Camada 1"><path class="cls-1" d="M2.09,2.93a2.29,2.29,0,0,0,.31-1.2H3a1.41,1.41,0,0,1-.92,1.2ZM.23,1.73H.84a2.29,2.29,0,0,0,.31,1.2,1.37,1.37,0,0,1-.92-1.2ZM1.15.3A2.33,2.33,0,0,0,.84,1.51H.23A1.4,1.4,0,0,1,1.15.3ZM1.06,1.51H2.18C2.15.75,1.87.22,1.62.22s-.53.53-.56,1.29ZM1.62,3c.25,0,.53-.52.56-1.28H1.06c0,.76.31,1.28.56,1.28ZM3,1.51H2.4A2.33,2.33,0,0,0,2.09.3,1.43,1.43,0,0,1,3,1.51ZM1.62,0A1.62,1.62,0,1,0,3.24,1.62,1.63,1.63,0,0,0,1.62,0Z"/><path class="cls-2" d="M4.17,3,3.53.23H4.1l.4,1.89L5,.23h.66l.48,1.92L6.56.23h.56L6.46,3h-.6l-.54-2L4.78,3ZM7.78,3,7.14.23h.57l.41,1.89L8.62.23h.66l.48,1.92L10.17.23h.56L10.07,3H9.48l-.54-2L8.39,3ZM11.4,3,10.75.23h.57l.41,1.89.5-1.89h.66l.48,1.92L13.79.23h.56L13.69,3h-.6l-.54-2L12,3Zm3,0V2.45h.52V3Zm1.06,0V.23h.83L16.8,2.1,17.29.23h.83V3h-.51V.82L17.07,3h-.54L16,.82V3ZM19.4,3V1.82l-1-1.59H19l.65,1.09L20.32.23H21l-1,1.6V3Zm1.83,0V.23h.83l.49,1.87L23,.23h.84V3h-.52V.82L22.81,3h-.53L21.74.82V3Zm3.19,0V.23h2V.7H25v.61h1.37v.46H25v.74h1.53V3Zm2.44-1.36A1.62,1.62,0,0,1,27,.92a1.39,1.39,0,0,1,.25-.38A1.23,1.23,0,0,1,27.6.29a1.55,1.55,0,0,1,.59-.11,1.3,1.3,0,0,1,1,.38,1.45,1.45,0,0,1,.36,1.05,1.45,1.45,0,0,1-.36,1,1.27,1.27,0,0,1-1,.38,1.3,1.3,0,0,1-1-.38,1.42,1.42,0,0,1-.36-1Zm.57,0a1.06,1.06,0,0,0,.22.71.74.74,0,0,0,1.09,0A1.06,1.06,0,0,0,29,1.6a1.09,1.09,0,0,0-.2-.71.78.78,0,0,0-1.11,0,1.06,1.06,0,0,0-.21.71ZM30,3V.23h1.88V.7H30.51v.65h1.15v.46H30.51V3Zm2.32,0V.23h.55V3Zm2.83-1,.54.16a1.19,1.19,0,0,1-.41.67,1.15,1.15,0,0,1-.73.22,1.19,1.19,0,0,1-.9-.37,1.45,1.45,0,0,1-.35-1A1.55,1.55,0,0,1,33.61.56a1.24,1.24,0,0,1,.93-.38,1.13,1.13,0,0,1,.82.3,1,1,0,0,1,.28.51l-.55.13a.62.62,0,0,0-.2-.34.59.59,0,0,0-.37-.12.62.62,0,0,0-.5.22,1,1,0,0,0-.19.71,1.13,1.13,0,0,0,.19.74.61.61,0,0,0,.48.22.56.56,0,0,0,.38-.14A.77.77,0,0,0,35.11,2Zm1,1V.23h.55V3Zm3.55,0h-.6l-.24-.63h-1.1L37.5,3h-.59L38,.23h.59L39.66,3Zm-1-1.09-.38-1-.37,1ZM40,3V.26h.55V2.51H41.9V3Zm2.32,0V2.45h.52V3Zm2.82-1,.54.16a1.24,1.24,0,0,1-.41.67,1.3,1.3,0,0,1-1.63-.15,1.41,1.41,0,0,1-.35-1A1.55,1.55,0,0,1,43.61.56a1.24,1.24,0,0,1,.93-.38,1.13,1.13,0,0,1,.82.3,1.13,1.13,0,0,1,.28.51l-.55.13a.62.62,0,0,0-.2-.34.66.66,0,0,0-.87.1,1,1,0,0,0-.19.71,1.2,1.2,0,0,0,.18.74.64.64,0,0,0,.49.22.56.56,0,0,0,.38-.14A.84.84,0,0,0,45.11,2Zm.9-.35a1.79,1.79,0,0,1,.12-.7,1.42,1.42,0,0,1,.26-.38,1.19,1.19,0,0,1,.35-.25,1.55,1.55,0,0,1,.59-.11,1.28,1.28,0,0,1,1,.38,1.42,1.42,0,0,1,.37,1.05,1.45,1.45,0,0,1-.36,1,1.3,1.3,0,0,1-1,.38,1.28,1.28,0,0,1-1-.38,1.42,1.42,0,0,1-.36-1Zm.57,0a1.06,1.06,0,0,0,.21.71.75.75,0,0,0,1.1,0,1.06,1.06,0,0,0,.21-.71,1,1,0,0,0-.21-.71.77.77,0,0,0-1.1,0,1.06,1.06,0,0,0-.21.71ZM49.09,3V.23h.83l.5,1.87L50.9.23h.84V3h-.52V.82L50.68,3h-.53L49.61.82V3Zm3.19,0V2.45h.53V3ZM53.35.23h1.1a2.93,2.93,0,0,1,.49,0,.86.86,0,0,1,.28.11.66.66,0,0,1,.21.23.62.62,0,0,1,.09.32.67.67,0,0,1-.39.6.72.72,0,0,1,.39.25.63.63,0,0,1,.13.41.9.9,0,0,1-.08.36.76.76,0,0,1-.24.29A.86.86,0,0,1,55,3l-.67,0h-.94V.23Zm.56.46v.63h.76a.35.35,0,0,0,.23-.1A.29.29,0,0,0,55,1a.32.32,0,0,0-.07-.2A.3.3,0,0,0,54.7.7h-.79Zm0,1.09v.73h.89a.43.43,0,0,0,.2-.11.32.32,0,0,0,.08-.24A.37.37,0,0,0,55,1.94a.35.35,0,0,0-.17-.12,1.73,1.73,0,0,0-.49,0ZM56.12,3V.23h1.17a1.88,1.88,0,0,1,.63.08.63.63,0,0,1,.32.26.8.8,0,0,1,.12.43.72.72,0,0,1-.18.51.86.86,0,0,1-.54.26,1.19,1.19,0,0,1,.3.23,2.75,2.75,0,0,1,.31.44l.34.54h-.67l-.39-.6a2.43,2.43,0,0,0-.3-.4.36.36,0,0,0-.16-.12.94.94,0,0,0-.28,0h-.11V3Zm.56-1.59h.4a2.33,2.33,0,0,0,.5,0,.28.28,0,0,0,.16-.12.39.39,0,0,0,0-.2.35.35,0,0,0-.07-.23.35.35,0,0,0-.21-.1h-.83Z"/></g></g></svg>