<svg viewBox="0 0 10 10" fill="none" xmlns="http://www.w3.org/2000/svg">
<path fill-rule="evenodd" clip-rule="evenodd" d="M4.94001 9.11999C5.76448 9.11995 6.57031 8.87493 7.25526 8.41603C7.94021 7.95713 8.47335 7.30505 8.787 6.54258C9.10065 5.7801 9.1807 4.94162 9.01692 4.13359C8.85313 3.32556 8.45293 2.58441 7.86714 2.00425C7.28134 1.42409 6.53639 1.03107 5.72682 0.875105C4.91724 0.719136 4.07955 0.807249 3.32014 1.12825C2.56073 1.44926 1.91382 1.98867 1.46156 2.67802C1.0093 3.36737 0.772111 4.17556 0.780039 4.99999C0.790581 6.09635 1.23351 7.14421 2.01252 7.91573C2.79153 8.68725 3.84361 9.12004 4.94001 9.11999V9.11999Z" fill="#E5E6E7"/>
<path fill-rule="evenodd" clip-rule="evenodd" d="M6.63004 3.88H3.17001V3.66999C3.17001 3.62403 3.1791 3.57852 3.19669 3.53606C3.21427 3.49359 3.24005 3.45501 3.27255 3.42251C3.30505 3.39001 3.34361 3.36423 3.38608 3.34664C3.42854 3.32905 3.47409 3.32 3.52005 3.32H6.41C6.50377 3.31996 6.59387 3.35651 6.6611 3.42188C6.72834 3.48724 6.76745 3.57626 6.77005 3.66999V3.88H6.63004ZM4.10001 6.52999C4.09467 6.54791 4.09363 6.56682 4.09689 6.58522C4.10016 6.60362 4.10764 6.62101 4.1188 6.63599C4.12997 6.65097 4.14452 6.66315 4.16122 6.67153C4.17793 6.67991 4.19637 6.68427 4.21506 6.68427C4.23375 6.68427 4.25213 6.67991 4.26883 6.67153C4.28553 6.66315 4.30008 6.65097 4.31125 6.63599C4.32242 6.62101 4.3299 6.60362 4.33316 6.58522C4.33642 6.56682 4.33539 6.54791 4.33005 6.52999L4.10001 4.62C4.09759 4.60414 4.09204 4.58893 4.08365 4.57526C4.07525 4.5616 4.06423 4.54975 4.05118 4.54043C4.03813 4.53111 4.02331 4.52449 4.00766 4.52098C3.99201 4.51747 3.97584 4.51714 3.96005 4.52C3.93 4.52493 3.90294 4.54111 3.88437 4.56525C3.8658 4.58939 3.85708 4.61968 3.86002 4.65L4.10001 6.56V6.52999ZM5.64005 6.64C5.673 6.64291 5.70583 6.63316 5.73184 6.61272C5.75785 6.59229 5.7751 6.5627 5.78006 6.52999L6.02005 4.62C6.02042 4.58872 6.00949 4.55836 5.98929 4.53448C5.96908 4.5106 5.94091 4.49481 5.91 4.49C5.87969 4.48706 5.84943 4.49575 5.82529 4.51432C5.80115 4.53289 5.78499 4.55994 5.78006 4.59L5.54001 6.5C5.53715 6.51578 5.53754 6.53198 5.54105 6.54763C5.54456 6.56328 5.55113 6.57806 5.56046 6.59111C5.56978 6.60417 5.58164 6.61522 5.59531 6.62361C5.60897 6.63201 5.62419 6.63758 5.64005 6.64V6.64ZM4.94003 6.64C4.97186 6.64 5.00237 6.62736 5.02487 6.60485C5.04738 6.58235 5.06003 6.55182 5.06003 6.52V4.59999C5.05772 4.56893 5.04433 4.53974 5.02231 4.51772C5.00028 4.49569 4.97109 4.48231 4.94003 4.48C4.90821 4.48 4.8777 4.49264 4.85519 4.51514C4.83269 4.53765 4.82004 4.56817 4.82004 4.59999V6.52C4.82004 6.55182 4.83269 6.58235 4.85519 6.60485C4.8777 6.62736 4.90821 6.64 4.94003 6.64V6.64ZM4.58005 3.04V2.91C4.57993 2.88247 4.5901 2.85591 4.60861 2.83555C4.62712 2.81518 4.65262 2.8025 4.68002 2.8H5.19003C5.21921 2.8 5.24716 2.81159 5.26779 2.83221C5.28842 2.85284 5.30002 2.88082 5.30002 2.91V3L4.58005 3.04ZM5.58005 3.04V2.91C5.58005 2.81717 5.54315 2.72815 5.47751 2.66251C5.41187 2.59687 5.32284 2.56 5.23001 2.56H4.72C4.62892 2.5626 4.54246 2.60062 4.47897 2.66598C4.41548 2.73134 4.38 2.81888 4.38004 2.91V3H3.53006C3.45258 3 3.37581 3.01526 3.30423 3.04491C3.23265 3.07456 3.16761 3.11802 3.11282 3.1728C3.05804 3.22759 3.01461 3.29263 2.98495 3.36421C2.9553 3.43579 2.94003 3.51252 2.94003 3.59V3.8C2.93725 3.86998 2.96175 3.9383 3.00839 3.99055C3.05504 4.04279 3.12018 4.07487 3.19003 4.08L3.51004 6.88C3.52478 7.00195 3.5839 7.11421 3.67612 7.19537C3.76834 7.27652 3.8872 7.32088 4.01004 7.32H5.94003C6.06287 7.32088 6.18174 7.27652 6.27396 7.19537C6.36618 7.11421 6.4253 7.00195 6.44003 6.88L6.77005 4.08C6.8399 4.07487 6.90498 4.04279 6.95163 3.99055C6.99828 3.9383 7.02283 3.86998 7.02005 3.8V3.59C7.01743 3.43261 6.95303 3.28255 6.84079 3.17218C6.72855 3.06181 6.57743 2.99997 6.42001 3L5.58005 3.04ZM3.43002 4.12H6.52005L6.20004 6.89C6.19492 6.95454 6.16498 7.01458 6.11649 7.05748C6.06799 7.10038 6.00472 7.12279 5.94003 7.12H4.00003C3.93597 7.12042 3.874 7.09719 3.82602 7.05474C3.77804 7.0123 3.74741 6.95363 3.74002 6.89L3.43002 4.12Z" fill="#4B4B4D"/>
</svg>
