<svg viewBox="0 0 11 11" fill="none" xmlns="http://www.w3.org/2000/svg">
<path fill-rule="evenodd" clip-rule="evenodd" d="M3.63 2.17999C3.57533 2.17866 3.52094 2.18828 3.47003 2.20829C3.41913 2.22829 3.37273 2.25828 3.33359 2.29649C3.29445 2.33469 3.26335 2.38034 3.24213 2.43075C3.2209 2.48116 3.20998 2.5353 3.20999 2.58999C3.20067 2.64989 3.20444 2.7111 3.22101 2.76941C3.23758 2.82772 3.26657 2.88175 3.306 2.92779C3.34543 2.97384 3.39433 3.0108 3.4494 3.03614C3.50447 3.06149 3.56438 3.07461 3.625 3.07461C3.68562 3.07461 3.74553 3.06149 3.8006 3.03614C3.85567 3.0108 3.90457 2.97384 3.944 2.92779C3.98343 2.88175 4.01242 2.82772 4.02899 2.76941C4.04556 2.7111 4.04933 2.64989 4.04001 2.58999C4.04001 2.48126 3.99681 2.37697 3.91992 2.30008C3.84303 2.22319 3.73874 2.17999 3.63 2.17999V2.17999ZM6.45001 6.79999C6.45001 6.74264 6.46701 6.68657 6.49887 6.63888C6.53074 6.59119 6.57604 6.55402 6.62903 6.53207C6.68202 6.51012 6.74032 6.50438 6.79657 6.51557C6.85282 6.52676 6.90451 6.55438 6.94507 6.59493C6.98563 6.63549 7.01322 6.68716 7.02441 6.74342C7.0356 6.79967 7.02988 6.85798 7.00793 6.91097C6.98599 6.96396 6.94881 7.00925 6.90112 7.04112C6.85343 7.07299 6.79735 7.08999 6.73999 7.08999C6.66308 7.08999 6.58933 7.05944 6.53494 7.00505C6.48056 6.95067 6.45001 6.87691 6.45001 6.79999V6.79999ZM5.82001 7.64999C5.81865 7.62553 5.82228 7.60104 5.83072 7.57804C5.83915 7.55503 5.8522 7.53399 5.86905 7.5162C5.8859 7.49841 5.90622 7.48425 5.92874 7.47459C5.95126 7.46492 5.9755 7.45996 6 7.45999C6.02788 7.45347 6.05687 7.45333 6.08481 7.45958C6.11275 7.46584 6.13891 7.47833 6.16135 7.49612C6.18378 7.51391 6.20193 7.53654 6.21439 7.56232C6.22684 7.5881 6.23331 7.61636 6.23331 7.64499C6.23331 7.67363 6.22684 7.70189 6.21439 7.72767C6.20193 7.75345 6.18378 7.77608 6.16135 7.79387C6.13891 7.81166 6.11275 7.82415 6.08481 7.8304C6.05687 7.83666 6.02788 7.83652 6 7.82999C5.95226 7.82999 5.90647 7.81103 5.87271 7.77727C5.83895 7.74352 5.82001 7.69773 5.82001 7.64999V7.64999ZM4.92001 6.79999C4.92001 6.74264 4.93701 6.68657 4.96887 6.63888C5.00074 6.59119 5.04604 6.55402 5.09903 6.53207C5.15202 6.51012 5.21032 6.50438 5.26657 6.51557C5.32283 6.52676 5.37451 6.55438 5.41507 6.59493C5.45563 6.63549 5.48323 6.68716 5.49442 6.74342C5.5056 6.79967 5.49989 6.85798 5.47794 6.91097C5.45599 6.96396 5.41881 7.00925 5.37112 7.04112C5.32343 7.07299 5.26735 7.08999 5.20999 7.08999C5.13308 7.08999 5.05933 7.05944 5.00494 7.00505C4.95056 6.95067 4.92001 6.87691 4.92001 6.79999V6.79999ZM9.82999 5.31999C9.83566 5.34636 9.83566 5.37363 9.82999 5.39999V5.66999C9.8246 5.74323 9.8246 5.81676 9.82999 5.88999C9.65667 6.95868 9.10879 7.93083 8.28433 8.63253C7.45988 9.33424 6.41263 9.71971 5.32999 9.71999C4.83657 9.72243 4.34632 9.64128 3.88 9.47999C3.59509 9.39685 3.32265 9.27577 3.07001 9.11999L2.89999 8.99999C2.80911 8.88648 2.75961 8.74541 2.75961 8.59999C2.75961 8.45458 2.80911 8.3135 2.89999 8.19999V8.19999C3.08811 7.9773 3.35146 7.83141 3.64001 7.78999C3.76607 7.77279 3.89442 7.79077 4.01089 7.84195C4.12737 7.89312 4.2274 7.97551 4.29999 8.07999V8.07999C4.72568 8.50173 5.29694 8.74409 5.89603 8.75712C6.49511 8.77014 7.07637 8.55283 7.51999 8.14999C8.41999 7.26999 7.96999 5.02999 7.73999 4.93999C7.50999 4.84999 6.92999 5.46999 6.92999 5.46999C6.64547 5.28515 6.31726 5.17858 5.97842 5.16102C5.63959 5.14347 5.3021 5.21554 5 5.36999C4.94398 5.72852 4.79687 6.06667 4.57275 6.35207C4.34864 6.63747 4.05502 6.86056 3.72 6.99999H3.64999C3.58478 7.02455 3.51798 7.0446 3.45001 7.05999C3.15135 7.14566 2.83771 7.16588 2.53052 7.11929C2.22333 7.07269 1.92983 6.96037 1.67001 6.78999C1.6114 6.76168 1.55744 6.72458 1.51001 6.67999V6.67999C1.61643 6.6903 1.72357 6.6903 1.82999 6.67999C2.0038 6.64871 2.1604 6.55547 2.27072 6.41757C2.38105 6.27966 2.43762 6.10643 2.42999 5.92999C2.41964 5.76501 2.35204 5.60881 2.23886 5.48832C2.12568 5.36784 1.97401 5.29062 1.81 5.26999C1.69539 5.23898 1.5746 5.23898 1.45999 5.26999C1.60306 4.92115 1.78417 4.58915 2 4.27999C2.5 3.57999 2.13999 2.42999 2.67999 1.63999C3.21999 0.849994 3.57999 0.949994 3.57999 0.949994C3.57999 0.949994 5.19 1.53999 5.28 2.37999C5.37 3.21999 5.09001 4.61999 6.76001 4.57999C8.43001 4.53999 8.22999 1.68999 5.23999 0.809994C5.16334 0.788847 5.08948 0.758634 5.01999 0.719994C5.00928 0.715326 5.00017 0.707636 4.99377 0.697867C4.98738 0.688097 4.98398 0.676672 4.98398 0.664994C4.98398 0.653315 4.98738 0.641891 4.99377 0.632121C5.00017 0.622351 5.00928 0.614661 5.01999 0.609994H5.23001C5.85275 0.608366 6.46909 0.735436 7.04041 0.983235C7.61172 1.23103 8.12565 1.59421 8.54999 2.04999V2.04999C8.88917 2.40455 9.16637 2.81358 9.37 3.25999V3.25999V3.34999C9.37181 3.37663 9.37181 3.40336 9.37 3.42999V3.42999V3.50999V3.57999V3.64999V3.71999V3.78999V3.99999V4.05999V4.31999C9.37467 4.33972 9.37467 4.36027 9.37 4.37999V4.37999C9.37467 4.39972 9.37467 4.42027 9.37 4.43999V4.83999V5.22999L9.82999 5.31999ZM5.28 0.149994C6.26891 0.149994 7.23562 0.443239 8.05786 0.992646C8.88011 1.54205 9.52095 2.32295 9.89938 3.23658C10.2778 4.15021 10.3769 5.15554 10.1839 6.12545C9.991 7.09535 9.51478 7.98627 8.81552 8.68553C8.11626 9.38479 7.22537 9.86099 6.25546 10.0539C5.28556 10.2468 4.28021 10.1478 3.36658 9.76939C2.45295 9.39095 1.67206 8.75009 1.12265 7.92784C0.573243 7.1056 0.279999 6.1389 0.279999 5.14999C0.279999 3.82391 0.806794 2.55214 1.74448 1.61446C2.68216 0.676778 3.95392 0.149994 5.28 0.149994Z" fill="#FDFDFD"/>
</svg>
