<svg viewBox="0 0 12 8" fill="none" xmlns="http://www.w3.org/2000/svg">
<path fill-rule="evenodd" clip-rule="evenodd" d="M6 5.11002C5.74642 5.112 5.49797 5.03861 5.28616 4.89917C5.07436 4.75974 4.90875 4.56053 4.81033 4.32682C4.71192 4.09311 4.68513 3.83544 4.73338 3.58649C4.78164 3.33754 4.90275 3.10853 5.08136 2.92851C5.25997 2.7485 5.48802 2.6256 5.73659 2.57539C5.98515 2.52519 6.24302 2.54994 6.47749 2.64652C6.71197 2.7431 6.91248 2.90715 7.05357 3.11786C7.19467 3.32856 7.27 3.57643 7.27 3.83002C7.27001 4.16777 7.13652 4.49183 6.89864 4.73159C6.66075 4.97136 6.33774 5.10738 6 5.11002V5.11002ZM3.67999 4.41002H3.88001C3.83309 4.25064 3.80621 4.08604 3.8 3.92002H3.67999C3.56383 3.93532 3.44617 3.93532 3.33 3.92002C3.13205 3.86136 2.95122 3.75569 2.80295 3.61201C2.65467 3.46834 2.54335 3.29094 2.47849 3.09493C2.41362 2.89893 2.39712 2.69014 2.4304 2.48638C2.46369 2.28262 2.54579 2.08993 2.66966 1.92476C2.79354 1.75959 2.95553 1.62684 3.14182 1.53783C3.3281 1.44882 3.53317 1.40619 3.7395 1.41358C3.94583 1.42098 4.1473 1.47817 4.32674 1.58028C4.50618 1.6824 4.65827 1.8264 4.77 2.00002C4.89895 1.91313 5.0363 1.83942 5.17999 1.78002C5.02851 1.51965 4.81095 1.30393 4.5493 1.15466C4.28766 1.0054 3.99122 0.927907 3.69 0.930016C3.31217 0.917368 2.9406 1.02883 2.63211 1.24736C2.32362 1.46588 2.0952 1.77944 1.9818 2.14008C1.86839 2.50071 1.87624 2.88857 2.00414 3.24432C2.13203 3.60007 2.37293 3.90414 2.69 4.11002C2.15599 4.30651 1.69513 4.66214 1.36966 5.12888C1.04419 5.59562 0.869787 6.151 0.869995 6.72002H1.33C1.32948 6.15978 1.53169 5.61827 1.89931 5.19551C2.26693 4.77275 2.77512 4.49729 3.33 4.42002H3.61L3.67999 4.41002ZM9.27 4.12002C9.58305 3.9163 9.82176 3.61675 9.95045 3.26614C10.0792 2.91552 10.0909 2.53267 9.98402 2.1748C9.87712 1.81694 9.65726 1.50329 9.35733 1.28072C9.0574 1.05816 8.6935 0.938632 8.32001 0.940016C7.87262 0.936872 7.4418 1.10919 7.12 1.42002C7.00117 1.52682 6.89994 1.65168 6.82001 1.79002C6.9637 1.84942 7.10105 1.92313 7.23 2.01002C7.314 1.87756 7.41865 1.7594 7.53999 1.66002C7.76535 1.49189 8.03884 1.40073 8.32001 1.40002C8.63138 1.39396 8.93412 1.50252 9.17068 1.70507C9.40725 1.90762 9.56115 2.19004 9.60312 2.49863C9.64509 2.80722 9.57221 3.12048 9.39833 3.37885C9.22445 3.63723 8.96169 3.8227 8.66 3.90002C8.54714 3.91456 8.43287 3.91456 8.32001 3.90002H8.19C8.18705 4.06562 8.16353 4.23021 8.12 4.39002H8.32001H8.59C9.14488 4.46729 9.65307 4.74274 10.0207 5.16551C10.3883 5.58827 10.5905 6.12977 10.59 6.69002H11.06C11.0595 6.11981 10.8836 5.56356 10.5562 5.09668C10.2289 4.6298 9.76588 4.27487 9.23 4.08002L9.27 4.12002ZM7 5.28002C7.31191 5.07368 7.54903 4.77235 7.67624 4.42067C7.80345 4.06899 7.81397 3.68568 7.70624 3.32756C7.5985 2.96944 7.37825 2.65555 7.07812 2.43243C6.778 2.2093 6.41397 2.08881 6.03999 2.08881C5.66602 2.08881 5.302 2.2093 5.00188 2.43243C4.70175 2.65555 4.4815 2.96944 4.37376 3.32756C4.26603 3.68568 4.27654 4.06899 4.40375 4.42067C4.53096 4.77235 4.76809 5.07368 5.08 5.28002C4.54599 5.47651 4.08513 5.83214 3.75966 6.29888C3.43419 6.76562 3.25979 7.321 3.25999 7.89002H3.72C3.72 7.27471 3.96442 6.68461 4.39951 6.24953C4.83459 5.81444 5.42469 5.57002 6.03999 5.57002C6.6553 5.57002 7.2454 5.81444 7.68048 6.24953C8.11557 6.68461 8.36 7.27471 8.36 7.89002H8.82001C8.82022 7.321 8.6458 6.76562 8.32033 6.29888C7.99486 5.83214 7.53401 5.47651 7 5.28002V5.28002Z" fill="#FDFDFD"/>
</svg>
