<svg viewBox="0 0 8 9" fill="none" xmlns="http://www.w3.org/2000/svg">
<path fill-rule="evenodd" clip-rule="evenodd" d="M6.40002 4.89999V4.69999H5.72998V4.89999H4.53003L4.33002 4.26999H2.91998L2.71002 4.89999H1.90997V4.58999H0.909973V4.89999H0.210022V8.78999H7.06V4.89999H6.40002ZM1 8.29999C0.946957 8.29999 0.896089 8.27892 0.858582 8.24141C0.821074 8.2039 0.799988 8.15303 0.799988 8.09999C0.799988 8.04695 0.821074 7.99608 0.858582 7.95857C0.896089 7.92106 0.946957 7.89999 1 7.89999C1.05304 7.89999 1.10391 7.92106 1.14142 7.95857C1.17893 7.99608 1.20001 8.04695 1.20001 8.09999C1.20001 8.15303 1.17893 8.2039 1.14142 8.24141C1.10391 8.27892 1.05304 8.29999 1 8.29999V8.29999ZM3.67999 8.41999C3.36905 8.41998 3.0651 8.32765 2.8067 8.15469C2.5483 7.98173 2.34711 7.73593 2.22858 7.44847C2.11005 7.16101 2.07954 6.84482 2.14093 6.54C2.20232 6.23518 2.35286 5.95546 2.57343 5.73629C2.794 5.51713 3.07468 5.36839 3.37988 5.30895C3.68509 5.2495 4.00108 5.28202 4.28778 5.40239C4.57448 5.52275 4.81899 5.72554 4.9903 5.98504C5.1616 6.24453 5.25198 6.54905 5.25 6.85999C5.25 7.06569 5.20933 7.26937 5.13031 7.45929C5.05129 7.64922 4.93547 7.82164 4.78955 7.96663C4.64363 8.11162 4.47045 8.22632 4.28003 8.30412C4.08961 8.38193 3.88569 8.42131 3.67999 8.41999ZM3.67999 5.56999C3.93513 5.56999 4.18453 5.64565 4.39667 5.78739C4.60881 5.92914 4.77419 6.13061 4.87183 6.36633C4.96946 6.60204 4.99497 6.86142 4.94519 7.11166C4.89542 7.36189 4.77257 7.59175 4.59216 7.77216C4.41175 7.95257 4.18188 8.07543 3.93164 8.1252C3.68141 8.17498 3.42206 8.14943 3.18634 8.05179C2.95062 7.95416 2.74917 7.78881 2.60742 7.57667C2.46567 7.36454 2.39001 7.11513 2.39001 6.85999C2.39001 6.51786 2.5259 6.18974 2.76782 5.94782C3.00974 5.7059 3.33786 5.56999 3.67999 5.56999V5.56999ZM3.67999 7.68999C3.45986 7.68999 3.24873 7.60254 3.09308 7.44689C2.93742 7.29123 2.84998 7.08012 2.84998 6.85999C2.84998 6.63986 2.93742 6.42875 3.09308 6.27309C3.24873 6.11744 3.45986 6.02999 3.67999 6.02999C3.90012 6.02999 4.11125 6.11744 4.26691 6.27309C4.42256 6.42875 4.51001 6.63986 4.51001 6.85999C4.51001 7.08012 4.42256 7.29123 4.26691 7.44689C4.11125 7.60254 3.90012 7.68999 3.67999 7.68999V7.68999Z" fill="#FDFDFD"/>
<path fill-rule="evenodd" clip-rule="evenodd" d="M5.73 3.63001C5.5985 3.64974 5.46441 3.64304 5.33553 3.61031C5.20665 3.57758 5.0856 3.51947 4.97945 3.43939C4.8733 3.35931 4.78417 3.25887 4.71731 3.14393C4.65044 3.02899 4.60719 2.90187 4.59005 2.77001C4.56459 2.60761 4.57956 2.44144 4.63363 2.2862C4.6877 2.13097 4.7792 1.99145 4.90004 1.88001L5.28005 2.49001C5.27027 2.5429 5.27027 2.59713 5.28005 2.65001C5.28186 2.69342 5.29272 2.73596 5.31203 2.77487C5.33134 2.81379 5.35864 2.84821 5.39211 2.8759C5.42558 2.9036 5.46453 2.92395 5.50637 2.93564C5.54821 2.94733 5.59199 2.95009 5.63497 2.94375C5.67795 2.93741 5.71914 2.92211 5.75582 2.89883C5.7925 2.87556 5.82388 2.84484 5.84792 2.80865C5.87197 2.77247 5.88816 2.73164 5.89541 2.68881C5.90266 2.64597 5.90083 2.60209 5.89004 2.56001C5.87768 2.47932 5.83398 2.40676 5.76845 2.35809C5.70292 2.30941 5.62082 2.28854 5.54 2.30001V2.30001L5.15004 1.70001C5.24795 1.65175 5.35239 1.61806 5.46004 1.60001C5.72526 1.56156 5.99489 1.63003 6.20962 1.79038C6.42434 1.95072 6.56654 2.1898 6.605 2.45501C6.64346 2.72023 6.57498 2.98986 6.41463 3.20459C6.25429 3.41932 6.01524 3.56156 5.75002 3.60001L5.73 3.63001ZM2.73 1.99001C2.72298 1.97785 2.71932 1.96406 2.71932 1.95001C2.71932 1.93597 2.72298 1.92217 2.73 1.91001L3.02004 1.56001C3.04586 1.52512 3.0803 1.49755 3.12002 1.48001L4.05001 1.05001L3.05001 2.71001L2.71999 2.00001L2.73 1.99001ZM2.82003 2.93001H2.92L2.54 2.16001L2.45003 2.27001C2.63242 2.44976 2.75764 2.67936 2.81002 2.93001H2.82003ZM2.27004 2.51001C2.38759 2.63675 2.47027 2.79179 2.51003 2.96001L1.87002 3.02001L2.27004 2.51001ZM1.68001 4.21001C1.54869 4.22906 1.41489 4.22204 1.28628 4.18938C1.15766 4.15672 1.03676 4.09904 0.93044 4.01965C0.824117 3.94026 0.734493 3.8407 0.666646 3.72666C0.598799 3.61262 0.554035 3.48634 0.534993 3.35501C0.515952 3.22369 0.522961 3.0899 0.555623 2.96129C0.588286 2.83268 0.645968 2.71176 0.725362 2.60544C0.804756 2.49911 0.904353 2.40947 1.01839 2.34162C1.13243 2.27378 1.25871 2.22906 1.39003 2.21001C1.63062 2.17444 1.87593 2.22777 2.08004 2.36001L1.64003 2.92001C1.59112 2.90528 1.53892 2.90528 1.49001 2.92001C1.41046 2.93469 1.3394 2.97894 1.29116 3.04388C1.24292 3.10882 1.22108 3.18961 1.23 3.27001C1.24236 3.3507 1.28605 3.42326 1.35158 3.47194C1.41711 3.52062 1.49922 3.54149 1.58004 3.53001C1.64462 3.52217 1.70489 3.49354 1.75179 3.44845C1.79869 3.40336 1.82968 3.34424 1.84005 3.28001V3.28001L2.54 3.22001C2.54239 3.46267 2.45647 3.69791 2.29824 3.88189C2.14001 4.06588 1.92029 4.18605 1.68001 4.22001V4.21001ZM5.40999 1.32001C5.25501 1.34111 5.10558 1.39204 4.96999 1.47001L4.42 0.630013C4.41474 0.620892 4.41201 0.610545 4.41201 0.600013C4.41201 0.589481 4.41474 0.579134 4.42 0.570013L4.68001 0.290013C4.68992 0.260831 4.68992 0.229196 4.68001 0.200013C4.67567 0.184699 4.66809 0.17051 4.65774 0.158424C4.64738 0.146339 4.63449 0.136645 4.62002 0.130013V0.130013C4.59097 0.119298 4.55909 0.119298 4.53005 0.130013C4.51762 0.123845 4.50389 0.120636 4.49001 0.120636C4.47613 0.120636 4.46246 0.123845 4.45003 0.130013L4.15999 0.430013C4.15122 0.445215 4.14663 0.46246 4.14663 0.480013C4.14663 0.497567 4.15122 0.514811 4.15999 0.530013V0.530013V0.610013L2.51003 1.37001L2.23 1.00001C2.21671 0.976905 2.19789 0.957482 2.17519 0.943511C2.15249 0.92954 2.12661 0.921463 2.1 0.920013V0.920013C2.15531 0.878872 2.21589 0.845246 2.28005 0.820013H2.40004C2.40621 0.807581 2.40938 0.793891 2.40938 0.780013C2.40938 0.766135 2.40621 0.752445 2.40004 0.740013C2.39708 0.721446 2.38893 0.704092 2.37655 0.689942C2.36416 0.675792 2.34805 0.665419 2.33004 0.660013H2.18001C2.05234 0.716895 1.91795 0.757222 1.78005 0.780013C1.71367 0.788824 1.64641 0.788824 1.58004 0.780013H1.51003C1.48242 0.782902 1.4557 0.791506 1.4316 0.805279C1.4075 0.819052 1.38652 0.837692 1.37002 0.860013C1.35984 0.883707 1.35457 0.909225 1.35457 0.935013C1.35457 0.960801 1.35984 0.98632 1.37002 1.01001C1.3593 1.03906 1.3593 1.07097 1.37002 1.10001C1.44403 1.12852 1.52598 1.12852 1.6 1.10001C1.63984 1.10493 1.68014 1.10493 1.71999 1.10001L2.00002 1.00001C1.99299 1.01397 1.98934 1.02938 1.98934 1.04501C1.98934 1.06064 1.99299 1.07606 2.00002 1.09001L2.40004 1.90001C2.41009 1.92573 2.41009 1.95429 2.40004 1.98001L2.27004 2.14001C2.00358 1.94998 1.6736 1.87108 1.35 1.92001C1.09743 1.95488 0.860413 2.06216 0.667501 2.22886C0.474589 2.39557 0.334076 2.61458 0.26296 2.85942C0.191843 3.10427 0.193157 3.36447 0.266744 3.60858C0.340331 3.8527 0.483046 4.07027 0.677633 4.23502C0.872219 4.39977 1.11033 4.50464 1.36324 4.53696C1.61615 4.56928 1.87298 4.52766 2.10274 4.41714C2.3325 4.30661 2.52537 4.13191 2.65798 3.91415C2.79059 3.69638 2.85726 3.44487 2.85 3.19001H3.05001C3.14277 3.16983 3.22677 3.12083 3.29 3.05001L4.43001 1.15001L4.75002 1.65001C4.5856 1.79559 4.4595 1.97934 4.38277 2.1851C4.30605 2.39087 4.28105 2.61233 4.31002 2.83001C4.34819 3.08595 4.4613 3.32485 4.63509 3.51658C4.80888 3.7083 5.03555 3.84427 5.28652 3.90731C5.53749 3.97036 5.80154 3.95766 6.04531 3.87083C6.28907 3.784 6.50162 3.62692 6.65621 3.4194C6.8108 3.21189 6.90046 2.96323 6.9139 2.70481C6.92734 2.4464 6.86395 2.18978 6.73171 1.96736C6.59947 1.74493 6.40436 1.56664 6.17092 1.45499C5.93748 1.34335 5.67616 1.30334 5.42 1.34001L5.40999 1.32001Z" fill="#FDFDFD"/>
</svg>
