<svg xmlns="http://www.w3.org/2000/svg" viewBox="0 0 7.86 8.38"><defs><style>.cls-1{fill:#fff;fill-rule:evenodd;}</style></defs><g id="Camada_2" data-name="Camada 2"><g id="Camada_1-2" data-name="Camada 1"><path class="cls-1" d="M4.27,4.48A2.77,2.77,0,0,0,.61,5.9.31.31,0,0,0,.58,6a.36.36,0,0,0,.06.2.34.34,0,0,0,.16.13.33.33,0,0,0,.15,0H2.77L3.41,7H1a1,1,0,0,1-.39-.08.86.86,0,0,1-.4-.35A.91.91,0,0,1,0,6a1,1,0,0,1,.08-.37A3.33,3.33,0,0,1,1.33,4.21a3.28,3.28,0,0,1,1.3-.51,1.72,1.72,0,0,1-.81-.48h0a1.87,1.87,0,0,1-.55-1.33A1.92,1.92,0,0,1,1.81.55h0A1.89,1.89,0,0,1,5,1.89a1.84,1.84,0,0,1-.56,1.33,1.72,1.72,0,0,1-.81.48A3.28,3.28,0,0,1,5,4.21a3.18,3.18,0,0,1,.37.27ZM4.08,2.81A1.31,1.31,0,0,0,2.23,1h0a1.35,1.35,0,0,0-.38.93,1.31,1.31,0,0,0,.38.92h0a1.28,1.28,0,0,0,.92.39A1.32,1.32,0,0,0,4.08,2.81Z"/><polygon class="cls-1" points="6.6 6.09 6.86 4.72 3.74 4.72 4 6.09 2.8 6.09 5.33 8.38 7.86 6.09 6.6 6.09"/></g></g></svg>