<svg xmlns="http://www.w3.org/2000/svg" viewBox="0 0 18.24 5.51"><defs><style>.cls-1{fill:#fff;fill-rule:evenodd;}</style></defs><g id="Camada_2" data-name="Camada 2"><g id="Camada_1-2" data-name="Camada 1"><path class="cls-1" d="M0,4.3H.85V0H0V4.3ZM1.16,1.73h0v.85H2.89V5.51h.83V0H2.89V1.73ZM6.9,4.31h.82V.84H6a1.63,1.63,0,0,0-1.19.51,1.71,1.71,0,0,0-.5,1.24,1.68,1.68,0,0,0,.49,1.22A1.63,1.63,0,0,0,6,4.31h.58V3.48H6a.79.79,0,0,1-.6-.26.85.85,0,0,1-.25-.63A.89.89,0,0,1,5.38,2,.82.82,0,0,1,6,1.7h.9V4.31Zm1.39,0h.85V2.13a.46.46,0,0,1,.13-.31.41.41,0,0,1,.31-.12h.72V.86H9.58a1.21,1.21,0,0,0-.89.36,1.45,1.45,0,0,0-.41.91V4.31ZM14.23,0h-.84V3.47h-.91a.8.8,0,0,1-.61-.26.85.85,0,0,1-.25-.63A.88.88,0,0,1,11.87,2a.8.8,0,0,1,.62-.26h.57V.84h-.57a1.62,1.62,0,0,0-1.21.51,1.7,1.7,0,0,0-.49,1.23,1.67,1.67,0,0,0,.49,1.23,1.61,1.61,0,0,0,1.22.49h1.73V0Zm4,0H17.4V3.47h-.9a.78.78,0,0,1-.61-.26.85.85,0,0,1-.25-.63.93.93,0,0,1,.24-.64.82.82,0,0,1,.62-.26h.56V.84H16.5a1.62,1.62,0,0,0-1.21.51,1.7,1.7,0,0,0-.49,1.23,1.64,1.64,0,0,0,.49,1.22,1.61,1.61,0,0,0,1.21.5h1.74Z"/></g></g></svg>