<svg xmlns="http://www.w3.org/2000/svg" viewBox="0 0 3.26 3.26"><defs><style>.cls-1{fill:#e6e7e8;fill-rule:evenodd;}</style></defs><g id="Camada_2" data-name="Camada 2"><g id="Camada_1-2" data-name="Camada 1"><path class="cls-1" d="M3,2.32A.65.65,0,0,1,2.32,3H.94a.65.65,0,0,1-.65-.65V.94A.65.65,0,0,1,.94.29H2.32A.65.65,0,0,1,3,.94V2.32ZM1.63,2.16a.53.53,0,1,0-.53-.53.53.53,0,0,0,.53.53Zm0-1.37a.85.85,0,0,0-.84.84.84.84,0,0,0,.84.83.83.83,0,0,0,.83-.83A.84.84,0,0,0,1.63.79Zm1.06,0A.2.2,0,0,0,2.5.56a.2.2,0,0,0-.2.19.2.2,0,1,0,.39,0ZM2.34,0H.92A.92.92,0,0,0,0,.92V2.34a.92.92,0,0,0,.92.92H2.34a.92.92,0,0,0,.92-.92V.92A.92.92,0,0,0,2.34,0Z"/></g></g></svg>