<svg xmlns="http://www.w3.org/2000/svg" viewBox="0 0 6.44 6.43"><defs><style>.cls-1{fill:#231f20;fill-rule:evenodd;}</style></defs><g id="Camada_2" data-name="Camada 2"><g id="Camada_1-2" data-name="Camada 1"><path class="cls-1" d="M5,1.12H5a.39.39,0,1,1-.39.38A.38.38,0,0,1,5,1.12ZM3.21,4.28A1.07,1.07,0,0,0,4.28,3.23,1.06,1.06,0,0,0,3.23,2.15h0A1.08,1.08,0,0,0,2.15,3.21,1,1,0,0,0,3.2,4.28Zm0-2.71A1.66,1.66,0,0,0,1.57,3.22,1.63,1.63,0,0,0,3.2,4.87,1.67,1.67,0,0,0,4.87,3.22,1.64,1.64,0,0,0,3.23,1.57ZM5.78,4.83a23.89,23.89,0,0,0,0-3.16,1.09,1.09,0,0,0-1-1A15.24,15.24,0,0,0,3.24.58C2.6.58,2,.6,1.69.63a1.1,1.1,0,0,0-1,1,22.13,22.13,0,0,0,0,3.25,1,1,0,0,0,.79.91,10.12,10.12,0,0,0,1.73.09c.68,0,1.34,0,1.59,0a1.1,1.1,0,0,0,1-1ZM6.4,1.61A1.65,1.65,0,0,0,5.88.52,1.73,1.73,0,0,0,4.71,0c-.37,0-1,0-1.57,0A13.46,13.46,0,0,0,1.52.07,1.65,1.65,0,0,0,.12,1.32,19,19,0,0,0,.06,4.93,1.63,1.63,0,0,0,1.34,6.34a12,12,0,0,0,1.79.09,14.87,14.87,0,0,0,1.78-.07A1.65,1.65,0,0,0,6.33,5.07,22.34,22.34,0,0,0,6.4,1.61Z"/></g></g></svg>