<svg xmlns="http://www.w3.org/2000/svg" viewBox="0 0 15.69 15.69"><defs><style>.cls-1{fill:#fff;fill-rule:evenodd;}</style></defs><g id="Camada_2" data-name="Camada 2"><g id="Camada_1-2" data-name="Camada 1"><path class="cls-1" d="M.19,0h1.1V.38H.38v.91H0V0ZM14.4,0h1.29V1.29h-.38V.38H14.4V0Zm1.29,14.4v1.29H14.4v-.38h.91V14.4ZM1.29,15.69H0V14.4H.38v.91h.91Z"/><polygon class="cls-1" points="2.4 3.43 4.44 3.43 5.21 6.47 5.99 3.43 8.02 3.43 8.02 8.43 6.75 8.43 6.75 4.62 5.78 8.43 4.64 8.43 3.66 4.62 3.66 8.43 2.4 8.43 2.4 3.43"/><polygon class="cls-1" points="2.4 8.81 4.44 8.81 5.21 11.85 5.99 8.81 8.02 8.81 8.02 13.8 6.75 13.8 6.75 9.99 5.78 13.8 4.64 13.8 3.66 9.99 3.66 13.8 2.4 13.8 2.4 8.81"/><polygon class="cls-1" points="8.39 8.81 13.09 8.81 13.09 9.88 9.94 9.88 9.94 10.67 12.9 10.67 12.9 11.69 9.94 11.69 9.94 12.67 13.17 12.67 13.17 13.8 8.39 13.8 8.39 8.81"/><path class="cls-1" d="M9.69,6.88h.45V6.82H9.69v.06Zm1.54,1.56h.07V8.37h0V8.18h-.13v.06H11v.07h-.07v.06H11v.07h.06V8.37h.13v.07Zm-.13-.07H11V8.31h.06v.06Zm-.32.07h.07V8.37h-.13V8.24h-.06v.13h.06v.07Zm-.32,0V8.37H10.4v.07h-.19V8.37h0V8.31h.06V8.24h-.06V8.11h.06v.07h.06V8.11h.07V8.05h.06v.06h.07V8.05h.06v.06h.07v.13h-.07v.07h.07v.06h-.07V8.31h-.06V8.24h-.07v.13h.07v.07Zm-.13-.07V8.31h-.06v.06Zm-.25.07h.06V8.37h0V8.11h0V8.05h-.06v.06h0v.26H9.76V8.11h0V8.05H9.69v.06h0v.26h0v.07h.39Zm.32-.13V8.24h.06V8.18h-.13v.13Zm.38,0V8.24h.07V8.18h-.19V8.11h0V8.05h.12v.06H11V8.05H11v.06h0v.07h-.13v.06h-.06v.07Zm-.83,0H9.82v-.2H10v.2Zm.64-.13V8.11h-.06v.07Zm.64-.07h.07V8.05h-.07v.06Zm0-.06V8H11.1V7.85h.13V8h.07v.07Zm-.25,0H11v-.2h-.38v.07h.06v.13h.06V7.92H11v.13Zm-.13,0h.06V8h-.06v.07Zm-.26,0h.07V8h-.07v.07Zm-.13,0h.07V8h-.07V7.92h.13V7.85h-.26v.07h-.12V7.85h-.13v.07h.13V8h.12v.07h.07V8h.06v.07ZM10.4,8h-.07V7.92h.07V8Zm-.32.07H9.69V8h.45v.07ZM10,7.92H10V7.85H9.82v.07H10Zm-.26,0h.07V7.85H9.69v.07Zm1.54-.07h.07V7.79h0V7.72H11v.07h-.07V7.72h-.13v.07h-.06V7.72h-.06v.07h.06v.06h.13V7.79h.06v.06H11V7.79H11v.06h.13V7.79h.06v.06Zm-.64,0V7.79h0V7.72h.07v.07h0v.06Zm-.13,0V7.79h.07v.06Zm-.19,0V7.79h0V7.72h.06v.07h0v.06Zm-.13,0V7.79h-.06v.06H10V7.79H9.89V7.72h.32v.07h0v.06Zm-.45,0V7.79h0V7.72h.13v.07H9.76v.06Zm1.48-.13V7.66h.06V7.59H11V7.47H11v.12h-.07v.07h-.06v.06h-.19V7.59h0V7.4h.06v.07h.06V7.4h.07v.07h.06V7.4h.32v.07h.07v.12h0v.07h-.07v.06Zm-.19,0V7.66H11v.06Zm-.13-.06V7.59h.06V7.53h-.06V7.47h-.07v.06h-.06v.06h0v.07h.13Zm-.26.06V7.59h.07v.13Zm-.13,0h.07V7.66h-.07v.06Zm-.13,0h.07V7.59h-.13V7.53h.06V7.47h.07V7.4h-.07v.07h-.12V7.4h-.07v.07h-.06V7.4H10v.13H10V7.47h.07v.06h.06v.06h-.06v.07H10v.06h.07V7.66h.06v.06h.07V7.66h.12v.06Zm-.12-.06h-.07V7.59h.07v.07Zm-.32.06H10V7.59H9.82V7.53h.07V7.4h-.2v.19h.13v.13Zm-.2,0h.07V7.66H9.69v.06Zm1.54-.19V7.47H11.1v.06h.13Zm-1.41,0H9.76V7.47h.06v.06Zm.64,0h.07V7.47h.13V7.4h-.13v.07h-.07v.06Zm.77-.13h.07V7.34h-.07V7.4Zm-.38,0h.06V7.34h-.06V7.4Zm-.19,0h.06V7.34h-.06V7.4Zm-.07,0h.07V7.34h-.07V7.27h.07V7.14h0V7.08h-.07V7h-.06v.07h-.07V7h-.13v.07h0v.06h-.06v.07h-.06v.13h.06V7.4h.06V7.27h.07V7.21h.06V7.4h.07V7.34h.06V7.4Zm-.51,0V7.34h.06V7.4ZM10,7.4H9.89V7.34H10V7.4Zm-.19,0H9.69V7.34h.13V7.4Zm.83-.13h-.06V7.21h-.07V7.14h.07V7.08h.06v.06h0v.13Zm-.26,0h-.06V7.21h.06v.06Zm.9,0h.07V7.14h0V7.08h0V7h-.07v.07h0v.06h0v.07h-.32V7.14h0V7.08h0V7h-.06v.07h0v.06h0v.13h.38Zm-.51,0V7.14h0V7.08h-.06V7h.12v.07h0v.06h0v.13Zm-.32-.06h-.07V7.14h.07v.07Zm-.32.06h.06V7.14h0V7.08h0V7h-.06v.07h0v.06h0v.07H9.76V7.14h0V7.08h0V7H9.69v.07h0v.06h0v.13h.39Zm1-.13H11V7.08h0V7h.19v.07h0v.06ZM10,7.14H9.82V7.08h0V7H10v.07h0v.06ZM11.23,7V7h0V6.88h.07V7h0V7ZM11.1,7H11V7h.19V7Zm-.25,0V7h0V6.88h.06V7h0V7Zm-.13,0h-.06V7h.06V6.88h.06V7h0V7Zm-.19,0V7h-.07V7H10.4V7h0V6.88h.26V7h-.07V7Zm-.26,0V7h.06V7Zm-.19,0V7h0V6.88h.06V7h0V7ZM10,7H9.82V7H10V7ZM9.69,7V7h0V6.88h.07V7h0V7Zm1.54-.13h.07V6.82h-.45v.06h.38Zm-.83,0h.06V6.82h-.25v.06h.19Z"/><polygon class="cls-1" points="7.7 1.89 9.46 1.89 10.5 3.62 11.54 1.89 13.29 1.89 11.3 4.88 11.3 6.45 9.7 6.45 9.7 4.88 7.7 1.89"/></g></g></svg>