<svg xmlns="http://www.w3.org/2000/svg" viewBox="0 0 7.24 9.18"><defs><style>.cls-1{fill:#fff;fill-rule:evenodd;}</style></defs><g id="Camada_2" data-name="Camada 2"><g id="Camada_1-2" data-name="Camada 1"><path class="cls-1" d="M6.54,5.08V4.86H5.83v.22H4.57l-.22-.67H2.87l-.22.67H1.8V4.75H.74v.33H0v4.1H7.24V5.08ZM.79,8.67a.21.21,0,0,1-.21-.21.21.21,0,0,1,.21-.21A.21.21,0,0,1,1,8.46a.21.21,0,0,1-.21.21Zm2.83.13A1.66,1.66,0,1,1,5.27,7.14,1.65,1.65,0,0,1,3.62,8.8Zm0-3A1.37,1.37,0,1,1,2.26,7.14,1.36,1.36,0,0,1,3.62,5.78ZM3.62,8a.88.88,0,1,1,.87-.88A.87.87,0,0,1,3.62,8Z"/><path class="cls-1" d="M5.83,3.74A1.07,1.07,0,0,1,5,1.89l.4.64s0,0,0,0a.29.29,0,0,0,0,.16A.33.33,0,0,0,5.73,3,.32.32,0,0,0,6,2.63a.32.32,0,0,0-.36-.28h0L5.2,1.72a1.42,1.42,0,0,1,.33-.11,1.08,1.08,0,0,1,1.21.92,1.07,1.07,0,0,1-.91,1.21ZM2.66,2s0-.06,0-.08L3,1.54l.11-.08,1-.45L3,2.77,2.66,2Zm.09,1h.11l-.4-.81-.09.11h0a1.42,1.42,0,0,1,.38.7Zm-.58-.45A1.18,1.18,0,0,1,2.43,3l-.69.06.43-.54Zm-.62,1.8a1.08,1.08,0,0,1-.3-2.13A1.08,1.08,0,0,1,2,2.39L1.51,3h0a.38.38,0,0,0-.15,0,.31.31,0,0,0-.27.36.32.32,0,0,0,.36.28.32.32,0,0,0,.27-.27h0l.74-.06a1.07,1.07,0,0,1-.91,1.07Zm3.94-3A1.36,1.36,0,0,0,5,1.45L4.44.56s0-.05,0-.06L4.71.21a.1.1,0,0,0,0-.1A.07.07,0,0,0,4.68,0l0,0a.14.14,0,0,0-.18,0l-.3.31,0,0a.08.08,0,0,0,0,.1.17.17,0,0,0,0,.05l.06.08v0h0l-1.75.81,0,0L2.14,1A.17.17,0,0,0,2,.88l.06,0,0,0A.54.54,0,0,1,2.29.71l.13,0a.08.08,0,0,0,0-.09A.09.09,0,0,0,2.4.5l-.13,0h0a1.71,1.71,0,0,1-.41.12.92.92,0,0,1-.22,0H1.53a.2.2,0,0,0-.15.09.2.2,0,0,0,0,.15.13.13,0,0,0,0,.09.35.35,0,0,0,.25,0,.49.49,0,0,0,.12,0h0l.1,0v0a.07.07,0,0,0,0,.09l.43.86A.08.08,0,0,1,2.3,2l-.13.17a1.34,1.34,0,0,0-1-.23A1.38,1.38,0,0,0,0,3.48,1.39,1.39,0,0,0,1.59,4.67,1.39,1.39,0,0,0,2.78,3.25H3a.38.38,0,0,0,.26-.14l1.2-2,.33.54h0a1.44,1.44,0,0,0-.47,1.25,1.38,1.38,0,1,0,2.74-.39A1.38,1.38,0,0,0,5.49,1.3Z"/></g></g></svg>