<svg xmlns="http://www.w3.org/2000/svg" viewBox="0 0 11.58 9.27"><defs><style>.cls-1{fill:#fff;fill-rule:evenodd;}</style></defs><g id="Camada_2" data-name="Camada 2"><g id="Camada_1-2" data-name="Camada 1"><path class="cls-1" d="M2.65,1.23A.25.25,0,1,1,2.89,1a.24.24,0,0,1-.24.24ZM6.9,4.38H5.73a1,1,0,0,1-.82-.67A11,11,0,0,0,4.24,2.3a.14.14,0,0,1,0-.19.13.13,0,0,1,.19,0A12.9,12.9,0,0,1,5.16,3.6a.73.73,0,0,0,.6.51H6.9l.36,0,.1-.22L6,.51A.9.9,0,0,0,5.24,0H3.05a1.06,1.06,0,0,0-.82.48L2.1.71a1,1,0,0,1-.82.49H.45A.43.43,0,0,0,0,1.74v0H.09A.13.13,0,0,1,.18,2a.71.71,0,0,0,.45.89.68.68,0,0,0,.54,0,.68.68,0,0,0,.35-.41.15.15,0,0,1,.19-.09.14.14,0,0,1,.09.18,1,1,0,0,1-.5.58l-.1,0h.4a.81.81,0,0,1,.73.52L4,9.27h.86l2.3-4.89Z"/><path class="cls-1" d="M10.36,5.39a.15.15,0,0,1,.15.15.15.15,0,0,1-.15.15.15.15,0,0,1-.16-.15.16.16,0,0,1,.16-.15Zm.49,1.46h.09a.49.49,0,0,0,.32-.1l-.14,0a.73.73,0,0,1-.29-.07.69.69,0,0,1-.32-.37.1.1,0,0,1,.06-.12.09.09,0,0,1,.12.06.45.45,0,0,0,.23.26.44.44,0,0,0,.34,0,.41.41,0,0,0,.26-.22.5.5,0,0,0,0-.34.09.09,0,0,1,0-.11.22.22,0,0,0-.16-.16.92.92,0,0,1-.58-.65l-.06-.18a1,1,0,0,0-.89-.65H9.52a1.16,1.16,0,0,1-1-.62L8.47,3.4c-.15-.34-.41-.34-.57,0L5.14,9.27H9.56l.24-.89L10,7.52A.92.92,0,0,1,10.85,6.85Z"/></g></g></svg>