<svg xmlns="http://www.w3.org/2000/svg" viewBox="0 0 13.85 4.73"><defs><style>.cls-1{fill:#231f20;fill-rule:evenodd;}</style></defs><g id="Camada_2" data-name="Camada 2"><g id="Camada_1-2" data-name="Camada 1"><path class="cls-1" d="M6.09,4.48a0,0,0,1,1-.08,0V1.77A.94.94,0,0,1,7,.82h.8a1,1,0,0,1,.95,1v.57A1,1,0,0,1,8.42,3a1,1,0,0,1-.67.28H6.62a0,0,0,0,1,0,0,0,0,0,0,1,0,0H7.75A.85.85,0,0,0,8.36,3a.87.87,0,0,0,.25-.61V1.77a.89.89,0,0,0-.25-.61A.89.89,0,0,0,7.75.91H7a.85.85,0,0,0-.61.25.87.87,0,0,0-.25.61V4.48Zm4.17-1.2a0,0,0,1,1,0-.08h.34a.6.6,0,0,0,.24-.05A.48.48,0,0,0,11,3l.81-.8.1-.07.12,0,.12,0h0l.1.07.8.8a.66.66,0,0,0,.2.14.67.67,0,0,0,.24,0h.28a0,0,0,0,1,0,.05,0,0,0,0,1,0,0h-.28a.81.81,0,0,1-.27,0A.91.91,0,0,1,13,3.08l-.8-.81-.07,0H12l-.07,0-.8.81a1.14,1.14,0,0,1-.23.15.66.66,0,0,1-.28,0Zm0-2.37s0,0,0-.05a0,0,0,0,1,0,0h.34a.87.87,0,0,1,.28.05.87.87,0,0,1,.23.16l.8.8.07,0,.09,0,.08,0,.08,0L13,1a.57.57,0,0,1,.23-.15.63.63,0,0,1,.27-.06h.28s0,0,0,.05a0,0,0,0,1,0,0h-.28a.69.69,0,0,0-.24,0,.63.63,0,0,0-.2.13l-.8.8a.3.3,0,0,1-.1.07A.37.37,0,0,1,12,2l-.1-.07L11,1.09a.48.48,0,0,0-.2-.14.61.61,0,0,0-.24,0ZM8.88.91A0,0,0,0,1,8.83.86a0,0,0,0,1,.05,0h.34a.41.41,0,0,1,.29.12.41.41,0,0,1,.13.29v2a0,0,0,0,1-.05,0,0,0,0,0,1,0,0v-2A.33.33,0,0,0,9.45,1,.32.32,0,0,0,9.22.91Z"/><path class="cls-1" d="M9.2.49,9,.33A.21.21,0,0,1,9,.26.15.15,0,0,1,9,.19L9.2,0a.11.11,0,0,1,.07,0,.09.09,0,0,1,.07,0L9.5.19a.09.09,0,0,1,0,.07.11.11,0,0,1,0,.07L9.34.49l-.07,0L9.2.49Z"/><path class="cls-1" d="M3.43,3.7h0A.64.64,0,0,1,3,3.51l-.66-.66a.12.12,0,0,0-.18,0l-.66.66A.66.66,0,0,1,1,3.7H.89l.84.84a.69.69,0,0,0,1,0l.83-.84Z"/><path class="cls-1" d="M1,1.36H1a.64.64,0,0,1,.46.19l.66.66a.12.12,0,0,0,.18,0L3,1.55a.64.64,0,0,1,.45-.19h.08L2.67.52a.68.68,0,0,0-.94,0l-.84.84Z"/><path class="cls-1" d="M4.21,2.06,3.7,1.55H3.43a.48.48,0,0,0-.32.13l-.66.66a.31.31,0,0,1-.22.09A.33.33,0,0,1,2,2.35l-.66-.66A.43.43,0,0,0,1,1.55H.71L.2,2.06A.65.65,0,0,0,.2,3l.5.51H1a.42.42,0,0,0,.32-.13L2,2.71a.33.33,0,0,1,.45,0l.66.66a.48.48,0,0,0,.32.13H3.7L4.21,3a.68.68,0,0,0,0-.94Z"/></g></g></svg>