<svg xmlns="http://www.w3.org/2000/svg" viewBox="0 0 6.43 7.56"><defs><style>.cls-1{fill:#fff;fill-rule:evenodd;}</style></defs><g id="Camada_2" data-name="Camada 2"><g id="Camada_1-2" data-name="Camada 1"><path class="cls-1" d="M5.88,2.08H.44A.06.06,0,0,1,.38,2V1.69a.56.56,0,0,1,.55-.56H5.49a.56.56,0,0,1,.56.56V2A.06.06,0,0,1,6,2.08Zm-4,4.17a.19.19,0,0,0,.21.17.21.21,0,0,0,.17-.22l-.38-3A.19.19,0,0,0,1.68,3a.18.18,0,0,0-.16.21l.37,3Zm2.44.17a.19.19,0,0,0,.21-.17l.37-3a.19.19,0,0,0-.37,0l-.38,3a.2.2,0,0,0,.17.22Zm-1.12,0a.19.19,0,0,0,.19-.19v-3A.18.18,0,0,0,3.21,3,.18.18,0,0,0,3,3.21v3a.19.19,0,0,0,.18.19ZM2.65.76V.55A.16.16,0,0,1,2.82.38h.79a.16.16,0,0,1,.17.17V.76Zm1.51,0V.55A.55.55,0,0,0,3.61,0H2.82a.55.55,0,0,0-.55.55V.76H.93A.93.93,0,0,0,0,1.69V2a.44.44,0,0,0,.4.44l.51,4.4a.78.78,0,0,0,.78.7H4.74a.78.78,0,0,0,.78-.7L6,2.46A.45.45,0,0,0,6.43,2V1.69A.94.94,0,0,0,5.49.76ZM.78,2.46H5.65l-.5,4.36a.41.41,0,0,1-.41.36H1.69a.41.41,0,0,1-.41-.36Z"/></g></g></svg>