<svg xmlns="http://www.w3.org/2000/svg" viewBox="0 0 6.75 5.47"><defs><style>.cls-1{fill:#231f20;fill-rule:evenodd;}</style></defs><g id="Camada_2" data-name="Camada 2"><g id="Camada_1-2" data-name="Camada 1"><path class="cls-1" d="M6.75.65a1.77,1.77,0,0,1-.16.22,2.23,2.23,0,0,1-.5.47l0,0A3.12,3.12,0,0,1,6,2a4.05,4.05,0,0,1-.36,1.23,4.07,4.07,0,0,1-.75,1.09A3.86,3.86,0,0,1,3,5.38a5,5,0,0,1-.77.09H2.11A3.87,3.87,0,0,1,0,4.87l0,0,.32,0a2.75,2.75,0,0,0,1.06-.21A2.41,2.41,0,0,0,2,4.28a1.36,1.36,0,0,1-1.27-1,1.07,1.07,0,0,0,.25,0,2,2,0,0,0,.34,0l0,0a1.32,1.32,0,0,1-.89-.63,1.34,1.34,0,0,1-.2-.73,1.29,1.29,0,0,0,.61.16,1.37,1.37,0,0,1-.56-.83A1.34,1.34,0,0,1,.5.26,3.91,3.91,0,0,0,3.33,1.7a.68.68,0,0,0,0-.15,1.35,1.35,0,0,1,.21-.9A1.34,1.34,0,0,1,4.46,0l.25,0a1.35,1.35,0,0,1,1,.41l0,0h0A3,3,0,0,0,6.55.12h0A1.36,1.36,0,0,1,6,.86,2.59,2.59,0,0,0,6.75.65Z"/></g></g></svg>