<svg xmlns="http://www.w3.org/2000/svg" viewBox="0 0 6.36 6.37"><defs><style>.cls-1{fill:#231f20;fill-rule:evenodd;}</style></defs><g id="Camada_2" data-name="Camada 2"><g id="Camada_1-2" data-name="Camada 1"><path class="cls-1" d="M2.13,1.7l.19,0a.16.16,0,0,1,.08.1c.09.2.18.41.25.62s0,.21-.19.39a.16.16,0,0,0,0,.18,2.18,2.18,0,0,0,1.1,1h.06a.12.12,0,0,0,.1-.06c.2-.24.26-.35.35-.35a.07.07,0,0,1,.06,0c.64.3.69.31.69.39a.69.69,0,0,1-.73.71H4A3,3,0,0,1,1.76,3a1,1,0,0,1,.15-1.22.32.32,0,0,1,.22-.08ZM3.6,5.77a2.66,2.66,0,0,0,2.22-3A2.61,2.61,0,0,0,3.23.52,2.65,2.65,0,0,0,.89,4.44a.53.53,0,0,1,0,.5c-.08.22-.13.45-.2.71l.9-.24h.07a.25.25,0,0,1,.14,0,2.63,2.63,0,0,0,1.32.37,2.15,2.15,0,0,0,.43,0Zm2.72-3.2A3.14,3.14,0,0,0,3.25,0a3.18,3.18,0,0,0-.74.09A3.17,3.17,0,0,0,.41,4.66a.31.31,0,0,1,0,.19C.32,5.23.21,5.61.1,6c0,.12-.06.24-.1.37.17,0,.73-.19,1.57-.4h.06a.31.31,0,0,1,.13,0,3.12,3.12,0,0,0,1.42.34,3.51,3.51,0,0,0,.55,0A3.2,3.2,0,0,0,6.32,2.57Z"/></g></g></svg>